<svg class="main-svg" xmlns="http://www.w3.org/2000/svg" xmlns:xlink="http://www.w3.org/1999/xlink" width="1000" height="500" style="" viewBox="0 0 1000 500"><rect x="0" y="0" width="1000" height="500" style="fill: rgb(255, 255, 255); fill-opacity: 1;"/><defs id="defs-d54952"><g class="clips"><clipPath id="clipd54952xyplot" class="plotclip"><rect width="791" height="320"/></clipPath><clipPath class="axesclip" id="clipd54952x"><rect x="80" y="0" width="791" height="500"/></clipPath><clipPath class="axesclip" id="clipd54952y"><rect x="0" y="100" width="1000" height="320"/></clipPath><clipPath class="axesclip" id="clipd54952xy"><rect x="80" y="100" width="791" height="320"/></clipPath></g><g class="gradients"/><g class="patterns"/></defs><g class="bglayer"><rect class="bg" x="80" y="100" width="791" height="320" style="fill: rgb(229, 236, 246); fill-opacity: 1; stroke-width: 0;"/></g><g class="layer-below"><g class="imagelayer"/><g class="shapelayer"/></g><g class="cartesianlayer"><g class="subplot xy"><g class="layer-subplot"><g class="shapelayer"/><g class="imagelayer"/></g><g class="minor-gridlayer"><g class="x"/><g class="y"/></g><g class="gridlayer"><g class="x"/><g class="y"><path class="ygrid crisp" transform="translate(0,405.16)" d="M80,0h791" style="stroke: rgb(255, 255, 255); stroke-opacity: 1; stroke-width: 1px;"/><path class="ygrid crisp" transform="translate(0,368.35)" d="M80,0h791" style="stroke: rgb(255, 255, 255); stroke-opacity: 1; stroke-width: 1px;"/><path class="ygrid crisp" transform="translate(0,331.53999999999996)" d="M80,0h791" style="stroke: rgb(255, 255, 255); stroke-opacity: 1; stroke-width: 1px;"/><path class="ygrid crisp" transform="translate(0,294.73)" d="M80,0h791" style="stroke: rgb(255, 255, 255); stroke-opacity: 1; stroke-width: 1px;"/><path class="ygrid crisp" transform="translate(0,257.91999999999996)" d="M80,0h791" style="stroke: rgb(255, 255, 255); stroke-opacity: 1; stroke-width: 1px;"/><path class="ygrid crisp" transform="translate(0,221.11)" d="M80,0h791" style="stroke: rgb(255, 255, 255); stroke-opacity: 1; stroke-width: 1px;"/><path class="ygrid crisp" transform="translate(0,184.3)" d="M80,0h791" style="stroke: rgb(255, 255, 255); stroke-opacity: 1; stroke-width: 1px;"/><path class="ygrid crisp" transform="translate(0,147.49)" d="M80,0h791" style="stroke: rgb(255, 255, 255); stroke-opacity: 1; stroke-width: 1px;"/><path class="ygrid crisp" transform="translate(0,110.68)" d="M80,0h791" style="stroke: rgb(255, 255, 255); stroke-opacity: 1; stroke-width: 1px;"/></g></g><g class="zerolinelayer"/><g class="layer-between"><g class="shapelayer"/><g class="imagelayer"/></g><path class="xlines-below"/><path class="ylines-below"/><g class="overlines-below"/><g class="xaxislayer-below"/><g class="yaxislayer-below"/><g class="overaxes-below"/><g class="overplot"><g class="xy" transform="translate(80,100)" clip-path="url(#clipd54952xyplot)"><g class="violinlayer mlayer"><g class="trace violins" style="opacity: 1;"><path class="violin" d="M60.3,30.77Q60.89,30.51 61.25,30.39C61.7,30.25 62.23,30.13 62.79,30.01C63.46,29.87 64.22,29.75 65.01,29.63C65.91,29.49 66.91,29.37 67.92,29.25C69.02,29.12 70.2,28.99 71.38,28.87C72.6,28.74 73.88,28.62 75.13,28.49C76.37,28.37 77.64,28.25 78.84,28.12C79.98,28 81.12,27.88 82.15,27.74C83.07,27.62 83.98,27.5 84.74,27.36C85.34,27.24 85.97,27.15 86.35,26.98C86.59,26.87 86.87,26.73 86.87,26.6C86.87,26.47 86.56,26.33 86.33,26.22C86,26.06 85.48,25.96 85.01,25.84C84.47,25.7 83.85,25.58 83.26,25.46C82.66,25.33 82.03,25.22 81.43,25.09C80.85,24.97 80.29,24.84 79.73,24.71C79.19,24.59 78.68,24.46 78.15,24.33C77.61,24.2 77.09,24.07 76.53,23.95C75.93,23.82 75.31,23.69 74.65,23.57C73.93,23.44 73.16,23.31 72.38,23.19C71.55,23.06 70.67,22.94 69.8,22.81C68.92,22.68 68,22.56 67.13,22.43C66.3,22.31 65.45,22.19 64.68,22.06C63.98,21.94 63.29,21.82 62.68,21.68C62.16,21.56 61.66,21.44 61.23,21.3Q60.88,21.18 60.3,20.92L58.27,20.92Q57.69,21.18 57.34,21.3C56.91,21.44 56.41,21.56 55.89,21.68C55.28,21.82 54.59,21.94 53.89,22.06C53.12,22.19 52.27,22.31 51.44,22.43C50.57,22.56 49.65,22.68 48.77,22.81C47.9,22.94 47.02,23.06 46.19,23.19C45.41,23.31 44.64,23.44 43.92,23.57C43.26,23.69 42.64,23.82 42.04,23.95C41.48,24.07 40.96,24.2 40.42,24.33C39.89,24.46 39.38,24.59 38.84,24.71C38.28,24.84 37.72,24.97 37.14,25.09C36.54,25.22 35.91,25.33 35.31,25.46C34.72,25.58 34.1,25.7 33.56,25.84C33.09,25.96 32.57,26.06 32.24,26.22C32.01,26.33 31.71,26.47 31.71,26.6C31.71,26.73 31.99,26.87 32.22,26.98C32.59,27.15 33.23,27.24 33.83,27.36C34.59,27.5 35.5,27.62 36.42,27.74C37.45,27.88 38.59,28 39.73,28.12C40.93,28.25 42.2,28.37 43.44,28.49C44.69,28.62 45.97,28.74 47.19,28.87C48.37,28.99 49.55,29.12 50.65,29.25C51.66,29.37 52.66,29.49 53.56,29.63C54.35,29.75 55.11,29.87 55.78,30.01C56.34,30.13 56.87,30.25 57.32,30.39Q57.68,30.51 58.28,30.77Z" style="vector-effect: none; stroke-width: 2px; stroke: rgb(99, 110, 250); stroke-opacity: 1; fill: rgb(99, 110, 250); fill-opacity: 0.5;"/><path class="box" d="M52.39,26.16H66.18M52.39,27.16H66.18V24.63H52.39ZM59.29,27.16V28.44M59.29,24.63V23.24" style="vector-effect: non-scaling-stroke; stroke-width: 2px; stroke: rgb(99, 110, 250); stroke-opacity: 1; fill: rgb(99, 110, 250); fill-opacity: 0.5;"/><g class="points"><path class="point" transform="translate(22.21,28.44)" d="M3,0A3,3 0 1,1 0,-3A3,3 0 0,1 3,0Z" style="opacity: 1; stroke-width: 0px; fill: rgb(99, 110, 250); fill-opacity: 1;"/><path class="point" transform="translate(12.76,27.95)" d="M3,0A3,3 0 1,1 0,-3A3,3 0 0,1 3,0Z" style="opacity: 1; stroke-width: 0px; fill: rgb(99, 110, 250); fill-opacity: 1;"/><path class="point" transform="translate(23.93,27.16)" d="M3,0A3,3 0 1,1 0,-3A3,3 0 0,1 3,0Z" style="opacity: 1; stroke-width: 0px; fill: rgb(99, 110, 250); fill-opacity: 1;"/><path class="point" transform="translate(11.64,26.73)" d="M3,0A3,3 0 1,1 0,-3A3,3 0 0,1 3,0Z" style="opacity: 1; stroke-width: 0px; fill: rgb(99, 110, 250); fill-opacity: 1;"/><path class="point" transform="translate(16.06,26.63)" d="M3,0A3,3 0 1,1 0,-3A3,3 0 0,1 3,0Z" style="opacity: 1; stroke-width: 0px; fill: rgb(99, 110, 250); fill-opacity: 1;"/><path class="point" transform="translate(21.87,26.05)" d="M3,0A3,3 0 1,1 0,-3A3,3 0 0,1 3,0Z" style="opacity: 1; stroke-width: 0px; fill: rgb(99, 110, 250); fill-opacity: 1;"/><path class="point" transform="translate(17.64,25.45)" d="M3,0A3,3 0 1,1 0,-3A3,3 0 0,1 3,0Z" style="opacity: 1; stroke-width: 0px; fill: rgb(99, 110, 250); fill-opacity: 1;"/><path class="point" transform="translate(20.13,24.63)" d="M3,0A3,3 0 1,1 0,-3A3,3 0 0,1 3,0Z" style="opacity: 1; stroke-width: 0px; fill: rgb(99, 110, 250); fill-opacity: 1;"/><path class="point" transform="translate(15.52,23.68)" d="M3,0A3,3 0 1,1 0,-3A3,3 0 0,1 3,0Z" style="opacity: 1; stroke-width: 0px; fill: rgb(99, 110, 250); fill-opacity: 1;"/><path class="point" transform="translate(12.82,23.24)" d="M3,0A3,3 0 1,1 0,-3A3,3 0 0,1 3,0Z" style="opacity: 1; stroke-width: 0px; fill: rgb(99, 110, 250); fill-opacity: 1;"/></g></g><g class="trace violins" style="opacity: 1;"><path class="violin" d="M172.06,73.26Q172.16,72.33 172.24,71.86C172.32,71.39 172.41,70.92 172.53,70.46C172.65,69.99 172.78,69.52 172.95,69.06C173.12,68.59 173.31,68.13 173.53,67.67C173.76,67.2 174.02,66.73 174.3,66.27C174.59,65.8 174.92,65.33 175.27,64.87C175.63,64.39 176.04,63.93 176.45,63.47C176.87,63 177.33,62.54 177.77,62.07C178.2,61.61 178.67,61.16 179.05,60.68C179.42,60.23 179.79,59.77 180.03,59.28C180.26,58.83 180.45,58.35 180.49,57.88C180.53,57.42 180.44,56.93 180.3,56.48C180.15,56 179.86,55.54 179.58,55.09C179.29,54.61 178.92,54.16 178.59,53.69C178.26,53.22 177.91,52.77 177.62,52.29C177.34,51.83 177.09,51.36 176.89,50.89C176.7,50.43 176.56,49.97 176.43,49.5C176.3,49.04 176.23,48.57 176.13,48.1C176.03,47.63 175.96,47.16 175.85,46.7C175.74,46.23 175.61,45.76 175.46,45.3C175.31,44.83 175.13,44.37 174.94,43.91C174.75,43.44 174.52,42.98 174.31,42.51C174.1,42.04 173.87,41.58 173.67,41.11C173.47,40.65 173.27,40.18 173.09,39.71C172.92,39.25 172.75,38.79 172.62,38.32C172.49,37.86 172.38,37.39 172.29,36.92Q172.2,36.46 172.08,35.52L171.63,35.52Q171.51,36.46 171.42,36.92C171.33,37.39 171.22,37.86 171.09,38.32C170.96,38.79 170.8,39.25 170.63,39.71C170.46,40.18 170.25,40.65 170.05,41.11C169.84,41.58 169.61,42.04 169.4,42.51C169.19,42.98 168.97,43.44 168.78,43.91C168.59,44.37 168.4,44.83 168.25,45.3C168.1,45.76 167.98,46.23 167.87,46.7C167.76,47.16 167.68,47.63 167.58,48.1C167.48,48.57 167.42,49.04 167.29,49.5C167.16,49.97 167.01,50.43 166.82,50.89C166.62,51.36 166.37,51.83 166.09,52.29C165.8,52.77 165.46,53.22 165.13,53.69C164.8,54.16 164.42,54.61 164.13,55.09C163.85,55.54 163.56,56 163.41,56.48C163.27,56.93 163.19,57.42 163.23,57.88C163.27,58.35 163.46,58.83 163.68,59.28C163.92,59.77 164.3,60.23 164.67,60.68C165.05,61.16 165.51,61.61 165.94,62.07C166.37,62.54 166.84,63 167.26,63.47C167.67,63.93 168.07,64.4 168.44,64.87C168.79,65.33 169.13,65.79 169.42,66.27C169.7,66.73 169.95,67.2 170.18,67.67C170.4,68.13 170.59,68.59 170.76,69.06C170.93,69.52 171.06,69.99 171.18,70.46C171.3,70.92 171.39,71.39 171.47,71.86Q171.55,72.33 171.66,73.26Z" style="vector-effect: none; stroke-width: 2px; stroke: rgb(239, 85, 59); stroke-opacity: 1; fill: rgb(239, 85, 59); fill-opacity: 0.5;"/><path class="box" d="M164.96,57H178.75M164.96,58H178.75V49.25H164.96ZM171.86,58V64.8M171.86,49.25V43.97" style="vector-effect: non-scaling-stroke; stroke-width: 2px; stroke: rgb(239, 85, 59); stroke-opacity: 1; fill: rgb(239, 85, 59); fill-opacity: 0.5;"/><g class="points"><path class="point" transform="translate(134.45,64.8)" d="M3,0A3,3 0 1,1 0,-3A3,3 0 0,1 3,0Z" style="opacity: 1; stroke-width: 0px; fill: rgb(239, 85, 59); fill-opacity: 1;"/><path class="point" transform="translate(125.21,59.68)" d="M3,0A3,3 0 1,1 0,-3A3,3 0 0,1 3,0Z" style="opacity: 1; stroke-width: 0px; fill: rgb(239, 85, 59); fill-opacity: 1;"/><path class="point" transform="translate(135.56,58)" d="M3,0A3,3 0 1,1 0,-3A3,3 0 0,1 3,0Z" style="opacity: 1; stroke-width: 0px; fill: rgb(239, 85, 59); fill-opacity: 1;"/><path class="point" transform="translate(124.92,57.68)" d="M3,0A3,3 0 1,1 0,-3A3,3 0 0,1 3,0Z" style="opacity: 1; stroke-width: 0px; fill: rgb(239, 85, 59); fill-opacity: 1;"/><path class="point" transform="translate(128.91,57.38)" d="M3,0A3,3 0 1,1 0,-3A3,3 0 0,1 3,0Z" style="opacity: 1; stroke-width: 0px; fill: rgb(239, 85, 59); fill-opacity: 1;"/><path class="point" transform="translate(133.86,56.63)" d="M3,0A3,3 0 1,1 0,-3A3,3 0 0,1 3,0Z" style="opacity: 1; stroke-width: 0px; fill: rgb(239, 85, 59); fill-opacity: 1;"/><path class="point" transform="translate(130.23,56.45)" d="M3,0A3,3 0 1,1 0,-3A3,3 0 0,1 3,0Z" style="opacity: 1; stroke-width: 0px; fill: rgb(239, 85, 59); fill-opacity: 1;"/><path class="point" transform="translate(132.49,49.25)" d="M3,0A3,3 0 1,1 0,-3A3,3 0 0,1 3,0Z" style="opacity: 1; stroke-width: 0px; fill: rgb(239, 85, 59); fill-opacity: 1;"/><path class="point" transform="translate(128.43,47.21)" d="M3,0A3,3 0 1,1 0,-3A3,3 0 0,1 3,0Z" style="opacity: 1; stroke-width: 0px; fill: rgb(239, 85, 59); fill-opacity: 1;"/><path class="point" transform="translate(126.12,43.97)" d="M3,0A3,3 0 1,1 0,-3A3,3 0 0,1 3,0Z" style="opacity: 1; stroke-width: 0px; fill: rgb(239, 85, 59); fill-opacity: 1;"/></g></g><g class="trace violins" style="opacity: 1;"><path class="violin" d="M284.66,76.03Q284.78,74.36 284.87,73.53C284.96,72.7 285.07,71.86 285.19,71.03C285.32,70.2 285.47,69.36 285.62,68.53C285.77,67.7 285.93,66.86 286.08,66.03C286.23,65.19 286.38,64.36 286.5,63.52C286.62,62.69 286.72,61.85 286.78,61.02C286.84,60.19 286.87,59.35 286.88,58.52C286.89,57.69 286.85,56.85 286.83,56.02C286.81,55.19 286.77,54.35 286.77,53.52C286.77,52.69 286.78,51.85 286.85,51.02C286.92,50.19 287.02,49.35 287.17,48.52C287.32,47.68 287.54,46.85 287.75,46.02C287.96,45.18 288.23,44.35 288.45,43.51C288.67,42.68 288.92,41.85 289.08,41.01C289.24,40.18 289.37,39.35 289.42,38.51C289.47,37.68 289.45,36.84 289.36,36.01C289.27,35.17 289.09,34.34 288.88,33.51C288.67,32.67 288.38,31.84 288.1,31.01C287.82,30.17 287.5,29.34 287.21,28.51C286.92,27.68 286.61,26.85 286.35,26.01C286.09,25.18 285.84,24.34 285.64,23.5C285.44,22.67 285.27,21.84 285.13,21C284.99,20.17 284.89,19.33 284.8,18.5Q284.71,17.67 284.61,16L284.25,16Q284.15,17.67 284.06,18.5C283.97,19.33 283.86,20.17 283.72,21C283.58,21.84 283.41,22.67 283.21,23.5C283.01,24.34 282.77,25.18 282.51,26.01C282.25,26.85 281.94,27.68 281.65,28.51C281.36,29.34 281.03,30.17 280.75,31.01C280.47,31.84 280.19,32.67 279.98,33.51C279.77,34.34 279.59,35.17 279.5,36.01C279.41,36.84 279.38,37.68 279.43,38.51C279.48,39.35 279.62,40.18 279.78,41.01C279.94,41.85 280.18,42.68 280.4,43.51C280.62,44.35 280.9,45.18 281.11,46.02C281.32,46.85 281.53,47.68 281.68,48.52C281.83,49.35 281.94,50.18 282.01,51.02C282.08,51.85 282.09,52.69 282.09,53.52C282.09,54.35 282.05,55.19 282.03,56.02C282.01,56.85 281.97,57.69 281.98,58.52C281.99,59.35 282.02,60.19 282.08,61.02C282.14,61.85 282.25,62.69 282.36,63.52C282.48,64.36 282.62,65.2 282.77,66.03C282.92,66.87 283.09,67.7 283.24,68.53C283.39,69.36 283.53,70.2 283.66,71.03C283.78,71.86 283.9,72.7 283.99,73.53Q284.08,74.36 284.2,76.03Z" style="vector-effect: none; stroke-width: 2px; stroke: rgb(0, 204, 150); stroke-opacity: 1; fill: rgb(0, 204, 150); fill-opacity: 0.5;"/><path class="box" d="M277.53,40.04H291.32M277.53,59.02H291.32V36.46H277.53ZM284.43,59.02V61.01M284.43,36.46V31.02" style="vector-effect: non-scaling-stroke; stroke-width: 2px; stroke: rgb(0, 204, 150); stroke-opacity: 1; fill: rgb(0, 204, 150); fill-opacity: 0.5;"/><g class="points"><path class="point" transform="translate(245.72,61.01)" d="M3,0A3,3 0 1,1 0,-3A3,3 0 0,1 3,0Z" style="opacity: 1; stroke-width: 0px; fill: rgb(0, 204, 150); fill-opacity: 1;"/><path class="point" transform="translate(239.65,59.26)" d="M3,0A3,3 0 1,1 0,-3A3,3 0 0,1 3,0Z" style="opacity: 1; stroke-width: 0px; fill: rgb(0, 204, 150); fill-opacity: 1;"/><path class="point" transform="translate(247.49,59.02)" d="M3,0A3,3 0 1,1 0,-3A3,3 0 0,1 3,0Z" style="opacity: 1; stroke-width: 0px; fill: rgb(0, 204, 150); fill-opacity: 1;"/><path class="point" transform="translate(238,41.06)" d="M3,0A3,3 0 1,1 0,-3A3,3 0 0,1 3,0Z" style="opacity: 1; stroke-width: 0px; fill: rgb(0, 204, 150); fill-opacity: 1;"/><path class="point" transform="translate(241.61,40.88)" d="M3,0A3,3 0 1,1 0,-3A3,3 0 0,1 3,0Z" style="opacity: 1; stroke-width: 0px; fill: rgb(0, 204, 150); fill-opacity: 1;"/><path class="point" transform="translate(246.14,39.2)" d="M3,0A3,3 0 1,1 0,-3A3,3 0 0,1 3,0Z" style="opacity: 1; stroke-width: 0px; fill: rgb(0, 204, 150); fill-opacity: 1;"/><path class="point" transform="translate(242.85,36.95)" d="M3,0A3,3 0 1,1 0,-3A3,3 0 0,1 3,0Z" style="opacity: 1; stroke-width: 0px; fill: rgb(0, 204, 150); fill-opacity: 1;"/><path class="point" transform="translate(244.61,36.46)" d="M3,0A3,3 0 1,1 0,-3A3,3 0 0,1 3,0Z" style="opacity: 1; stroke-width: 0px; fill: rgb(0, 204, 150); fill-opacity: 1;"/><path class="point" transform="translate(240.42,35.44)" d="M3,0A3,3 0 1,1 0,-3A3,3 0 0,1 3,0Z" style="opacity: 1; stroke-width: 0px; fill: rgb(0, 204, 150); fill-opacity: 1;"/><path class="point" transform="translate(237.47,31.02)" d="M3,0A3,3 0 1,1 0,-3A3,3 0 0,1 3,0Z" style="opacity: 1; stroke-width: 0px; fill: rgb(0, 204, 150); fill-opacity: 1;"/></g></g><g class="trace violins" style="opacity: 1;"><path class="violin" d="M397.11,131.17Q397.17,128.91 397.21,127.78C397.26,126.65 397.32,125.51 397.38,124.38C397.45,123.25 397.51,122.11 397.6,120.98C397.68,119.85 397.79,118.72 397.89,117.59C397.99,116.46 398.1,115.32 398.21,114.19C398.32,113.06 398.44,111.92 398.54,110.79C398.64,109.66 398.74,108.53 398.82,107.4C398.91,106.27 398.98,105.13 399.05,104C399.12,102.87 399.17,101.74 399.22,100.61C399.27,99.48 399.3,98.34 399.34,97.21C399.38,96.08 399.4,94.94 399.44,93.81C399.47,92.68 399.51,91.55 399.55,90.42C399.59,89.29 399.63,88.15 399.67,87.02C399.71,85.89 399.75,84.75 399.79,83.62C399.83,82.49 399.87,81.36 399.89,80.23C399.91,79.1 399.92,77.96 399.91,76.83C399.9,75.7 399.88,74.56 399.83,73.43C399.78,72.3 399.71,71.17 399.62,70.04C399.53,68.91 399.42,67.77 399.3,66.64C399.18,65.51 399.02,64.38 398.88,63.25C398.73,62.12 398.58,60.98 398.43,59.85C398.28,58.72 398.13,57.58 398,56.45C397.87,55.32 397.74,54.19 397.64,53.06C397.53,51.93 397.44,50.79 397.37,49.66Q397.3,48.53 397.2,46.26L396.8,46.26Q396.7,48.53 396.63,49.66C396.56,50.79 396.47,51.93 396.36,53.06C396.26,54.19 396.13,55.32 396,56.45C395.87,57.58 395.72,58.72 395.57,59.85C395.42,60.98 395.27,62.12 395.12,63.25C394.98,64.38 394.82,65.51 394.7,66.64C394.58,67.77 394.47,68.91 394.38,70.04C394.29,71.17 394.22,72.3 394.17,73.43C394.12,74.56 394.1,75.7 394.09,76.83C394.08,77.96 394.09,79.1 394.11,80.23C394.13,81.36 394.17,82.49 394.21,83.62C394.25,84.75 394.29,85.89 394.33,87.02C394.37,88.15 394.41,89.29 394.45,90.42C394.49,91.55 394.53,92.68 394.56,93.81C394.6,94.94 394.62,96.08 394.66,97.21C394.7,98.34 394.73,99.48 394.78,100.61C394.83,101.74 394.88,102.87 394.95,104C395.02,105.13 395.09,106.27 395.18,107.4C395.26,108.53 395.36,109.66 395.46,110.79C395.56,111.92 395.68,113.06 395.79,114.19C395.9,115.32 396.01,116.46 396.11,117.59C396.21,118.72 396.32,119.85 396.4,120.98C396.49,122.11 396.55,123.25 396.62,124.38C396.68,125.51 396.74,126.65 396.79,127.78Q396.83,128.91 396.89,131.17Z" style="vector-effect: none; stroke-width: 2px; stroke: rgb(171, 99, 250); stroke-opacity: 1; fill: rgb(171, 99, 250); fill-opacity: 0.5;"/><path class="box" d="M390.11,82.05H403.9M390.11,98.07H403.9V69.44H390.11ZM397,98.07V110.16M397,69.44V67.28" style="vector-effect: non-scaling-stroke; stroke-width: 2px; stroke: rgb(171, 99, 250); stroke-opacity: 1; fill: rgb(171, 99, 250); fill-opacity: 0.5;"/><g class="points"><path class="point" transform="translate(358.82,110.16)" d="M3,0A3,3 0 1,1 0,-3A3,3 0 0,1 3,0Z" style="opacity: 1; stroke-width: 0px; fill: rgb(171, 99, 250); fill-opacity: 1;"/><path class="point" transform="translate(351.35,105.82)" d="M3,0A3,3 0 1,1 0,-3A3,3 0 0,1 3,0Z" style="opacity: 1; stroke-width: 0px; fill: rgb(171, 99, 250); fill-opacity: 1;"/><path class="point" transform="translate(360.46,98.07)" d="M3,0A3,3 0 1,1 0,-3A3,3 0 0,1 3,0Z" style="opacity: 1; stroke-width: 0px; fill: rgb(171, 99, 250); fill-opacity: 1;"/><path class="point" transform="translate(350.1,94.94)" d="M3,0A3,3 0 1,1 0,-3A3,3 0 0,1 3,0Z" style="opacity: 1; stroke-width: 0px; fill: rgb(171, 99, 250); fill-opacity: 1;"/><path class="point" transform="translate(353.94,83.76)" d="M3,0A3,3 0 1,1 0,-3A3,3 0 0,1 3,0Z" style="opacity: 1; stroke-width: 0px; fill: rgb(171, 99, 250); fill-opacity: 1;"/><path class="point" transform="translate(359.24,80.34)" d="M3,0A3,3 0 1,1 0,-3A3,3 0 0,1 3,0Z" style="opacity: 1; stroke-width: 0px; fill: rgb(171, 99, 250); fill-opacity: 1;"/><path class="point" transform="translate(355.38,80.06)" d="M3,0A3,3 0 1,1 0,-3A3,3 0 0,1 3,0Z" style="opacity: 1; stroke-width: 0px; fill: rgb(171, 99, 250); fill-opacity: 1;"/><path class="point" transform="translate(357.71,69.44)" d="M3,0A3,3 0 1,1 0,-3A3,3 0 0,1 3,0Z" style="opacity: 1; stroke-width: 0px; fill: rgb(171, 99, 250); fill-opacity: 1;"/><path class="point" transform="translate(353.4,67.91)" d="M3,0A3,3 0 1,1 0,-3A3,3 0 0,1 3,0Z" style="opacity: 1; stroke-width: 0px; fill: rgb(171, 99, 250); fill-opacity: 1;"/><path class="point" transform="translate(349.57,67.28)" d="M3,0A3,3 0 1,1 0,-3A3,3 0 0,1 3,0Z" style="opacity: 1; stroke-width: 0px; fill: rgb(171, 99, 250); fill-opacity: 1;"/></g></g><g class="trace violins" style="opacity: 1;"><path class="violin" d="M509.73,89.42Q509.82,87.65 509.89,86.76C509.96,85.87 510.03,84.99 510.13,84.1C510.23,83.21 510.34,82.33 510.47,81.44C510.6,80.55 510.75,79.66 510.9,78.77C511.05,77.88 511.21,77 511.36,76.11C511.51,75.22 511.67,74.34 511.8,73.45C511.93,72.56 512.05,71.68 512.15,70.79C512.25,69.9 512.32,69.01 512.38,68.12C512.44,67.23 512.47,66.35 512.51,65.46C512.54,64.57 512.56,63.69 512.59,62.8C512.62,61.91 512.64,61.03 512.68,60.14C512.72,59.25 512.78,58.36 512.84,57.47C512.9,56.58 512.99,55.7 513.06,54.81C513.14,53.92 513.22,53.04 513.29,52.15C513.36,51.26 513.43,50.38 513.46,49.49C513.49,48.6 513.5,47.71 513.46,46.82C513.42,45.93 513.35,45.04 513.25,44.16C513.14,43.27 513,42.38 512.83,41.5C512.66,40.61 512.45,39.73 512.25,38.84C512.04,37.95 511.81,37.06 511.6,36.17C511.39,35.28 511.17,34.4 510.98,33.51C510.79,32.63 510.61,31.74 510.46,30.85C510.31,29.97 510.18,29.08 510.08,28.19Q509.98,27.3 509.84,25.52L509.31,25.52Q509.16,27.3 509.06,28.19C508.95,29.08 508.83,29.97 508.68,30.85C508.53,31.74 508.35,32.63 508.16,33.51C507.97,34.4 507.75,35.28 507.54,36.17C507.33,37.06 507.1,37.95 506.89,38.84C506.69,39.73 506.48,40.61 506.31,41.5C506.14,42.38 506,43.27 505.89,44.16C505.79,45.04 505.71,45.93 505.68,46.82C505.65,47.71 505.66,48.6 505.69,49.49C505.72,50.38 505.79,51.26 505.85,52.15C505.92,53.04 506,53.92 506.08,54.81C506.16,55.7 506.25,56.58 506.31,57.47C506.37,58.36 506.42,59.25 506.46,60.14C506.5,61.03 506.52,61.91 506.55,62.8C506.58,63.69 506.6,64.57 506.63,65.46C506.67,66.35 506.7,67.23 506.76,68.12C506.82,69.01 506.89,69.9 506.99,70.79C507.09,71.68 507.21,72.56 507.34,73.45C507.47,74.34 507.63,75.22 507.78,76.11C507.93,77 508.09,77.88 508.24,78.77C508.39,79.66 508.54,80.55 508.67,81.44C508.8,82.33 508.91,83.21 509.01,84.1C509.11,84.99 509.19,85.87 509.26,86.76Q509.33,87.65 509.41,89.42Z" style="vector-effect: none; stroke-width: 2px; stroke: rgb(255, 161, 90); stroke-opacity: 1; fill: rgb(255, 161, 90); fill-opacity: 0.5;"/><path class="box" d="M502.68,51.62H516.47M502.68,65.37H516.47V43.05H502.68ZM509.57,65.37V73.37M509.57,43.05V41.58" style="vector-effect: non-scaling-stroke; stroke-width: 2px; stroke: rgb(255, 161, 90); stroke-opacity: 1; fill: rgb(255, 161, 90); fill-opacity: 0.5;"/><g class="points"><path class="point" transform="translate(471.17,73.37)" d="M3,0A3,3 0 1,1 0,-3A3,3 0 0,1 3,0Z" style="opacity: 1; stroke-width: 0px; fill: rgb(255, 161, 90); fill-opacity: 1;"/><path class="point" transform="translate(464.26,70.93)" d="M3,0A3,3 0 1,1 0,-3A3,3 0 0,1 3,0Z" style="opacity: 1; stroke-width: 0px; fill: rgb(255, 161, 90); fill-opacity: 1;"/><path class="point" transform="translate(472.72,65.37)" d="M3,0A3,3 0 1,1 0,-3A3,3 0 0,1 3,0Z" style="opacity: 1; stroke-width: 0px; fill: rgb(255, 161, 90); fill-opacity: 1;"/><path class="point" transform="translate(463.01,63.13)" d="M3,0A3,3 0 1,1 0,-3A3,3 0 0,1 3,0Z" style="opacity: 1; stroke-width: 0px; fill: rgb(255, 161, 90); fill-opacity: 1;"/><path class="point" transform="translate(466.61,52.33)" d="M3,0A3,3 0 1,1 0,-3A3,3 0 0,1 3,0Z" style="opacity: 1; stroke-width: 0px; fill: rgb(255, 161, 90); fill-opacity: 1;"/><path class="point" transform="translate(471.59,50.91)" d="M3,0A3,3 0 1,1 0,-3A3,3 0 0,1 3,0Z" style="opacity: 1; stroke-width: 0px; fill: rgb(255, 161, 90); fill-opacity: 1;"/><path class="point" transform="translate(467.97,50.3)" d="M3,0A3,3 0 1,1 0,-3A3,3 0 0,1 3,0Z" style="opacity: 1; stroke-width: 0px; fill: rgb(255, 161, 90); fill-opacity: 1;"/><path class="point" transform="translate(470.11,43.05)" d="M3,0A3,3 0 1,1 0,-3A3,3 0 0,1 3,0Z" style="opacity: 1; stroke-width: 0px; fill: rgb(255, 161, 90); fill-opacity: 1;"/><path class="point" transform="translate(466.16,42.13)" d="M3,0A3,3 0 1,1 0,-3A3,3 0 0,1 3,0Z" style="opacity: 1; stroke-width: 0px; fill: rgb(255, 161, 90); fill-opacity: 1;"/><path class="point" transform="translate(462.14,41.58)" d="M3,0A3,3 0 1,1 0,-3A3,3 0 0,1 3,0Z" style="opacity: 1; stroke-width: 0px; fill: rgb(255, 161, 90); fill-opacity: 1;"/></g></g><g class="trace violins" style="opacity: 1;"><path class="violin" d="M622.54,69.36Q622.75,68.27 622.9,67.73C623.05,67.18 623.22,66.64 623.42,66.1C623.62,65.55 623.87,65.01 624.11,64.47C624.36,63.92 624.63,63.38 624.89,62.84C625.15,62.3 625.41,61.76 625.65,61.21C625.89,60.67 626.11,60.13 626.31,59.58C626.5,59.04 626.67,58.5 626.82,57.95C626.96,57.41 627.07,56.86 627.18,56.32C627.29,55.78 627.38,55.23 627.47,54.69C627.56,54.15 627.64,53.6 627.72,53.06C627.79,52.52 627.87,51.97 627.92,51.43C627.97,50.89 628.01,50.34 628.03,49.8C628.05,49.26 628.04,48.71 628.02,48.17C628,47.63 627.94,47.08 627.88,46.54C627.82,46 627.74,45.46 627.65,44.92C627.56,44.38 627.47,43.83 627.35,43.29C627.23,42.74 627.1,42.2 626.94,41.66C626.78,41.11 626.6,40.57 626.4,40.03C626.19,39.48 625.95,38.94 625.7,38.4C625.45,37.85 625.17,37.31 624.91,36.77C624.65,36.23 624.38,35.69 624.13,35.14C623.89,34.6 623.64,34.06 623.44,33.51C623.24,32.97 623.06,32.43 622.91,31.88Q622.76,31.34 622.55,30.25L621.73,30.25Q621.53,31.34 621.38,31.88C621.23,32.43 621.05,32.97 620.85,33.51C620.65,34.06 620.41,34.6 620.16,35.14C619.91,35.69 619.63,36.23 619.37,36.77C619.11,37.31 618.83,37.85 618.58,38.4C618.33,38.94 618.1,39.48 617.89,40.03C617.69,40.57 617.5,41.11 617.34,41.66C617.18,42.2 617.06,42.75 616.94,43.29C616.82,43.83 616.72,44.38 616.63,44.92C616.54,45.46 616.46,46 616.4,46.54C616.34,47.08 616.29,47.63 616.27,48.17C616.25,48.71 616.24,49.26 616.25,49.8C616.26,50.34 616.31,50.89 616.36,51.43C616.41,51.97 616.49,52.52 616.57,53.06C616.65,53.6 616.73,54.15 616.82,54.69C616.91,55.23 616.99,55.78 617.1,56.32C617.21,56.86 617.33,57.41 617.47,57.95C617.62,58.5 617.78,59.04 617.97,59.58C618.16,60.13 618.39,60.67 618.63,61.21C618.87,61.76 619.14,62.3 619.4,62.84C619.66,63.38 619.94,63.92 620.18,64.47C620.42,65.01 620.66,65.55 620.86,66.1C621.06,66.64 621.24,67.18 621.39,67.73Q621.54,68.27 621.74,69.36Z" style="vector-effect: none; stroke-width: 2px; stroke: rgb(25, 211, 243); stroke-opacity: 1; fill: rgb(25, 211, 243); fill-opacity: 0.5;"/><path class="box" d="M615.25,49.46H629.04M615.25,58.63H629.04V41.43H615.25ZM622.14,58.63V59.35M622.14,41.43V40.26" style="vector-effect: non-scaling-stroke; stroke-width: 2px; stroke: rgb(25, 211, 243); stroke-opacity: 1; fill: rgb(25, 211, 243); fill-opacity: 0.5;"/><g class="points"><path class="point" transform="translate(584.91,59.35)" d="M3,0A3,3 0 1,1 0,-3A3,3 0 0,1 3,0Z" style="opacity: 1; stroke-width: 0px; fill: rgb(25, 211, 243); fill-opacity: 1;"/><path class="point" transform="translate(575.53,58.75)" d="M3,0A3,3 0 1,1 0,-3A3,3 0 0,1 3,0Z" style="opacity: 1; stroke-width: 0px; fill: rgb(25, 211, 243); fill-opacity: 1;"/><path class="point" transform="translate(586.22,58.63)" d="M3,0A3,3 0 1,1 0,-3A3,3 0 0,1 3,0Z" style="opacity: 1; stroke-width: 0px; fill: rgb(25, 211, 243); fill-opacity: 1;"/><path class="point" transform="translate(574.6,51.47)" d="M3,0A3,3 0 1,1 0,-3A3,3 0 0,1 3,0Z" style="opacity: 1; stroke-width: 0px; fill: rgb(25, 211, 243); fill-opacity: 1;"/><path class="point" transform="translate(578.87,49.49)" d="M3,0A3,3 0 1,1 0,-3A3,3 0 0,1 3,0Z" style="opacity: 1; stroke-width: 0px; fill: rgb(25, 211, 243); fill-opacity: 1;"/><path class="point" transform="translate(584.83,49.42)" d="M3,0A3,3 0 1,1 0,-3A3,3 0 0,1 3,0Z" style="opacity: 1; stroke-width: 0px; fill: rgb(25, 211, 243); fill-opacity: 1;"/><path class="point" transform="translate(580.5,48.14)" d="M3,0A3,3 0 1,1 0,-3A3,3 0 0,1 3,0Z" style="opacity: 1; stroke-width: 0px; fill: rgb(25, 211, 243); fill-opacity: 1;"/><path class="point" transform="translate(582.79,41.43)" d="M3,0A3,3 0 1,1 0,-3A3,3 0 0,1 3,0Z" style="opacity: 1; stroke-width: 0px; fill: rgb(25, 211, 243); fill-opacity: 1;"/><path class="point" transform="translate(578.15,40.38)" d="M3,0A3,3 0 1,1 0,-3A3,3 0 0,1 3,0Z" style="opacity: 1; stroke-width: 0px; fill: rgb(25, 211, 243); fill-opacity: 1;"/><path class="point" transform="translate(574.71,40.26)" d="M3,0A3,3 0 1,1 0,-3A3,3 0 0,1 3,0Z" style="opacity: 1; stroke-width: 0px; fill: rgb(25, 211, 243); fill-opacity: 1;"/></g></g><g class="trace violins" style="opacity: 1;"><path class="violin" d="M734.81,304Q734.86,300.39 734.9,298.58C734.94,296.78 734.99,294.97 735.04,293.17C735.09,291.36 735.15,289.56 735.22,287.75C735.29,285.95 735.37,284.14 735.44,282.34C735.52,280.53 735.6,278.73 735.67,276.92C735.74,275.12 735.82,273.31 735.88,271.51C735.94,269.7 736,267.9 736.05,266.09C736.1,264.29 736.15,262.48 736.19,260.68C736.23,258.87 736.26,257.07 736.29,255.26C736.32,253.46 736.35,251.65 736.37,249.85C736.4,248.04 736.42,246.24 736.44,244.43C736.46,242.63 736.47,240.82 736.48,239.02C736.49,237.21 736.5,235.41 736.5,233.6C736.5,231.79 736.5,229.99 736.49,228.18C736.48,226.38 736.47,224.57 736.45,222.77C736.43,220.96 736.41,219.16 736.38,217.35C736.35,215.55 736.3,213.74 736.25,211.94C736.2,210.13 736.15,208.33 736.08,206.52C736.01,204.72 735.93,202.91 735.85,201.11C735.77,199.3 735.68,197.5 735.6,195.69C735.52,193.89 735.44,192.08 735.36,190.28C735.28,188.47 735.21,186.67 735.14,184.86C735.08,183.06 735.02,181.25 734.97,179.45C734.92,177.64 734.89,175.84 734.86,174.03Q734.83,172.23 734.79,168.62L734.64,168.62Q734.6,172.23 734.57,174.03C734.54,175.84 734.51,177.64 734.46,179.45C734.41,181.25 734.35,183.06 734.29,184.86C734.22,186.67 734.15,188.47 734.07,190.28C733.99,192.08 733.91,193.89 733.83,195.69C733.75,197.5 733.66,199.3 733.58,201.11C733.5,202.91 733.42,204.72 733.35,206.52C733.28,208.33 733.22,210.13 733.17,211.94C733.12,213.74 733.08,215.55 733.05,217.35C733.02,219.16 733,220.96 732.98,222.77C732.96,224.57 732.95,226.38 732.94,228.18C732.93,229.99 732.93,231.79 732.93,233.6C732.93,235.41 732.94,237.21 732.95,239.02C732.96,240.82 732.97,242.63 732.99,244.43C733.01,246.24 733.03,248.04 733.06,249.85C733.08,251.65 733.11,253.46 733.14,255.26C733.17,257.07 733.2,258.87 733.24,260.68C733.28,262.48 733.33,264.29 733.38,266.09C733.43,267.9 733.49,269.7 733.55,271.51C733.61,273.31 733.69,275.12 733.76,276.92C733.83,278.73 733.91,280.53 733.99,282.34C734.06,284.14 734.14,285.95 734.21,287.75C734.28,289.56 734.34,291.36 734.39,293.17C734.44,294.97 734.48,296.78 734.52,298.58Q734.56,300.39 734.61,304Z" style="vector-effect: none; stroke-width: 2px; stroke: rgb(255, 102, 146); stroke-opacity: 1; fill: rgb(255, 102, 146); fill-opacity: 0.5;"/><path class="box" d="M727.82,238.55H741.61M727.82,259.22H741.61V212.75H727.82ZM734.71,259.22V270.98M734.71,212.75V201.64" style="vector-effect: non-scaling-stroke; stroke-width: 2px; stroke: rgb(255, 102, 146); stroke-opacity: 1; fill: rgb(255, 102, 146); fill-opacity: 0.5;"/><g class="points"><path class="point" transform="translate(697.51,270.98)" d="M3,0A3,3 0 1,1 0,-3A3,3 0 0,1 3,0Z" style="opacity: 1; stroke-width: 0px; fill: rgb(255, 102, 146); fill-opacity: 1;"/><path class="point" transform="translate(688.42,270.08)" d="M3,0A3,3 0 1,1 0,-3A3,3 0 0,1 3,0Z" style="opacity: 1; stroke-width: 0px; fill: rgb(255, 102, 146); fill-opacity: 1;"/><path class="point" transform="translate(699.15,259.22)" d="M3,0A3,3 0 1,1 0,-3A3,3 0 0,1 3,0Z" style="opacity: 1; stroke-width: 0px; fill: rgb(255, 102, 146); fill-opacity: 1;"/><path class="point" transform="translate(686.69,242.49)" d="M3,0A3,3 0 1,1 0,-3A3,3 0 0,1 3,0Z" style="opacity: 1; stroke-width: 0px; fill: rgb(255, 102, 146); fill-opacity: 1;"/><path class="point" transform="translate(691.43,242.24)" d="M3,0A3,3 0 1,1 0,-3A3,3 0 0,1 3,0Z" style="opacity: 1; stroke-width: 0px; fill: rgb(255, 102, 146); fill-opacity: 1;"/><path class="point" transform="translate(697.43,234.87)" d="M3,0A3,3 0 1,1 0,-3A3,3 0 0,1 3,0Z" style="opacity: 1; stroke-width: 0px; fill: rgb(255, 102, 146); fill-opacity: 1;"/><path class="point" transform="translate(693.07,224.09)" d="M3,0A3,3 0 1,1 0,-3A3,3 0 0,1 3,0Z" style="opacity: 1; stroke-width: 0px; fill: rgb(255, 102, 146); fill-opacity: 1;"/><path class="point" transform="translate(695.53,212.75)" d="M3,0A3,3 0 1,1 0,-3A3,3 0 0,1 3,0Z" style="opacity: 1; stroke-width: 0px; fill: rgb(255, 102, 146); fill-opacity: 1;"/><path class="point" transform="translate(690.7,210.81)" d="M3,0A3,3 0 1,1 0,-3A3,3 0 0,1 3,0Z" style="opacity: 1; stroke-width: 0px; fill: rgb(255, 102, 146); fill-opacity: 1;"/><path class="point" transform="translate(687.79,201.64)" d="M3,0A3,3 0 1,1 0,-3A3,3 0 0,1 3,0Z" style="opacity: 1; stroke-width: 0px; fill: rgb(255, 102, 146); fill-opacity: 1;"/></g></g></g></g></g><path class="xlines-above crisp" d="M0,0" style="fill: none;"/><path class="ylines-above crisp" d="M0,0" style="fill: none;"/><g class="overlines-above"/><g class="xaxislayer-above"><g class="xtick"><text text-anchor="middle" x="0" y="433" transform="translate(139.29,0)" style="font-family: 'Open Sans', verdana, arial, sans-serif; font-size: 12px; fill: rgb(42, 63, 95); fill-opacity: 1; white-space: pre; opacity: 1;">Accuracy</text></g><g class="xtick"><text text-anchor="middle" x="0" y="433" transform="translate(251.86,0)" style="font-family: 'Open Sans', verdana, arial, sans-serif; font-size: 12px; fill: rgb(42, 63, 95); fill-opacity: 1; white-space: pre; opacity: 1;">Recall</text></g><g class="xtick"><text text-anchor="middle" x="0" y="433" transform="translate(364.43,0)" style="font-family: 'Open Sans', verdana, arial, sans-serif; font-size: 12px; fill: rgb(42, 63, 95); fill-opacity: 1; white-space: pre; opacity: 1;">Precision</text></g><g class="xtick"><text text-anchor="middle" x="0" y="433" transform="translate(477,0)" style="font-family: 'Open Sans', verdana, arial, sans-serif; font-size: 12px; fill: rgb(42, 63, 95); fill-opacity: 1; white-space: pre; opacity: 1;">IoU</text></g><g class="xtick"><text text-anchor="middle" x="0" y="433" transform="translate(589.5699999999999,0)" style="font-family: 'Open Sans', verdana, arial, sans-serif; font-size: 12px; fill: rgb(42, 63, 95); fill-opacity: 1; white-space: pre; opacity: 1;">Dice</text></g><g class="xtick"><text text-anchor="middle" x="0" y="433" transform="translate(702.14,0)" style="font-family: 'Open Sans', verdana, arial, sans-serif; font-size: 12px; fill: rgb(42, 63, 95); fill-opacity: 1; white-space: pre; opacity: 1;">F1-score</text></g><g class="xtick"><text text-anchor="middle" x="0" y="433" transform="translate(814.71,0)" style="font-family: 'Open Sans', verdana, arial, sans-serif; font-size: 12px; fill: rgb(42, 63, 95); fill-opacity: 1; white-space: pre; opacity: 1;">Loss</text></g></g><g class="yaxislayer-above"><g class="ytick"><text text-anchor="end" x="79" y="4.199999999999999" transform="translate(0,405.16)" style="font-family: 'Open Sans', verdana, arial, sans-serif; font-size: 12px; fill: rgb(42, 63, 95); fill-opacity: 1; white-space: pre; opacity: 1;">0.2</text></g><g class="ytick"><text text-anchor="end" x="79" y="4.199999999999999" style="font-family: 'Open Sans', verdana, arial, sans-serif; font-size: 12px; fill: rgb(42, 63, 95); fill-opacity: 1; white-space: pre; opacity: 1;" transform="translate(0,368.35)">0.3</text></g><g class="ytick"><text text-anchor="end" x="79" y="4.199999999999999" style="font-family: 'Open Sans', verdana, arial, sans-serif; font-size: 12px; fill: rgb(42, 63, 95); fill-opacity: 1; white-space: pre; opacity: 1;" transform="translate(0,331.53999999999996)">0.4</text></g><g class="ytick"><text text-anchor="end" x="79" y="4.199999999999999" style="font-family: 'Open Sans', verdana, arial, sans-serif; font-size: 12px; fill: rgb(42, 63, 95); fill-opacity: 1; white-space: pre; opacity: 1;" transform="translate(0,294.73)">0.5</text></g><g class="ytick"><text text-anchor="end" x="79" y="4.199999999999999" style="font-family: 'Open Sans', verdana, arial, sans-serif; font-size: 12px; fill: rgb(42, 63, 95); fill-opacity: 1; white-space: pre; opacity: 1;" transform="translate(0,257.91999999999996)">0.6</text></g><g class="ytick"><text text-anchor="end" x="79" y="4.199999999999999" style="font-family: 'Open Sans', verdana, arial, sans-serif; font-size: 12px; fill: rgb(42, 63, 95); fill-opacity: 1; white-space: pre; opacity: 1;" transform="translate(0,221.11)">0.7</text></g><g class="ytick"><text text-anchor="end" x="79" y="4.199999999999999" style="font-family: 'Open Sans', verdana, arial, sans-serif; font-size: 12px; fill: rgb(42, 63, 95); fill-opacity: 1; white-space: pre; opacity: 1;" transform="translate(0,184.3)">0.8</text></g><g class="ytick"><text text-anchor="end" x="79" y="4.199999999999999" style="font-family: 'Open Sans', verdana, arial, sans-serif; font-size: 12px; fill: rgb(42, 63, 95); fill-opacity: 1; white-space: pre; opacity: 1;" transform="translate(0,147.49)">0.9</text></g><g class="ytick"><text text-anchor="end" x="79" y="4.199999999999999" style="font-family: 'Open Sans', verdana, arial, sans-serif; font-size: 12px; fill: rgb(42, 63, 95); fill-opacity: 1; white-space: pre; opacity: 1;" transform="translate(0,110.68)">1</text></g></g><g class="overaxes-above"/></g></g><g class="polarlayer"/><g class="smithlayer"/><g class="ternarylayer"/><g class="geolayer"/><g class="funnelarealayer"/><g class="pielayer"/><g class="iciclelayer"/><g class="treemaplayer"/><g class="sunburstlayer"/><g class="glimages"/><defs id="topdefs-d54952"><g class="clips"/><clipPath id="legendd54952"><rect width="101" height="162" x="0" y="0"/></clipPath></defs><g class="layer-above"><g class="imagelayer"/><g class="shapelayer"/></g><g class="infolayer"><g class="legend" pointer-events="all" transform="translate(886.82,100)"><rect class="bg" shape-rendering="crispEdges" width="101" height="162" x="0" y="0" style="stroke: rgb(68, 68, 68); stroke-opacity: 1; fill: rgb(255, 255, 255); fill-opacity: 1; stroke-width: 0px;"/><g class="scrollbox" transform="" clip-path="url(#legendd54952)"><text class="legendtitletext" text-anchor="start" x="2" y="18.2" style="font-family: 'Open Sans', verdana, arial, sans-serif; font-size: 14px; fill: rgb(42, 63, 95); fill-opacity: 1; white-space: pre;">Metric Name</text><g class="groups" transform=""><g class="traces" transform="translate(0,32.7)" style="opacity: 1;"><text class="legendtext" text-anchor="start" x="40" y="4.680000000000001" style="font-family: 'Open Sans', verdana, arial, sans-serif; font-size: 12px; fill: rgb(42, 63, 95); fill-opacity: 1; white-space: pre;">Accuracy</text><g class="layers" style="opacity: 1;"><g class="legendfill"/><g class="legendlines"/><g class="legendsymbols"><g class="legendpoints"><path class="legendbox" d="M6,6H-6V-6H6Z" transform="translate(20,0)" style="stroke-width: 2px; fill: rgb(99, 110, 250); fill-opacity: 0.5; stroke: rgb(99, 110, 250); stroke-opacity: 1;"/></g></g></g><rect class="legendtoggle" x="0" y="-9.5" width="95.671875" height="19" style="fill: rgb(0, 0, 0); fill-opacity: 0;"/></g></g><g class="groups" transform=""><g class="traces" transform="translate(0,51.7)" style="opacity: 1;"><text class="legendtext" text-anchor="start" x="40" y="4.680000000000001" style="font-family: 'Open Sans', verdana, arial, sans-serif; font-size: 12px; fill: rgb(42, 63, 95); fill-opacity: 1; white-space: pre;">Recall</text><g class="layers" style="opacity: 1;"><g class="legendfill"/><g class="legendlines"/><g class="legendsymbols"><g class="legendpoints"><path class="legendbox" d="M6,6H-6V-6H6Z" transform="translate(20,0)" style="stroke-width: 2px; fill: rgb(239, 85, 59); fill-opacity: 0.5; stroke: rgb(239, 85, 59); stroke-opacity: 1;"/></g></g></g><rect class="legendtoggle" x="0" y="-9.5" width="95.671875" height="19" style="fill: rgb(0, 0, 0); fill-opacity: 0;"/></g></g><g class="groups" transform=""><g class="traces" transform="translate(0,70.7)" style="opacity: 1;"><text class="legendtext" text-anchor="start" x="40" y="4.680000000000001" style="font-family: 'Open Sans', verdana, arial, sans-serif; font-size: 12px; fill: rgb(42, 63, 95); fill-opacity: 1; white-space: pre;">Precision</text><g class="layers" style="opacity: 1;"><g class="legendfill"/><g class="legendlines"/><g class="legendsymbols"><g class="legendpoints"><path class="legendbox" d="M6,6H-6V-6H6Z" transform="translate(20,0)" style="stroke-width: 2px; fill: rgb(0, 204, 150); fill-opacity: 0.5; stroke: rgb(0, 204, 150); stroke-opacity: 1;"/></g></g></g><rect class="legendtoggle" x="0" y="-9.5" width="95.671875" height="19" style="fill: rgb(0, 0, 0); fill-opacity: 0;"/></g></g><g class="groups" transform=""><g class="traces" transform="translate(0,89.7)" style="opacity: 1;"><text class="legendtext" text-anchor="start" x="40" y="4.680000000000001" style="font-family: 'Open Sans', verdana, arial, sans-serif; font-size: 12px; fill: rgb(42, 63, 95); fill-opacity: 1; white-space: pre;">IoU</text><g class="layers" style="opacity: 1;"><g class="legendfill"/><g class="legendlines"/><g class="legendsymbols"><g class="legendpoints"><path class="legendbox" d="M6,6H-6V-6H6Z" transform="translate(20,0)" style="stroke-width: 2px; fill: rgb(171, 99, 250); fill-opacity: 0.5; stroke: rgb(171, 99, 250); stroke-opacity: 1;"/></g></g></g><rect class="legendtoggle" x="0" y="-9.5" width="95.671875" height="19" style="fill: rgb(0, 0, 0); fill-opacity: 0;"/></g></g><g class="groups" transform=""><g class="traces" transform="translate(0,108.7)" style="opacity: 1;"><text class="legendtext" text-anchor="start" x="40" y="4.680000000000001" style="font-family: 'Open Sans', verdana, arial, sans-serif; font-size: 12px; fill: rgb(42, 63, 95); fill-opacity: 1; white-space: pre;">Dice</text><g class="layers" style="opacity: 1;"><g class="legendfill"/><g class="legendlines"/><g class="legendsymbols"><g class="legendpoints"><path class="legendbox" d="M6,6H-6V-6H6Z" transform="translate(20,0)" style="stroke-width: 2px; fill: rgb(255, 161, 90); fill-opacity: 0.5; stroke: rgb(255, 161, 90); stroke-opacity: 1;"/></g></g></g><rect class="legendtoggle" x="0" y="-9.5" width="95.671875" height="19" style="fill: rgb(0, 0, 0); fill-opacity: 0;"/></g></g><g class="groups" transform=""><g class="traces" transform="translate(0,127.7)" style="opacity: 1;"><text class="legendtext" text-anchor="start" x="40" y="4.680000000000001" style="font-family: 'Open Sans', verdana, arial, sans-serif; font-size: 12px; fill: rgb(42, 63, 95); fill-opacity: 1; white-space: pre;">F1-score</text><g class="layers" style="opacity: 1;"><g class="legendfill"/><g class="legendlines"/><g class="legendsymbols"><g class="legendpoints"><path class="legendbox" d="M6,6H-6V-6H6Z" transform="translate(20,0)" style="stroke-width: 2px; fill: rgb(25, 211, 243); fill-opacity: 0.5; stroke: rgb(25, 211, 243); stroke-opacity: 1;"/></g></g></g><rect class="legendtoggle" x="0" y="-9.5" width="95.671875" height="19" style="fill: rgb(0, 0, 0); fill-opacity: 0;"/></g></g><g class="groups" transform=""><g class="traces" transform="translate(0,146.7)" style="opacity: 1;"><text class="legendtext" text-anchor="start" x="40" y="4.680000000000001" style="font-family: 'Open Sans', verdana, arial, sans-serif; font-size: 12px; fill: rgb(42, 63, 95); fill-opacity: 1; white-space: pre;">Loss</text><g class="layers" style="opacity: 1;"><g class="legendfill"/><g class="legendlines"/><g class="legendsymbols"><g class="legendpoints"><path class="legendbox" d="M6,6H-6V-6H6Z" transform="translate(20,0)" style="stroke-width: 2px; fill: rgb(255, 102, 146); fill-opacity: 0.5; stroke: rgb(255, 102, 146); stroke-opacity: 1;"/></g></g></g><rect class="legendtoggle" x="0" y="-9.5" width="95.671875" height="19" style="fill: rgb(0, 0, 0); fill-opacity: 0;"/></g></g></g><rect class="scrollbar" rx="20" ry="3" width="0" height="0" x="0" y="0" style="fill: rgb(128, 139, 164); fill-opacity: 1;"/></g><g class="g-gtitle"><text class="gtitle" x="50" y="50" text-anchor="start" dy="0em" style="opacity: 1; font-family: 'Open Sans', verdana, arial, sans-serif; font-size: 17px; fill: rgb(42, 63, 95); fill-opacity: 1; white-space: pre;">Resultados Effisegnet K-fold k=10</text></g><g class="g-xtitle"><text class="xtitle" x="475.5" y="460.3" text-anchor="middle" style="opacity: 1; font-family: 'Open Sans', verdana, arial, sans-serif; font-size: 14px; fill: rgb(42, 63, 95); fill-opacity: 1; white-space: pre;">Metric Name</text></g><g class="g-ytitle"><text class="ytitle" transform="rotate(-90,39.975,260)" x="39.975" y="260" text-anchor="middle" style="opacity: 1; font-family: 'Open Sans', verdana, arial, sans-serif; font-size: 14px; fill: rgb(42, 63, 95); fill-opacity: 1; white-space: pre;">Metric Value</text></g></g></svg>