<svg class="main-svg" xmlns="http://www.w3.org/2000/svg" xmlns:xlink="http://www.w3.org/1999/xlink" width="1000" height="500" style="" viewBox="0 0 1000 500"><rect x="0" y="0" width="1000" height="500" style="fill: rgb(255, 255, 255); fill-opacity: 1;"/><defs id="defs-26f8d8"><g class="clips"><clipPath id="clip26f8d8xyplot" class="plotclip"><rect width="840" height="320"/></clipPath><clipPath class="axesclip" id="clip26f8d8x"><rect x="80" y="0" width="840" height="500"/></clipPath><clipPath class="axesclip" id="clip26f8d8y"><rect x="0" y="100" width="1000" height="320"/></clipPath><clipPath class="axesclip" id="clip26f8d8xy"><rect x="80" y="100" width="840" height="320"/></clipPath></g><g class="gradients"/><g class="patterns"/></defs><g class="bglayer"><rect class="bg" x="80" y="100" width="840" height="320" style="fill: rgb(229, 236, 246); fill-opacity: 1; stroke-width: 0;"/></g><g class="layer-below"><g class="imagelayer"/><g class="shapelayer"/></g><g class="cartesianlayer"><g class="subplot xy"><g class="layer-subplot"><g class="shapelayer"/><g class="imagelayer"/></g><g class="minor-gridlayer"><g class="x"/><g class="y"/></g><g class="gridlayer"><g class="x"/><g class="y"><path class="ygrid crisp" transform="translate(0,378.84)" d="M80,0h840" style="stroke: rgb(255, 255, 255); stroke-opacity: 1; stroke-width: 1px;"/><path class="ygrid crisp" transform="translate(0,332.81)" d="M80,0h840" style="stroke: rgb(255, 255, 255); stroke-opacity: 1; stroke-width: 1px;"/><path class="ygrid crisp" transform="translate(0,286.78999999999996)" d="M80,0h840" style="stroke: rgb(255, 255, 255); stroke-opacity: 1; stroke-width: 1px;"/><path class="ygrid crisp" transform="translate(0,240.77)" d="M80,0h840" style="stroke: rgb(255, 255, 255); stroke-opacity: 1; stroke-width: 1px;"/><path class="ygrid crisp" transform="translate(0,194.74)" d="M80,0h840" style="stroke: rgb(255, 255, 255); stroke-opacity: 1; stroke-width: 1px;"/><path class="ygrid crisp" transform="translate(0,148.72)" d="M80,0h840" style="stroke: rgb(255, 255, 255); stroke-opacity: 1; stroke-width: 1px;"/><path class="ygrid crisp" transform="translate(0,102.7)" d="M80,0h840" style="stroke: rgb(255, 255, 255); stroke-opacity: 1; stroke-width: 1px;"/></g></g><g class="zerolinelayer"/><g class="layer-between"><g class="shapelayer"/><g class="imagelayer"/></g><path class="xlines-below"/><path class="ylines-below"/><g class="overlines-below"/><g class="xaxislayer-below"/><g class="yaxislayer-below"/><g class="overaxes-below"/><g class="overplot"><g class="xy" transform="translate(80,100)" clip-path="url(#clip26f8d8xyplot)"><g class="violinlayer mlayer"><g class="trace violins" style="opacity: 1;"><path class="violin" d="M88.2,52.93Q89.08,52.27 89.63,51.98C90.29,51.63 91.07,51.32 91.91,51.03C92.9,50.68 94.04,50.38 95.22,50.08C96.56,49.74 98.03,49.44 99.54,49.14C101.18,48.81 102.93,48.5 104.68,48.19C106.5,47.87 108.41,47.56 110.26,47.24C112.1,46.93 113.99,46.62 115.77,46.3C117.46,45.99 119.16,45.69 120.7,45.35C122.07,45.05 123.43,44.76 124.55,44.4C125.46,44.11 126.41,43.85 126.95,43.45C127.32,43.18 127.71,42.82 127.71,42.51C127.71,42.19 127.28,41.84 126.92,41.56C126.44,41.18 125.66,40.91 124.95,40.61C124.15,40.27 123.23,39.98 122.35,39.67C121.45,39.35 120.52,39.04 119.63,38.72C118.77,38.41 117.92,38.09 117.1,37.77C116.3,37.46 115.55,37.13 114.76,36.82C113.96,36.5 113.19,36.19 112.35,35.88C111.46,35.55 110.53,35.23 109.55,34.93C108.48,34.6 107.34,34.29 106.17,33.98C104.93,33.65 103.62,33.35 102.33,33.04C101.02,32.72 99.65,32.41 98.36,32.09C97.12,31.78 95.87,31.47 94.72,31.14C93.67,30.84 92.64,30.53 91.74,30.19C90.96,29.89 90.21,29.6 89.59,29.25Q89.06,28.96 88.2,28.3L85.2,28.3Q84.34,28.96 83.81,29.25C83.19,29.6 82.44,29.89 81.66,30.19C80.76,30.53 79.73,30.84 78.68,31.14C77.53,31.47 76.28,31.78 75.04,32.09C73.75,32.41 72.38,32.72 71.07,33.04C69.78,33.35 68.47,33.65 67.23,33.98C66.06,34.29 64.92,34.6 63.85,34.93C62.87,35.23 61.94,35.55 61.05,35.88C60.21,36.19 59.44,36.5 58.64,36.82C57.85,37.13 57.1,37.46 56.3,37.77C55.48,38.09 54.63,38.41 53.77,38.72C52.88,39.04 51.95,39.35 51.05,39.67C50.17,39.98 49.25,40.27 48.45,40.61C47.74,40.91 46.96,41.18 46.48,41.56C46.12,41.84 45.69,42.19 45.69,42.51C45.69,42.82 46.08,43.18 46.45,43.45C46.99,43.85 47.94,44.11 48.85,44.4C49.97,44.76 51.33,45.05 52.7,45.35C54.24,45.69 55.94,45.99 57.63,46.3C59.41,46.62 61.3,46.93 63.14,47.24C64.99,47.56 66.9,47.87 68.72,48.19C70.47,48.5 72.22,48.81 73.86,49.14C75.37,49.44 76.84,49.74 78.18,50.08C79.36,50.38 80.5,50.68 81.49,51.03C82.33,51.32 83.11,51.63 83.77,51.98Q84.32,52.27 85.2,52.93Z" style="vector-effect: none; stroke-width: 2px; stroke: rgb(99, 110, 250); stroke-opacity: 1; fill: rgb(99, 110, 250); fill-opacity: 0.5;"/><path class="box" d="M76.45,41.86H96.95M76.45,43.9H96.95V37.59H76.45ZM86.7,43.9V47.12M86.7,37.59V34.11" style="vector-effect: non-scaling-stroke; stroke-width: 2px; stroke: rgb(99, 110, 250); stroke-opacity: 1; fill: rgb(99, 110, 250); fill-opacity: 0.5;"/><g class="points"><path class="point" transform="translate(31.57,47.12)" d="M3,0A3,3 0 1,1 0,-3A3,3 0 0,1 3,0Z" style="opacity: 1; stroke-width: 0px; fill: rgb(99, 110, 250); fill-opacity: 1;"/><path class="point" transform="translate(17.51,45.88)" d="M3,0A3,3 0 1,1 0,-3A3,3 0 0,1 3,0Z" style="opacity: 1; stroke-width: 0px; fill: rgb(99, 110, 250); fill-opacity: 1;"/><path class="point" transform="translate(34.12,43.9)" d="M3,0A3,3 0 1,1 0,-3A3,3 0 0,1 3,0Z" style="opacity: 1; stroke-width: 0px; fill: rgb(99, 110, 250); fill-opacity: 1;"/><path class="point" transform="translate(15.85,42.83)" d="M3,0A3,3 0 1,1 0,-3A3,3 0 0,1 3,0Z" style="opacity: 1; stroke-width: 0px; fill: rgb(99, 110, 250); fill-opacity: 1;"/><path class="point" transform="translate(22.42,42.58)" d="M3,0A3,3 0 1,1 0,-3A3,3 0 0,1 3,0Z" style="opacity: 1; stroke-width: 0px; fill: rgb(99, 110, 250); fill-opacity: 1;"/><path class="point" transform="translate(31.06,41.14)" d="M3,0A3,3 0 1,1 0,-3A3,3 0 0,1 3,0Z" style="opacity: 1; stroke-width: 0px; fill: rgb(99, 110, 250); fill-opacity: 1;"/><path class="point" transform="translate(24.77,39.62)" d="M3,0A3,3 0 1,1 0,-3A3,3 0 0,1 3,0Z" style="opacity: 1; stroke-width: 0px; fill: rgb(99, 110, 250); fill-opacity: 1;"/><path class="point" transform="translate(28.48,37.59)" d="M3,0A3,3 0 1,1 0,-3A3,3 0 0,1 3,0Z" style="opacity: 1; stroke-width: 0px; fill: rgb(99, 110, 250); fill-opacity: 1;"/><path class="point" transform="translate(21.62,35.21)" d="M3,0A3,3 0 1,1 0,-3A3,3 0 0,1 3,0Z" style="opacity: 1; stroke-width: 0px; fill: rgb(99, 110, 250); fill-opacity: 1;"/><path class="point" transform="translate(17.6,34.11)" d="M3,0A3,3 0 1,1 0,-3A3,3 0 0,1 3,0Z" style="opacity: 1; stroke-width: 0px; fill: rgb(99, 110, 250); fill-opacity: 1;"/></g></g><g class="trace violins" style="opacity: 1;"><path class="violin" d="M254.4,159.17Q254.55,156.84 254.67,155.68C254.79,154.51 254.92,153.34 255.1,152.18C255.28,151.01 255.48,149.85 255.73,148.69C255.98,147.52 256.26,146.35 256.59,145.19C256.92,144.02 257.3,142.86 257.73,141.7C258.16,140.53 258.65,139.36 259.18,138.2C259.72,137.03 260.32,135.87 260.93,134.71C261.55,133.54 262.25,132.38 262.89,131.21C263.53,130.05 264.22,128.9 264.79,127.72C265.34,126.57 265.9,125.4 266.26,124.22C266.61,123.07 266.86,121.9 266.93,120.73C267,119.57 266.88,118.38 266.66,117.23C266.44,116.05 266,114.89 265.58,113.74C265.15,112.56 264.59,111.41 264.1,110.24C263.62,109.08 263.09,107.92 262.67,106.75C262.25,105.59 261.88,104.42 261.58,103.25C261.29,102.09 261.09,100.93 260.9,99.76C260.71,98.6 260.59,97.43 260.45,96.27C260.3,95.1 260.19,93.93 260.03,92.77C259.86,91.6 259.68,90.44 259.46,89.28C259.23,88.11 258.96,86.94 258.68,85.78C258.39,84.61 258.06,83.45 257.75,82.29C257.43,81.12 257.09,79.96 256.79,78.79C256.49,77.63 256.19,76.47 255.93,75.3C255.67,74.14 255.44,72.97 255.24,71.8C255.04,70.64 254.89,69.48 254.75,68.31Q254.62,67.15 254.43,64.81L253.77,64.81Q253.58,67.15 253.45,68.31C253.31,69.48 253.16,70.64 252.96,71.8C252.76,72.97 252.53,74.14 252.27,75.3C252.01,76.47 251.71,77.63 251.41,78.79C251.11,79.96 250.77,81.12 250.45,82.29C250.14,83.45 249.81,84.61 249.52,85.78C249.24,86.94 248.97,88.11 248.74,89.28C248.52,90.44 248.34,91.6 248.17,92.77C248.01,93.93 247.9,95.1 247.75,96.27C247.61,97.43 247.49,98.6 247.3,99.76C247.11,100.93 246.91,102.09 246.62,103.25C246.32,104.42 245.95,105.59 245.53,106.75C245.11,107.92 244.58,109.08 244.1,110.24C243.61,111.41 243.05,112.56 242.62,113.74C242.2,114.89 241.76,116.05 241.54,117.23C241.32,118.38 241.2,119.57 241.27,120.73C241.34,121.9 241.59,123.07 241.94,124.22C242.3,125.4 242.86,126.57 243.41,127.72C243.98,128.9 244.67,130.05 245.31,131.21C245.95,132.38 246.65,133.54 247.27,134.71C247.88,135.87 248.48,137.03 249.02,138.2C249.55,139.36 250.04,140.53 250.47,141.7C250.9,142.86 251.28,144.02 251.61,145.19C251.94,146.35 252.22,147.52 252.47,148.69C252.72,149.85 252.92,151.01 253.1,152.18C253.28,153.34 253.41,154.51 253.53,155.68Q253.65,156.84 253.8,159.17Z" style="vector-effect: none; stroke-width: 2px; stroke: rgb(239, 85, 59); stroke-opacity: 1; fill: rgb(239, 85, 59); fill-opacity: 0.5;"/><path class="box" d="M243.85,118.53H264.35M243.85,121.02H264.35V99.14H243.85ZM254.1,121.02V138.04M254.1,99.14V85.94" style="vector-effect: non-scaling-stroke; stroke-width: 2px; stroke: rgb(239, 85, 59); stroke-opacity: 1; fill: rgb(239, 85, 59); fill-opacity: 0.5;"/><g class="points"><path class="point" transform="translate(198.47,138.04)" d="M3,0A3,3 0 1,1 0,-3A3,3 0 0,1 3,0Z" style="opacity: 1; stroke-width: 0px; fill: rgb(239, 85, 59); fill-opacity: 1;"/><path class="point" transform="translate(184.74,125.22)" d="M3,0A3,3 0 1,1 0,-3A3,3 0 0,1 3,0Z" style="opacity: 1; stroke-width: 0px; fill: rgb(239, 85, 59); fill-opacity: 1;"/><path class="point" transform="translate(200.13,121.02)" d="M3,0A3,3 0 1,1 0,-3A3,3 0 0,1 3,0Z" style="opacity: 1; stroke-width: 0px; fill: rgb(239, 85, 59); fill-opacity: 1;"/><path class="point" transform="translate(184.3,120.23)" d="M3,0A3,3 0 1,1 0,-3A3,3 0 0,1 3,0Z" style="opacity: 1; stroke-width: 0px; fill: rgb(239, 85, 59); fill-opacity: 1;"/><path class="point" transform="translate(190.23,119.47)" d="M3,0A3,3 0 1,1 0,-3A3,3 0 0,1 3,0Z" style="opacity: 1; stroke-width: 0px; fill: rgb(239, 85, 59); fill-opacity: 1;"/><path class="point" transform="translate(197.59,117.59)" d="M3,0A3,3 0 1,1 0,-3A3,3 0 0,1 3,0Z" style="opacity: 1; stroke-width: 0px; fill: rgb(239, 85, 59); fill-opacity: 1;"/><path class="point" transform="translate(192.19,117.16)" d="M3,0A3,3 0 1,1 0,-3A3,3 0 0,1 3,0Z" style="opacity: 1; stroke-width: 0px; fill: rgb(239, 85, 59); fill-opacity: 1;"/><path class="point" transform="translate(195.55,99.14)" d="M3,0A3,3 0 1,1 0,-3A3,3 0 0,1 3,0Z" style="opacity: 1; stroke-width: 0px; fill: rgb(239, 85, 59); fill-opacity: 1;"/><path class="point" transform="translate(189.52,94.04)" d="M3,0A3,3 0 1,1 0,-3A3,3 0 0,1 3,0Z" style="opacity: 1; stroke-width: 0px; fill: rgb(239, 85, 59); fill-opacity: 1;"/><path class="point" transform="translate(186.08,85.94)" d="M3,0A3,3 0 1,1 0,-3A3,3 0 0,1 3,0Z" style="opacity: 1; stroke-width: 0px; fill: rgb(239, 85, 59); fill-opacity: 1;"/></g></g><g class="trace violins" style="opacity: 1;"><path class="violin" d="M421.84,166.11Q422.03,161.94 422.16,159.86C422.29,157.77 422.46,155.68 422.64,153.6C422.83,151.51 423.05,149.43 423.27,147.35C423.49,145.26 423.74,143.18 423.96,141.09C424.18,139.01 424.41,136.93 424.58,134.84C424.75,132.76 424.91,130.67 425,128.58C425.09,126.5 425.13,124.41 425.14,122.33C425.15,120.24 425.1,118.16 425.07,116.07C425.04,113.99 424.98,111.9 424.98,109.82C424.98,107.73 425,105.64 425.1,103.56C425.2,101.47 425.36,99.39 425.58,97.31C425.8,95.22 426.12,93.14 426.44,91.06C426.76,88.97 427.16,86.89 427.49,84.8C427.82,82.72 428.18,80.64 428.42,78.55C428.66,76.47 428.86,74.38 428.93,72.29C429,70.21 428.96,68.12 428.83,66.04C428.7,63.95 428.43,61.86 428.12,59.78C427.81,57.69 427.38,55.61 426.97,53.53C426.55,51.44 426.07,49.36 425.63,47.27C425.2,45.19 424.75,43.11 424.36,41.02C423.97,38.94 423.61,36.85 423.31,34.76C423.01,32.68 422.76,30.6 422.55,28.51C422.34,26.43 422.18,24.34 422.05,22.25Q421.92,20.17 421.77,16L421.23,16Q421.08,20.17 420.95,22.25C420.82,24.34 420.66,26.43 420.45,28.51C420.24,30.6 419.99,32.68 419.69,34.76C419.39,36.85 419.03,38.94 418.64,41.02C418.25,43.11 417.8,45.19 417.37,47.27C416.93,49.36 416.45,51.44 416.03,53.53C415.62,55.61 415.19,57.69 414.88,59.78C414.57,61.86 414.3,63.95 414.17,66.04C414.04,68.12 414,70.21 414.07,72.29C414.14,74.38 414.34,76.47 414.58,78.55C414.82,80.64 415.18,82.72 415.51,84.8C415.84,86.89 416.24,88.97 416.56,91.06C416.88,93.14 417.2,95.22 417.42,97.31C417.64,99.39 417.8,101.47 417.9,103.56C418,105.64 418.02,107.73 418.02,109.82C418.02,111.9 417.96,113.99 417.93,116.07C417.9,118.16 417.85,120.24 417.86,122.33C417.87,124.41 417.91,126.5 418,128.58C418.09,130.67 418.25,132.76 418.42,134.84C418.59,136.93 418.82,139.01 419.04,141.09C419.26,143.18 419.51,145.26 419.73,147.35C419.95,149.43 420.17,151.51 420.36,153.6C420.54,155.68 420.71,157.77 420.84,159.86Q420.97,161.94 421.16,166.11Z" style="vector-effect: none; stroke-width: 2px; stroke: rgb(0, 204, 150); stroke-opacity: 1; fill: rgb(0, 204, 150); fill-opacity: 0.5;"/><path class="box" d="M411.25,76.12H431.75M411.25,123.57H431.75V67.17H411.25ZM421.5,123.57V128.55M421.5,67.17V53.57" style="vector-effect: non-scaling-stroke; stroke-width: 2px; stroke: rgb(0, 204, 150); stroke-opacity: 1; fill: rgb(0, 204, 150); fill-opacity: 0.5;"/><g class="points"><path class="point" transform="translate(363.94,128.55)" d="M3,0A3,3 0 1,1 0,-3A3,3 0 0,1 3,0Z" style="opacity: 1; stroke-width: 0px; fill: rgb(0, 204, 150); fill-opacity: 1;"/><path class="point" transform="translate(354.91,124.18)" d="M3,0A3,3 0 1,1 0,-3A3,3 0 0,1 3,0Z" style="opacity: 1; stroke-width: 0px; fill: rgb(0, 204, 150); fill-opacity: 1;"/><path class="point" transform="translate(366.57,123.57)" d="M3,0A3,3 0 1,1 0,-3A3,3 0 0,1 3,0Z" style="opacity: 1; stroke-width: 0px; fill: rgb(0, 204, 150); fill-opacity: 1;"/><path class="point" transform="translate(352.45,78.67)" d="M3,0A3,3 0 1,1 0,-3A3,3 0 0,1 3,0Z" style="opacity: 1; stroke-width: 0px; fill: rgb(0, 204, 150); fill-opacity: 1;"/><path class="point" transform="translate(357.83,78.21)" d="M3,0A3,3 0 1,1 0,-3A3,3 0 0,1 3,0Z" style="opacity: 1; stroke-width: 0px; fill: rgb(0, 204, 150); fill-opacity: 1;"/><path class="point" transform="translate(364.56,74.02)" d="M3,0A3,3 0 1,1 0,-3A3,3 0 0,1 3,0Z" style="opacity: 1; stroke-width: 0px; fill: rgb(0, 204, 150); fill-opacity: 1;"/><path class="point" transform="translate(359.67,68.39)" d="M3,0A3,3 0 1,1 0,-3A3,3 0 0,1 3,0Z" style="opacity: 1; stroke-width: 0px; fill: rgb(0, 204, 150); fill-opacity: 1;"/><path class="point" transform="translate(362.29,67.17)" d="M3,0A3,3 0 1,1 0,-3A3,3 0 0,1 3,0Z" style="opacity: 1; stroke-width: 0px; fill: rgb(0, 204, 150); fill-opacity: 1;"/><path class="point" transform="translate(356.05,64.61)" d="M3,0A3,3 0 1,1 0,-3A3,3 0 0,1 3,0Z" style="opacity: 1; stroke-width: 0px; fill: rgb(0, 204, 150); fill-opacity: 1;"/><path class="point" transform="translate(351.67,53.57)" d="M3,0A3,3 0 1,1 0,-3A3,3 0 0,1 3,0Z" style="opacity: 1; stroke-width: 0px; fill: rgb(0, 204, 150); fill-opacity: 1;"/></g></g><g class="trace violins" style="opacity: 1;"><path class="violin" d="M589.06,304Q589.15,298.34 589.22,295.51C589.29,292.68 589.36,289.84 589.46,287.01C589.56,284.18 589.67,281.35 589.8,278.52C589.93,275.69 590.07,272.86 590.22,270.03C590.37,267.2 590.54,264.37 590.7,261.54C590.86,258.71 591.03,255.87 591.18,253.04C591.33,250.21 591.48,247.38 591.61,244.55C591.74,241.72 591.85,238.89 591.95,236.06C592.05,233.23 592.13,230.39 592.2,227.56C592.27,224.73 592.32,221.9 592.38,219.07C592.43,216.24 592.48,213.41 592.53,210.58C592.58,207.75 592.63,204.91 592.69,202.08C592.75,199.25 592.81,196.42 592.87,193.59C592.93,190.76 593,187.93 593.05,185.1C593.1,182.27 593.16,179.44 593.19,176.61C593.22,173.78 593.24,170.94 593.23,168.11C593.22,165.28 593.18,162.45 593.11,159.62C593.04,156.79 592.93,153.96 592.8,151.13C592.67,148.3 592.5,145.46 592.32,142.63C592.14,139.8 591.91,136.97 591.7,134.14C591.48,131.31 591.25,128.48 591.03,125.65C590.81,122.82 590.59,119.98 590.39,117.15C590.19,114.32 590.01,111.49 589.85,108.66C589.7,105.83 589.57,103 589.46,100.17Q589.35,97.34 589.19,91.68L588.61,91.68Q588.45,97.34 588.34,100.17C588.23,103 588.1,105.83 587.95,108.66C587.79,111.49 587.61,114.32 587.41,117.15C587.21,119.98 586.99,122.82 586.77,125.65C586.55,128.48 586.32,131.31 586.1,134.14C585.89,136.97 585.66,139.8 585.48,142.63C585.3,145.46 585.13,148.3 585,151.13C584.87,153.96 584.76,156.79 584.69,159.62C584.62,162.45 584.58,165.28 584.57,168.11C584.56,170.94 584.58,173.78 584.61,176.61C584.64,179.44 584.7,182.27 584.75,185.1C584.8,187.93 584.87,190.76 584.93,193.59C584.99,196.42 585.05,199.25 585.11,202.08C585.17,204.91 585.22,207.75 585.27,210.58C585.32,213.41 585.37,216.24 585.42,219.07C585.48,221.9 585.53,224.73 585.6,227.56C585.67,230.39 585.75,233.23 585.85,236.06C585.95,238.89 586.06,241.72 586.19,244.55C586.32,247.38 586.47,250.21 586.62,253.04C586.77,255.87 586.94,258.71 587.1,261.54C587.26,264.37 587.43,267.2 587.58,270.03C587.73,272.86 587.87,275.69 588,278.52C588.13,281.35 588.24,284.18 588.34,287.01C588.44,289.84 588.51,292.68 588.58,295.51Q588.65,298.34 588.74,304Z" style="vector-effect: none; stroke-width: 2px; stroke: rgb(171, 99, 250); stroke-opacity: 1; fill: rgb(171, 99, 250); fill-opacity: 0.5;"/><path class="box" d="M578.65,181.16H599.15M578.65,221.23H599.15V149.63H578.65ZM588.9,221.23V251.45M588.9,149.63V144.23" style="vector-effect: non-scaling-stroke; stroke-width: 2px; stroke: rgb(171, 99, 250); stroke-opacity: 1; fill: rgb(171, 99, 250); fill-opacity: 0.5;"/><g class="points"><path class="point" transform="translate(532.13,251.45)" d="M3,0A3,3 0 1,1 0,-3A3,3 0 0,1 3,0Z" style="opacity: 1; stroke-width: 0px; fill: rgb(171, 99, 250); fill-opacity: 1;"/><path class="point" transform="translate(521.02,240.59)" d="M3,0A3,3 0 1,1 0,-3A3,3 0 0,1 3,0Z" style="opacity: 1; stroke-width: 0px; fill: rgb(171, 99, 250); fill-opacity: 1;"/><path class="point" transform="translate(534.56,221.23)" d="M3,0A3,3 0 1,1 0,-3A3,3 0 0,1 3,0Z" style="opacity: 1; stroke-width: 0px; fill: rgb(171, 99, 250); fill-opacity: 1;"/><path class="point" transform="translate(519.16,213.39)" d="M3,0A3,3 0 1,1 0,-3A3,3 0 0,1 3,0Z" style="opacity: 1; stroke-width: 0px; fill: rgb(171, 99, 250); fill-opacity: 1;"/><path class="point" transform="translate(524.86,185.43)" d="M3,0A3,3 0 1,1 0,-3A3,3 0 0,1 3,0Z" style="opacity: 1; stroke-width: 0px; fill: rgb(171, 99, 250); fill-opacity: 1;"/><path class="point" transform="translate(532.75,176.9)" d="M3,0A3,3 0 1,1 0,-3A3,3 0 0,1 3,0Z" style="opacity: 1; stroke-width: 0px; fill: rgb(171, 99, 250); fill-opacity: 1;"/><path class="point" transform="translate(527,176.2)" d="M3,0A3,3 0 1,1 0,-3A3,3 0 0,1 3,0Z" style="opacity: 1; stroke-width: 0px; fill: rgb(171, 99, 250); fill-opacity: 1;"/><path class="point" transform="translate(530.47,149.63)" d="M3,0A3,3 0 1,1 0,-3A3,3 0 0,1 3,0Z" style="opacity: 1; stroke-width: 0px; fill: rgb(171, 99, 250); fill-opacity: 1;"/><path class="point" transform="translate(524.06,145.81)" d="M3,0A3,3 0 1,1 0,-3A3,3 0 0,1 3,0Z" style="opacity: 1; stroke-width: 0px; fill: rgb(171, 99, 250); fill-opacity: 1;"/><path class="point" transform="translate(518.36,144.23)" d="M3,0A3,3 0 1,1 0,-3A3,3 0 0,1 3,0Z" style="opacity: 1; stroke-width: 0px; fill: rgb(171, 99, 250); fill-opacity: 1;"/></g></g><g class="trace violins" style="opacity: 1;"><path class="violin" d="M756.54,199.6Q756.67,195.16 756.77,192.94C756.87,190.72 756.98,188.5 757.13,186.28C757.27,184.06 757.45,181.85 757.64,179.63C757.83,177.41 758.06,175.19 758.28,172.97C758.5,170.75 758.74,168.53 758.96,166.31C759.18,164.09 759.42,161.87 759.62,159.65C759.82,157.43 760,155.21 760.14,152.99C760.28,150.77 760.39,148.56 760.48,146.34C760.57,144.12 760.62,141.9 760.67,139.68C760.72,137.46 760.75,135.24 760.79,133.02C760.83,130.8 760.86,128.58 760.92,126.36C760.98,124.14 761.07,121.93 761.16,119.71C761.26,117.49 761.38,115.27 761.49,113.05C761.6,110.83 761.74,108.61 761.84,106.39C761.94,104.17 762.04,101.95 762.08,99.73C762.12,97.51 762.13,95.3 762.08,93.08C762.03,90.86 761.93,88.64 761.77,86.42C761.61,84.2 761.39,81.98 761.14,79.76C760.89,77.54 760.58,75.32 760.28,73.1C759.98,70.88 759.64,68.66 759.32,66.44C759.01,64.22 758.67,62.01 758.39,59.79C758.11,57.57 757.84,55.35 757.62,53.13C757.4,50.91 757.22,48.69 757.06,46.47Q756.91,44.25 756.69,39.81L755.91,39.81Q755.69,44.25 755.54,46.47C755.38,48.69 755.2,50.91 754.98,53.13C754.76,55.35 754.49,57.57 754.21,59.79C753.93,62.01 753.59,64.22 753.28,66.44C752.96,68.66 752.62,70.88 752.32,73.1C752.02,75.32 751.71,77.54 751.46,79.76C751.21,81.98 750.99,84.2 750.83,86.42C750.67,88.64 750.57,90.86 750.52,93.08C750.47,95.3 750.48,97.51 750.52,99.73C750.56,101.95 750.66,104.17 750.76,106.39C750.86,108.61 751,110.83 751.11,113.05C751.22,115.27 751.34,117.49 751.44,119.71C751.53,121.93 751.62,124.14 751.68,126.36C751.74,128.58 751.77,130.8 751.81,133.02C751.85,135.24 751.88,137.46 751.93,139.68C751.98,141.9 752.03,144.12 752.12,146.34C752.21,148.56 752.32,150.77 752.46,152.99C752.6,155.21 752.78,157.43 752.98,159.65C753.18,161.87 753.42,164.09 753.64,166.31C753.86,168.53 754.1,170.75 754.32,172.97C754.54,175.19 754.77,177.41 754.96,179.63C755.15,181.85 755.33,184.06 755.47,186.28C755.62,188.5 755.73,190.72 755.83,192.94Q755.93,195.16 756.06,199.6Z" style="vector-effect: none; stroke-width: 2px; stroke: rgb(255, 161, 90); stroke-opacity: 1; fill: rgb(255, 161, 90); fill-opacity: 0.5;"/><path class="box" d="M746.05,105.08H766.55M746.05,139.46H766.55V83.64H746.05ZM756.3,139.46V159.46M756.3,83.64V79.95" style="vector-effect: non-scaling-stroke; stroke-width: 2px; stroke: rgb(255, 161, 90); stroke-opacity: 1; fill: rgb(255, 161, 90); fill-opacity: 0.5;"/><g class="points"><path class="point" transform="translate(699.2,159.46)" d="M3,0A3,3 0 1,1 0,-3A3,3 0 0,1 3,0Z" style="opacity: 1; stroke-width: 0px; fill: rgb(255, 161, 90); fill-opacity: 1;"/><path class="point" transform="translate(688.91,153.35)" d="M3,0A3,3 0 1,1 0,-3A3,3 0 0,1 3,0Z" style="opacity: 1; stroke-width: 0px; fill: rgb(255, 161, 90); fill-opacity: 1;"/><path class="point" transform="translate(701.5,139.46)" d="M3,0A3,3 0 1,1 0,-3A3,3 0 0,1 3,0Z" style="opacity: 1; stroke-width: 0px; fill: rgb(255, 161, 90); fill-opacity: 1;"/><path class="point" transform="translate(687.06,133.86)" d="M3,0A3,3 0 1,1 0,-3A3,3 0 0,1 3,0Z" style="opacity: 1; stroke-width: 0px; fill: rgb(255, 161, 90); fill-opacity: 1;"/><path class="point" transform="translate(692.42,106.85)" d="M3,0A3,3 0 1,1 0,-3A3,3 0 0,1 3,0Z" style="opacity: 1; stroke-width: 0px; fill: rgb(255, 161, 90); fill-opacity: 1;"/><path class="point" transform="translate(699.82,103.31)" d="M3,0A3,3 0 1,1 0,-3A3,3 0 0,1 3,0Z" style="opacity: 1; stroke-width: 0px; fill: rgb(255, 161, 90); fill-opacity: 1;"/><path class="point" transform="translate(694.43,101.78)" d="M3,0A3,3 0 1,1 0,-3A3,3 0 0,1 3,0Z" style="opacity: 1; stroke-width: 0px; fill: rgb(255, 161, 90); fill-opacity: 1;"/><path class="point" transform="translate(697.62,83.64)" d="M3,0A3,3 0 1,1 0,-3A3,3 0 0,1 3,0Z" style="opacity: 1; stroke-width: 0px; fill: rgb(255, 161, 90); fill-opacity: 1;"/><path class="point" transform="translate(691.74,81.33)" d="M3,0A3,3 0 1,1 0,-3A3,3 0 0,1 3,0Z" style="opacity: 1; stroke-width: 0px; fill: rgb(255, 161, 90); fill-opacity: 1;"/><path class="point" transform="translate(685.76,79.95)" d="M3,0A3,3 0 1,1 0,-3A3,3 0 0,1 3,0Z" style="opacity: 1; stroke-width: 0px; fill: rgb(255, 161, 90); fill-opacity: 1;"/></g></g></g></g></g><path class="xlines-above crisp" d="M0,0" style="fill: none;"/><path class="ylines-above crisp" d="M0,0" style="fill: none;"/><g class="overlines-above"/><g class="xaxislayer-above"><g class="xtick"><text text-anchor="middle" x="0" y="441" transform="translate(166.7,0)" style="font-family: 'Arial Black'; font-size: 20px; fill: rgb(42, 63, 95); fill-opacity: 1; white-space: pre; opacity: 1;">Accuracy</text></g><g class="xtick"><text text-anchor="middle" x="0" y="441" transform="translate(334.1,0)" style="font-family: 'Arial Black'; font-size: 20px; fill: rgb(42, 63, 95); fill-opacity: 1; white-space: pre; opacity: 1;">Recall</text></g><g class="xtick"><text text-anchor="middle" x="0" y="441" transform="translate(501.5,0)" style="font-family: 'Arial Black'; font-size: 20px; fill: rgb(42, 63, 95); fill-opacity: 1; white-space: pre; opacity: 1;">Precision</text></g><g class="xtick"><text text-anchor="middle" x="0" y="441" transform="translate(668.9,0)" style="font-family: 'Arial Black'; font-size: 20px; fill: rgb(42, 63, 95); fill-opacity: 1; white-space: pre; opacity: 1;">IoU</text></g><g class="xtick"><text text-anchor="middle" x="0" y="441" transform="translate(836.3,0)" style="font-family: 'Arial Black'; font-size: 20px; fill: rgb(42, 63, 95); fill-opacity: 1; white-space: pre; opacity: 1;">Dice</text></g></g><g class="yaxislayer-above"><g class="ytick"><text text-anchor="end" x="79" y="7" transform="translate(0,378.84)" style="font-family: 'Arial Black'; font-size: 20px; fill: rgb(42, 63, 95); fill-opacity: 1; white-space: pre; opacity: 1;">0.7</text></g><g class="ytick"><text text-anchor="end" x="79" y="7" style="font-family: 'Arial Black'; font-size: 20px; fill: rgb(42, 63, 95); fill-opacity: 1; white-space: pre; opacity: 1;" transform="translate(0,332.81)">0.75</text></g><g class="ytick"><text text-anchor="end" x="79" y="7" style="font-family: 'Arial Black'; font-size: 20px; fill: rgb(42, 63, 95); fill-opacity: 1; white-space: pre; opacity: 1;" transform="translate(0,286.78999999999996)">0.8</text></g><g class="ytick"><text text-anchor="end" x="79" y="7" style="font-family: 'Arial Black'; font-size: 20px; fill: rgb(42, 63, 95); fill-opacity: 1; white-space: pre; opacity: 1;" transform="translate(0,240.77)">0.85</text></g><g class="ytick"><text text-anchor="end" x="79" y="7" style="font-family: 'Arial Black'; font-size: 20px; fill: rgb(42, 63, 95); fill-opacity: 1; white-space: pre; opacity: 1;" transform="translate(0,194.74)">0.9</text></g><g class="ytick"><text text-anchor="end" x="79" y="7" style="font-family: 'Arial Black'; font-size: 20px; fill: rgb(42, 63, 95); fill-opacity: 1; white-space: pre; opacity: 1;" transform="translate(0,148.72)">0.95</text></g><g class="ytick"><text text-anchor="end" x="79" y="7" style="font-family: 'Arial Black'; font-size: 20px; fill: rgb(42, 63, 95); fill-opacity: 1; white-space: pre; opacity: 1;" transform="translate(0,102.7)">1</text></g></g><g class="overaxes-above"/></g></g><g class="polarlayer"/><g class="smithlayer"/><g class="ternarylayer"/><g class="geolayer"/><g class="funnelarealayer"/><g class="pielayer"/><g class="iciclelayer"/><g class="treemaplayer"/><g class="sunburstlayer"/><g class="glimages"/><defs id="topdefs-26f8d8"><g class="clips"/></defs><g class="layer-above"><g class="imagelayer"/><g class="shapelayer"/></g><g class="infolayer"><g class="g-gtitle"><text class="gtitle" x="50" y="50" text-anchor="start" dy="0em" style="opacity: 1; font-family: 'Arial Black'; font-size: 28px; fill: rgb(42, 63, 95); fill-opacity: 1; white-space: pre;">Resultados Effisegnet K-fold k=10</text></g><g class="g-xtitle"/><g class="g-ytitle"/></g></svg>