<svg class="main-svg" xmlns="http://www.w3.org/2000/svg" xmlns:xlink="http://www.w3.org/1999/xlink" width="1000" height="500" style="" viewBox="0 0 1000 500"><rect x="0" y="0" width="1000" height="500" style="fill: rgb(255, 255, 255); fill-opacity: 1;"/><defs id="defs-a4e9e6"><g class="clips"><clipPath id="clipa4e9e6xyplot" class="plotclip"><rect width="791" height="320"/></clipPath><clipPath class="axesclip" id="clipa4e9e6x"><rect x="80" y="0" width="791" height="500"/></clipPath><clipPath class="axesclip" id="clipa4e9e6y"><rect x="0" y="100" width="1000" height="320"/></clipPath><clipPath class="axesclip" id="clipa4e9e6xy"><rect x="80" y="100" width="791" height="320"/></clipPath></g><g class="gradients"/><g class="patterns"/></defs><g class="bglayer"><rect class="bg" x="80" y="100" width="791" height="320" style="fill: rgb(229, 236, 246); fill-opacity: 1; stroke-width: 0;"/></g><g class="layer-below"><g class="imagelayer"/><g class="shapelayer"/></g><g class="cartesianlayer"><g class="subplot xy"><g class="layer-subplot"><g class="shapelayer"/><g class="imagelayer"/></g><g class="minor-gridlayer"><g class="x"/><g class="y"/></g><g class="gridlayer"><g class="x"/><g class="y"><path class="ygrid crisp" transform="translate(0,378.84)" d="M80,0h791" style="stroke: rgb(255, 255, 255); stroke-opacity: 1; stroke-width: 1px;"/><path class="ygrid crisp" transform="translate(0,332.81)" d="M80,0h791" style="stroke: rgb(255, 255, 255); stroke-opacity: 1; stroke-width: 1px;"/><path class="ygrid crisp" transform="translate(0,286.78999999999996)" d="M80,0h791" style="stroke: rgb(255, 255, 255); stroke-opacity: 1; stroke-width: 1px;"/><path class="ygrid crisp" transform="translate(0,240.77)" d="M80,0h791" style="stroke: rgb(255, 255, 255); stroke-opacity: 1; stroke-width: 1px;"/><path class="ygrid crisp" transform="translate(0,194.74)" d="M80,0h791" style="stroke: rgb(255, 255, 255); stroke-opacity: 1; stroke-width: 1px;"/><path class="ygrid crisp" transform="translate(0,148.72)" d="M80,0h791" style="stroke: rgb(255, 255, 255); stroke-opacity: 1; stroke-width: 1px;"/><path class="ygrid crisp" transform="translate(0,102.7)" d="M80,0h791" style="stroke: rgb(255, 255, 255); stroke-opacity: 1; stroke-width: 1px;"/></g></g><g class="zerolinelayer"/><g class="layer-between"><g class="shapelayer"/><g class="imagelayer"/></g><path class="xlines-below"/><path class="ylines-below"/><g class="overlines-below"/><g class="xaxislayer-below"/><g class="yaxislayer-below"/><g class="overaxes-below"/><g class="overplot"><g class="xy" transform="translate(80,100)" clip-path="url(#clipa4e9e6xyplot)"><g class="violinlayer mlayer"><g class="trace violins" style="opacity: 1;"><path class="violin" d="M83.21,52.93Q84.04,52.27 84.56,51.98C85.18,51.63 85.92,51.32 86.71,51.03C87.64,50.68 88.71,50.38 89.82,50.08C91.08,49.74 92.47,49.44 93.89,49.14C95.43,48.81 97.08,48.5 98.73,48.19C100.44,47.87 102.24,47.56 103.98,47.24C105.71,46.93 107.49,46.62 109.17,46.3C110.76,45.99 112.36,45.69 113.81,45.35C115.1,45.05 116.38,44.76 117.44,44.4C118.29,44.11 119.19,43.85 119.7,43.45C120.05,43.18 120.41,42.82 120.41,42.51C120.41,42.19 120.01,41.84 119.67,41.56C119.22,41.19 118.48,40.91 117.81,40.61C117.06,40.27 116.19,39.98 115.36,39.67C114.52,39.35 113.64,39.04 112.8,38.72C111.99,38.41 111.2,38.09 110.42,37.77C109.67,37.46 108.96,37.13 108.22,36.82C107.47,36.5 106.74,36.19 105.95,35.88C105.11,35.55 104.24,35.23 103.31,34.93C102.3,34.6 101.23,34.29 100.13,33.98C98.97,33.66 97.73,33.35 96.52,33.04C95.28,32.72 94,32.41 92.78,32.09C91.61,31.78 90.43,31.47 89.35,31.14C88.36,30.84 87.4,30.53 86.55,30.19C85.81,29.89 85.11,29.6 84.52,29.25Q84.02,28.96 83.22,28.3L80.38,28.3Q79.58,28.96 79.08,29.25C78.49,29.6 77.79,29.89 77.05,30.19C76.2,30.53 75.24,30.84 74.25,31.14C73.17,31.47 71.99,31.78 70.82,32.09C69.6,32.41 68.32,32.72 67.08,33.04C65.87,33.35 64.63,33.66 63.47,33.98C62.37,34.29 61.3,34.6 60.29,34.93C59.36,35.23 58.49,35.55 57.65,35.88C56.86,36.19 56.13,36.5 55.38,36.82C54.64,37.13 53.93,37.46 53.18,37.77C52.4,38.09 51.61,38.41 50.8,38.72C49.96,39.04 49.08,39.35 48.24,39.67C47.41,39.98 46.54,40.27 45.79,40.61C45.12,40.91 44.38,41.19 43.93,41.56C43.59,41.84 43.19,42.19 43.19,42.51C43.19,42.82 43.55,43.18 43.9,43.45C44.41,43.85 45.31,44.11 46.16,44.4C47.22,44.76 48.5,45.05 49.79,45.35C51.24,45.69 52.84,45.99 54.43,46.3C56.11,46.62 57.89,46.93 59.62,47.24C61.36,47.56 63.16,47.87 64.87,48.19C66.52,48.5 68.17,48.81 69.71,49.14C71.13,49.44 72.52,49.74 73.78,50.08C74.89,50.38 75.96,50.68 76.89,51.03C77.68,51.32 78.42,51.63 79.04,51.98Q79.56,52.27 80.39,52.93Z" style="vector-effect: none; stroke-width: 2px; stroke: rgb(99, 110, 250); stroke-opacity: 1; fill: rgb(99, 110, 250); fill-opacity: 0.5;"/><path class="box" d="M72.15,41.86H91.45M72.15,43.9H91.45V37.59H72.15ZM81.8,43.9V47.12M81.8,37.59V34.11" style="vector-effect: non-scaling-stroke; stroke-width: 2px; stroke: rgb(99, 110, 250); stroke-opacity: 1; fill: rgb(99, 110, 250); fill-opacity: 0.5;"/><g class="points"><path class="point" transform="translate(29.89,47.12)" d="M3,0A3,3 0 1,1 0,-3A3,3 0 0,1 3,0Z" style="opacity: 1; stroke-width: 0px; fill: rgb(99, 110, 250); fill-opacity: 1;"/><path class="point" transform="translate(16.66,45.88)" d="M3,0A3,3 0 1,1 0,-3A3,3 0 0,1 3,0Z" style="opacity: 1; stroke-width: 0px; fill: rgb(99, 110, 250); fill-opacity: 1;"/><path class="point" transform="translate(32.3,43.9)" d="M3,0A3,3 0 1,1 0,-3A3,3 0 0,1 3,0Z" style="opacity: 1; stroke-width: 0px; fill: rgb(99, 110, 250); fill-opacity: 1;"/><path class="point" transform="translate(15.1,42.83)" d="M3,0A3,3 0 1,1 0,-3A3,3 0 0,1 3,0Z" style="opacity: 1; stroke-width: 0px; fill: rgb(99, 110, 250); fill-opacity: 1;"/><path class="point" transform="translate(21.29,42.58)" d="M3,0A3,3 0 1,1 0,-3A3,3 0 0,1 3,0Z" style="opacity: 1; stroke-width: 0px; fill: rgb(99, 110, 250); fill-opacity: 1;"/><path class="point" transform="translate(29.41,41.14)" d="M3,0A3,3 0 1,1 0,-3A3,3 0 0,1 3,0Z" style="opacity: 1; stroke-width: 0px; fill: rgb(99, 110, 250); fill-opacity: 1;"/><path class="point" transform="translate(23.49,39.62)" d="M3,0A3,3 0 1,1 0,-3A3,3 0 0,1 3,0Z" style="opacity: 1; stroke-width: 0px; fill: rgb(99, 110, 250); fill-opacity: 1;"/><path class="point" transform="translate(26.99,37.59)" d="M3,0A3,3 0 1,1 0,-3A3,3 0 0,1 3,0Z" style="opacity: 1; stroke-width: 0px; fill: rgb(99, 110, 250); fill-opacity: 1;"/><path class="point" transform="translate(20.53,35.21)" d="M3,0A3,3 0 1,1 0,-3A3,3 0 0,1 3,0Z" style="opacity: 1; stroke-width: 0px; fill: rgb(99, 110, 250); fill-opacity: 1;"/><path class="point" transform="translate(16.75,34.11)" d="M3,0A3,3 0 1,1 0,-3A3,3 0 0,1 3,0Z" style="opacity: 1; stroke-width: 0px; fill: rgb(99, 110, 250); fill-opacity: 1;"/></g></g><g class="trace violins" style="opacity: 1;"><path class="violin" d="M239.68,159.17Q239.83,156.84 239.94,155.68C240.05,154.51 240.17,153.34 240.34,152.18C240.51,151.01 240.71,149.85 240.94,148.69C241.18,147.52 241.44,146.35 241.75,145.19C242.06,144.02 242.42,142.86 242.82,141.7C243.23,140.53 243.68,139.36 244.18,138.2C244.68,137.03 245.25,135.87 245.83,134.71C246.42,133.54 247.07,132.38 247.68,131.21C248.29,130.05 248.94,128.9 249.47,127.72C249.99,126.57 250.51,125.4 250.85,124.22C251.18,123.07 251.42,121.9 251.48,120.73C251.54,119.57 251.43,118.39 251.22,117.23C251.01,116.05 250.61,114.89 250.21,113.74C249.81,112.56 249.28,111.41 248.82,110.24C248.36,109.08 247.87,107.92 247.47,106.75C247.08,105.59 246.73,104.42 246.45,103.25C246.17,102.09 245.98,100.93 245.8,99.76C245.62,98.6 245.51,97.43 245.38,96.27C245.24,95.1 245.15,93.93 244.99,92.77C244.83,91.6 244.65,90.44 244.44,89.28C244.23,88.11 243.98,86.94 243.71,85.78C243.44,84.61 243.14,83.45 242.84,82.29C242.54,81.12 242.22,79.96 241.93,78.79C241.64,77.63 241.36,76.47 241.12,75.3C240.88,74.14 240.66,72.97 240.47,71.8C240.29,70.64 240.14,69.48 240.01,68.31Q239.88,67.15 239.71,64.81L239.09,64.81Q238.92,67.15 238.79,68.31C238.66,69.48 238.51,70.64 238.33,71.8C238.14,72.97 237.92,74.14 237.68,75.3C237.44,76.47 237.16,77.63 236.87,78.79C236.58,79.96 236.26,81.12 235.96,82.29C235.66,83.45 235.36,84.61 235.09,85.78C234.82,86.94 234.57,88.11 234.36,89.28C234.15,90.44 233.97,91.6 233.81,92.77C233.65,93.93 233.56,95.1 233.42,96.27C233.29,97.43 233.18,98.6 233,99.76C232.82,100.93 232.63,102.09 232.35,103.25C232.07,104.42 231.72,105.59 231.33,106.75C230.93,107.92 230.44,109.08 229.98,110.24C229.52,111.41 228.99,112.56 228.59,113.74C228.19,114.89 227.79,116.05 227.58,117.23C227.37,118.39 227.26,119.57 227.32,120.73C227.38,121.9 227.62,123.07 227.95,124.22C228.29,125.4 228.81,126.57 229.33,127.72C229.86,128.9 230.51,130.05 231.12,131.21C231.73,132.38 232.38,133.54 232.97,134.71C233.55,135.87 234.12,137.03 234.62,138.2C235.12,139.36 235.57,140.53 235.98,141.7C236.38,142.86 236.74,144.02 237.05,145.19C237.36,146.35 237.62,147.52 237.86,148.69C238.09,149.85 238.29,151.01 238.46,152.18C238.63,153.34 238.75,154.51 238.86,155.68Q238.97,156.84 239.12,159.17Z" style="vector-effect: none; stroke-width: 2px; stroke: rgb(239, 85, 59); stroke-opacity: 1; fill: rgb(239, 85, 59); fill-opacity: 0.5;"/><path class="box" d="M229.75,118.53H249.05M229.75,121.02H249.05V99.14H229.75ZM239.4,121.02V138.04M239.4,99.14V85.94" style="vector-effect: non-scaling-stroke; stroke-width: 2px; stroke: rgb(239, 85, 59); stroke-opacity: 1; fill: rgb(239, 85, 59); fill-opacity: 0.5;"/><g class="points"><path class="point" transform="translate(187.03,138.04)" d="M3,0A3,3 0 1,1 0,-3A3,3 0 0,1 3,0Z" style="opacity: 1; stroke-width: 0px; fill: rgb(239, 85, 59); fill-opacity: 1;"/><path class="point" transform="translate(174.1,125.22)" d="M3,0A3,3 0 1,1 0,-3A3,3 0 0,1 3,0Z" style="opacity: 1; stroke-width: 0px; fill: rgb(239, 85, 59); fill-opacity: 1;"/><path class="point" transform="translate(188.59,121.02)" d="M3,0A3,3 0 1,1 0,-3A3,3 0 0,1 3,0Z" style="opacity: 1; stroke-width: 0px; fill: rgb(239, 85, 59); fill-opacity: 1;"/><path class="point" transform="translate(173.69,120.23)" d="M3,0A3,3 0 1,1 0,-3A3,3 0 0,1 3,0Z" style="opacity: 1; stroke-width: 0px; fill: rgb(239, 85, 59); fill-opacity: 1;"/><path class="point" transform="translate(179.27,119.47)" d="M3,0A3,3 0 1,1 0,-3A3,3 0 0,1 3,0Z" style="opacity: 1; stroke-width: 0px; fill: rgb(239, 85, 59); fill-opacity: 1;"/><path class="point" transform="translate(186.2,117.59)" d="M3,0A3,3 0 1,1 0,-3A3,3 0 0,1 3,0Z" style="opacity: 1; stroke-width: 0px; fill: rgb(239, 85, 59); fill-opacity: 1;"/><path class="point" transform="translate(181.12,117.16)" d="M3,0A3,3 0 1,1 0,-3A3,3 0 0,1 3,0Z" style="opacity: 1; stroke-width: 0px; fill: rgb(239, 85, 59); fill-opacity: 1;"/><path class="point" transform="translate(184.28,99.14)" d="M3,0A3,3 0 1,1 0,-3A3,3 0 0,1 3,0Z" style="opacity: 1; stroke-width: 0px; fill: rgb(239, 85, 59); fill-opacity: 1;"/><path class="point" transform="translate(178.6,94.04)" d="M3,0A3,3 0 1,1 0,-3A3,3 0 0,1 3,0Z" style="opacity: 1; stroke-width: 0px; fill: rgb(239, 85, 59); fill-opacity: 1;"/><path class="point" transform="translate(175.37,85.94)" d="M3,0A3,3 0 1,1 0,-3A3,3 0 0,1 3,0Z" style="opacity: 1; stroke-width: 0px; fill: rgb(239, 85, 59); fill-opacity: 1;"/></g></g><g class="trace violins" style="opacity: 1;"><path class="violin" d="M397.32,166.11Q397.5,161.94 397.62,159.86C397.75,157.77 397.9,155.68 398.07,153.6C398.24,151.51 398.45,149.43 398.66,147.35C398.87,145.26 399.11,143.18 399.32,141.09C399.53,139.01 399.74,136.93 399.9,134.84C400.06,132.76 400.2,130.67 400.29,128.58C400.38,126.5 400.42,124.41 400.43,122.33C400.44,120.24 400.39,118.16 400.36,116.07C400.34,113.99 400.28,111.9 400.28,109.82C400.28,107.73 400.3,105.64 400.39,103.56C400.48,101.47 400.63,99.39 400.84,97.31C401.05,95.22 401.35,93.14 401.65,91.06C401.95,88.97 402.32,86.89 402.63,84.8C402.94,82.72 403.28,80.64 403.51,78.55C403.74,76.47 403.93,74.38 403.99,72.29C404.05,70.21 404.03,68.12 403.9,66.04C403.77,63.95 403.52,61.86 403.23,59.78C402.94,57.69 402.54,55.61 402.15,53.53C401.76,51.44 401.3,49.36 400.89,47.27C400.48,45.19 400.06,43.11 399.69,41.02C399.33,38.94 398.98,36.85 398.7,34.76C398.42,32.68 398.19,30.6 397.99,28.51C397.79,26.43 397.64,24.34 397.52,22.25Q397.4,20.17 397.25,16L396.75,16Q396.6,20.17 396.48,22.25C396.36,24.34 396.21,26.43 396.01,28.51C395.81,30.6 395.58,32.68 395.3,34.76C395.02,36.85 394.67,38.94 394.31,41.02C393.94,43.11 393.52,45.19 393.11,47.27C392.7,49.36 392.24,51.44 391.85,53.53C391.46,55.61 391.06,57.69 390.77,59.78C390.48,61.86 390.23,63.95 390.1,66.04C389.97,68.12 389.95,70.21 390.01,72.29C390.07,74.38 390.26,76.47 390.49,78.55C390.72,80.64 391.06,82.72 391.37,84.8C391.68,86.89 392.05,88.97 392.35,91.06C392.65,93.14 392.95,95.22 393.16,97.31C393.37,99.39 393.52,101.47 393.61,103.56C393.7,105.64 393.72,107.73 393.72,109.82C393.72,111.9 393.66,113.99 393.64,116.07C393.61,118.16 393.56,120.24 393.57,122.33C393.58,124.41 393.62,126.5 393.71,128.58C393.8,130.67 393.94,132.76 394.1,134.84C394.26,136.93 394.47,139.01 394.68,141.09C394.89,143.18 395.13,145.26 395.34,147.35C395.55,149.43 395.76,151.51 395.93,153.6C396.1,155.68 396.25,157.77 396.38,159.86Q396.5,161.94 396.68,166.11Z" style="vector-effect: none; stroke-width: 2px; stroke: rgb(0, 204, 150); stroke-opacity: 1; fill: rgb(0, 204, 150); fill-opacity: 0.5;"/><path class="box" d="M387.35,76.12H406.65M387.35,123.57H406.65V67.17H387.35ZM397,123.57V128.55M397,67.17V53.57" style="vector-effect: non-scaling-stroke; stroke-width: 2px; stroke: rgb(0, 204, 150); stroke-opacity: 1; fill: rgb(0, 204, 150); fill-opacity: 0.5;"/><g class="points"><path class="point" transform="translate(342.81,128.55)" d="M3,0A3,3 0 1,1 0,-3A3,3 0 0,1 3,0Z" style="opacity: 1; stroke-width: 0px; fill: rgb(0, 204, 150); fill-opacity: 1;"/><path class="point" transform="translate(334.31,124.18)" d="M3,0A3,3 0 1,1 0,-3A3,3 0 0,1 3,0Z" style="opacity: 1; stroke-width: 0px; fill: rgb(0, 204, 150); fill-opacity: 1;"/><path class="point" transform="translate(345.29,123.57)" d="M3,0A3,3 0 1,1 0,-3A3,3 0 0,1 3,0Z" style="opacity: 1; stroke-width: 0px; fill: rgb(0, 204, 150); fill-opacity: 1;"/><path class="point" transform="translate(331.99,78.67)" d="M3,0A3,3 0 1,1 0,-3A3,3 0 0,1 3,0Z" style="opacity: 1; stroke-width: 0px; fill: rgb(0, 204, 150); fill-opacity: 1;"/><path class="point" transform="translate(337.06,78.21)" d="M3,0A3,3 0 1,1 0,-3A3,3 0 0,1 3,0Z" style="opacity: 1; stroke-width: 0px; fill: rgb(0, 204, 150); fill-opacity: 1;"/><path class="point" transform="translate(343.39,74.02)" d="M3,0A3,3 0 1,1 0,-3A3,3 0 0,1 3,0Z" style="opacity: 1; stroke-width: 0px; fill: rgb(0, 204, 150); fill-opacity: 1;"/><path class="point" transform="translate(338.79,68.39)" d="M3,0A3,3 0 1,1 0,-3A3,3 0 0,1 3,0Z" style="opacity: 1; stroke-width: 0px; fill: rgb(0, 204, 150); fill-opacity: 1;"/><path class="point" transform="translate(341.25,67.17)" d="M3,0A3,3 0 1,1 0,-3A3,3 0 0,1 3,0Z" style="opacity: 1; stroke-width: 0px; fill: rgb(0, 204, 150); fill-opacity: 1;"/><path class="point" transform="translate(335.39,64.61)" d="M3,0A3,3 0 1,1 0,-3A3,3 0 0,1 3,0Z" style="opacity: 1; stroke-width: 0px; fill: rgb(0, 204, 150); fill-opacity: 1;"/><path class="point" transform="translate(331.26,53.57)" d="M3,0A3,3 0 1,1 0,-3A3,3 0 0,1 3,0Z" style="opacity: 1; stroke-width: 0px; fill: rgb(0, 204, 150); fill-opacity: 1;"/></g></g><g class="trace violins" style="opacity: 1;"><path class="violin" d="M554.76,304Q554.84,298.34 554.9,295.51C554.96,292.68 555.04,289.84 555.13,287.01C555.22,284.18 555.32,281.35 555.44,278.52C555.56,275.69 555.7,272.86 555.84,270.03C555.98,267.2 556.15,264.37 556.3,261.54C556.45,258.71 556.61,255.87 556.75,253.04C556.89,250.21 557.03,247.38 557.15,244.55C557.27,241.72 557.38,238.89 557.47,236.06C557.56,233.23 557.64,230.39 557.71,227.56C557.78,224.73 557.83,221.9 557.88,219.07C557.93,216.24 557.97,213.41 558.02,210.58C558.07,207.75 558.12,204.91 558.17,202.08C558.22,199.25 558.28,196.42 558.34,193.59C558.4,190.76 558.46,187.93 558.51,185.1C558.56,182.27 558.61,179.44 558.64,176.61C558.67,173.78 558.68,170.94 558.67,168.11C558.66,165.28 558.63,162.45 558.56,159.62C558.49,156.79 558.39,153.96 558.27,151.13C558.15,148.3 557.99,145.46 557.82,142.63C557.65,139.8 557.44,136.97 557.24,134.14C557.04,131.31 556.81,128.48 556.6,125.65C556.39,122.82 556.18,119.98 556,117.15C555.82,114.32 555.65,111.49 555.5,108.66C555.35,105.83 555.22,103 555.12,100.17Q555.02,97.34 554.88,91.68L554.32,91.68Q554.18,97.34 554.08,100.17C553.98,103 553.85,105.83 553.7,108.66C553.55,111.49 553.38,114.32 553.2,117.15C553.02,119.98 552.81,122.82 552.6,125.65C552.39,128.48 552.16,131.31 551.96,134.14C551.76,136.97 551.55,139.8 551.38,142.63C551.21,145.46 551.05,148.3 550.93,151.13C550.81,153.96 550.71,156.79 550.64,159.62C550.57,162.45 550.54,165.28 550.53,168.11C550.52,170.94 550.53,173.78 550.56,176.61C550.59,179.44 550.64,182.27 550.69,185.1C550.74,187.93 550.8,190.76 550.86,193.59C550.92,196.42 550.98,199.25 551.03,202.08C551.08,204.91 551.13,207.75 551.18,210.58C551.23,213.41 551.27,216.24 551.32,219.07C551.37,221.9 551.42,224.73 551.49,227.56C551.56,230.39 551.64,233.23 551.73,236.06C551.82,238.89 551.93,241.72 552.05,244.55C552.17,247.38 552.31,250.21 552.45,253.04C552.59,255.87 552.75,258.71 552.9,261.54C553.05,264.37 553.22,267.2 553.36,270.03C553.5,272.86 553.64,275.69 553.76,278.52C553.88,281.35 553.98,284.18 554.07,287.01C554.16,289.84 554.24,292.68 554.3,295.51Q554.36,298.34 554.44,304Z" style="vector-effect: none; stroke-width: 2px; stroke: rgb(171, 99, 250); stroke-opacity: 1; fill: rgb(171, 99, 250); fill-opacity: 0.5;"/><path class="box" d="M544.95,181.16H564.25M544.95,221.23H564.25V149.63H544.95ZM554.6,221.23V251.45M554.6,149.63V144.23" style="vector-effect: non-scaling-stroke; stroke-width: 2px; stroke: rgb(171, 99, 250); stroke-opacity: 1; fill: rgb(171, 99, 250); fill-opacity: 0.5;"/><g class="points"><path class="point" transform="translate(501.15,251.45)" d="M3,0A3,3 0 1,1 0,-3A3,3 0 0,1 3,0Z" style="opacity: 1; stroke-width: 0px; fill: rgb(171, 99, 250); fill-opacity: 1;"/><path class="point" transform="translate(490.7,240.59)" d="M3,0A3,3 0 1,1 0,-3A3,3 0 0,1 3,0Z" style="opacity: 1; stroke-width: 0px; fill: rgb(171, 99, 250); fill-opacity: 1;"/><path class="point" transform="translate(503.44,221.23)" d="M3,0A3,3 0 1,1 0,-3A3,3 0 0,1 3,0Z" style="opacity: 1; stroke-width: 0px; fill: rgb(171, 99, 250); fill-opacity: 1;"/><path class="point" transform="translate(488.94,213.39)" d="M3,0A3,3 0 1,1 0,-3A3,3 0 0,1 3,0Z" style="opacity: 1; stroke-width: 0px; fill: rgb(171, 99, 250); fill-opacity: 1;"/><path class="point" transform="translate(494.31,185.43)" d="M3,0A3,3 0 1,1 0,-3A3,3 0 0,1 3,0Z" style="opacity: 1; stroke-width: 0px; fill: rgb(171, 99, 250); fill-opacity: 1;"/><path class="point" transform="translate(501.74,176.9)" d="M3,0A3,3 0 1,1 0,-3A3,3 0 0,1 3,0Z" style="opacity: 1; stroke-width: 0px; fill: rgb(171, 99, 250); fill-opacity: 1;"/><path class="point" transform="translate(496.33,176.2)" d="M3,0A3,3 0 1,1 0,-3A3,3 0 0,1 3,0Z" style="opacity: 1; stroke-width: 0px; fill: rgb(171, 99, 250); fill-opacity: 1;"/><path class="point" transform="translate(499.59,149.63)" d="M3,0A3,3 0 1,1 0,-3A3,3 0 0,1 3,0Z" style="opacity: 1; stroke-width: 0px; fill: rgb(171, 99, 250); fill-opacity: 1;"/><path class="point" transform="translate(493.56,145.81)" d="M3,0A3,3 0 1,1 0,-3A3,3 0 0,1 3,0Z" style="opacity: 1; stroke-width: 0px; fill: rgb(171, 99, 250); fill-opacity: 1;"/><path class="point" transform="translate(488.19,144.23)" d="M3,0A3,3 0 1,1 0,-3A3,3 0 0,1 3,0Z" style="opacity: 1; stroke-width: 0px; fill: rgb(171, 99, 250); fill-opacity: 1;"/></g></g><g class="trace violins" style="opacity: 1;"><path class="violin" d="M712.43,199.6Q712.55,195.16 712.64,192.94C712.73,190.72 712.84,188.5 712.98,186.28C713.12,184.06 713.28,181.85 713.46,179.63C713.64,177.41 713.85,175.19 714.06,172.97C714.27,170.75 714.5,168.53 714.71,166.31C714.92,164.09 715.14,161.87 715.32,159.65C715.5,157.43 715.67,155.21 715.81,152.99C715.95,150.77 716.06,148.56 716.14,146.34C716.23,144.12 716.27,141.9 716.32,139.68C716.37,137.46 716.38,135.24 716.42,133.02C716.46,130.8 716.49,128.58 716.55,126.36C716.61,124.14 716.68,121.93 716.77,119.71C716.86,117.49 716.97,115.27 717.08,113.05C717.19,110.83 717.32,108.61 717.41,106.39C717.5,104.17 717.6,101.95 717.64,99.73C717.68,97.51 717.69,95.3 717.64,93.08C717.59,90.86 717.5,88.64 717.35,86.42C717.2,84.2 716.99,81.98 716.76,79.76C716.53,77.54 716.24,75.32 715.95,73.1C715.66,70.88 715.34,68.66 715.04,66.44C714.74,64.22 714.44,62.01 714.17,59.79C713.91,57.57 713.66,55.35 713.45,53.13C713.24,50.91 713.07,48.69 712.92,46.47Q712.77,44.25 712.57,39.81L711.83,39.81Q711.63,44.25 711.48,46.47C711.33,48.69 711.16,50.91 710.95,53.13C710.74,55.35 710.49,57.57 710.23,59.79C709.96,62.01 709.66,64.22 709.36,66.44C709.06,68.66 708.74,70.88 708.45,73.1C708.16,75.32 707.87,77.54 707.64,79.76C707.41,81.98 707.2,84.2 707.05,86.42C706.9,88.64 706.81,90.86 706.76,93.08C706.71,95.3 706.72,97.51 706.76,99.73C706.8,101.95 706.9,104.17 706.99,106.39C707.08,108.61 707.21,110.83 707.32,113.05C707.43,115.27 707.54,117.49 707.63,119.71C707.72,121.93 707.79,124.14 707.85,126.36C707.91,128.58 707.94,130.8 707.98,133.02C708.02,135.24 708.03,137.46 708.08,139.68C708.13,141.9 708.17,144.12 708.26,146.34C708.34,148.56 708.45,150.77 708.59,152.99C708.73,155.21 708.9,157.43 709.08,159.65C709.26,161.87 709.48,164.09 709.69,166.31C709.9,168.53 710.13,170.75 710.34,172.97C710.55,175.19 710.76,177.41 710.94,179.63C711.12,181.85 711.28,184.06 711.42,186.28C711.56,188.5 711.67,190.72 711.76,192.94Q711.85,195.16 711.97,199.6Z" style="vector-effect: none; stroke-width: 2px; stroke: rgb(255, 161, 90); stroke-opacity: 1; fill: rgb(255, 161, 90); fill-opacity: 0.5;"/><path class="box" d="M702.55,105.08H721.85M702.55,139.46H721.85V83.64H702.55ZM712.2,139.46V159.46M712.2,83.64V79.95" style="vector-effect: non-scaling-stroke; stroke-width: 2px; stroke: rgb(255, 161, 90); stroke-opacity: 1; fill: rgb(255, 161, 90); fill-opacity: 0.5;"/><g class="points"><path class="point" transform="translate(658.44,159.46)" d="M3,0A3,3 0 1,1 0,-3A3,3 0 0,1 3,0Z" style="opacity: 1; stroke-width: 0px; fill: rgb(255, 161, 90); fill-opacity: 1;"/><path class="point" transform="translate(648.76,153.35)" d="M3,0A3,3 0 1,1 0,-3A3,3 0 0,1 3,0Z" style="opacity: 1; stroke-width: 0px; fill: rgb(255, 161, 90); fill-opacity: 1;"/><path class="point" transform="translate(660.61,139.46)" d="M3,0A3,3 0 1,1 0,-3A3,3 0 0,1 3,0Z" style="opacity: 1; stroke-width: 0px; fill: rgb(255, 161, 90); fill-opacity: 1;"/><path class="point" transform="translate(647.01,133.86)" d="M3,0A3,3 0 1,1 0,-3A3,3 0 0,1 3,0Z" style="opacity: 1; stroke-width: 0px; fill: rgb(255, 161, 90); fill-opacity: 1;"/><path class="point" transform="translate(652.06,106.85)" d="M3,0A3,3 0 1,1 0,-3A3,3 0 0,1 3,0Z" style="opacity: 1; stroke-width: 0px; fill: rgb(255, 161, 90); fill-opacity: 1;"/><path class="point" transform="translate(659.03,103.31)" d="M3,0A3,3 0 1,1 0,-3A3,3 0 0,1 3,0Z" style="opacity: 1; stroke-width: 0px; fill: rgb(255, 161, 90); fill-opacity: 1;"/><path class="point" transform="translate(653.95,101.78)" d="M3,0A3,3 0 1,1 0,-3A3,3 0 0,1 3,0Z" style="opacity: 1; stroke-width: 0px; fill: rgb(255, 161, 90); fill-opacity: 1;"/><path class="point" transform="translate(656.95,83.64)" d="M3,0A3,3 0 1,1 0,-3A3,3 0 0,1 3,0Z" style="opacity: 1; stroke-width: 0px; fill: rgb(255, 161, 90); fill-opacity: 1;"/><path class="point" transform="translate(651.42,81.33)" d="M3,0A3,3 0 1,1 0,-3A3,3 0 0,1 3,0Z" style="opacity: 1; stroke-width: 0px; fill: rgb(255, 161, 90); fill-opacity: 1;"/><path class="point" transform="translate(645.79,79.95)" d="M3,0A3,3 0 1,1 0,-3A3,3 0 0,1 3,0Z" style="opacity: 1; stroke-width: 0px; fill: rgb(255, 161, 90); fill-opacity: 1;"/></g></g></g></g></g><path class="xlines-above crisp" d="M0,0" style="fill: none;"/><path class="ylines-above crisp" d="M0,0" style="fill: none;"/><g class="overlines-above"/><g class="xaxislayer-above"><g class="xtick"><text text-anchor="middle" x="0" y="433" transform="translate(161.8,0)" style="font-family: 'Open Sans', verdana, arial, sans-serif; font-size: 12px; fill: rgb(42, 63, 95); fill-opacity: 1; white-space: pre; opacity: 1;">Accuracy</text></g><g class="xtick"><text text-anchor="middle" x="0" y="433" transform="translate(319.4,0)" style="font-family: 'Open Sans', verdana, arial, sans-serif; font-size: 12px; fill: rgb(42, 63, 95); fill-opacity: 1; white-space: pre; opacity: 1;">Recall</text></g><g class="xtick"><text text-anchor="middle" x="0" y="433" transform="translate(477,0)" style="font-family: 'Open Sans', verdana, arial, sans-serif; font-size: 12px; fill: rgb(42, 63, 95); fill-opacity: 1; white-space: pre; opacity: 1;">Precision</text></g><g class="xtick"><text text-anchor="middle" x="0" y="433" transform="translate(634.6,0)" style="font-family: 'Open Sans', verdana, arial, sans-serif; font-size: 12px; fill: rgb(42, 63, 95); fill-opacity: 1; white-space: pre; opacity: 1;">IoU</text></g><g class="xtick"><text text-anchor="middle" x="0" y="433" transform="translate(792.2,0)" style="font-family: 'Open Sans', verdana, arial, sans-serif; font-size: 12px; fill: rgb(42, 63, 95); fill-opacity: 1; white-space: pre; opacity: 1;">Dice</text></g></g><g class="yaxislayer-above"><g class="ytick"><text text-anchor="end" x="79" y="4.199999999999999" transform="translate(0,378.84)" style="font-family: 'Open Sans', verdana, arial, sans-serif; font-size: 12px; fill: rgb(42, 63, 95); fill-opacity: 1; white-space: pre; opacity: 1;">0.7</text></g><g class="ytick"><text text-anchor="end" x="79" y="4.199999999999999" style="font-family: 'Open Sans', verdana, arial, sans-serif; font-size: 12px; fill: rgb(42, 63, 95); fill-opacity: 1; white-space: pre; opacity: 1;" transform="translate(0,332.81)">0.75</text></g><g class="ytick"><text text-anchor="end" x="79" y="4.199999999999999" style="font-family: 'Open Sans', verdana, arial, sans-serif; font-size: 12px; fill: rgb(42, 63, 95); fill-opacity: 1; white-space: pre; opacity: 1;" transform="translate(0,286.78999999999996)">0.8</text></g><g class="ytick"><text text-anchor="end" x="79" y="4.199999999999999" style="font-family: 'Open Sans', verdana, arial, sans-serif; font-size: 12px; fill: rgb(42, 63, 95); fill-opacity: 1; white-space: pre; opacity: 1;" transform="translate(0,240.77)">0.85</text></g><g class="ytick"><text text-anchor="end" x="79" y="4.199999999999999" style="font-family: 'Open Sans', verdana, arial, sans-serif; font-size: 12px; fill: rgb(42, 63, 95); fill-opacity: 1; white-space: pre; opacity: 1;" transform="translate(0,194.74)">0.9</text></g><g class="ytick"><text text-anchor="end" x="79" y="4.199999999999999" style="font-family: 'Open Sans', verdana, arial, sans-serif; font-size: 12px; fill: rgb(42, 63, 95); fill-opacity: 1; white-space: pre; opacity: 1;" transform="translate(0,148.72)">0.95</text></g><g class="ytick"><text text-anchor="end" x="79" y="4.199999999999999" style="font-family: 'Open Sans', verdana, arial, sans-serif; font-size: 12px; fill: rgb(42, 63, 95); fill-opacity: 1; white-space: pre; opacity: 1;" transform="translate(0,102.7)">1</text></g></g><g class="overaxes-above"/></g></g><g class="polarlayer"/><g class="smithlayer"/><g class="ternarylayer"/><g class="geolayer"/><g class="funnelarealayer"/><g class="pielayer"/><g class="iciclelayer"/><g class="treemaplayer"/><g class="sunburstlayer"/><g class="glimages"/><defs id="topdefs-a4e9e6"><g class="clips"/><clipPath id="legenda4e9e6"><rect width="101" height="124" x="0" y="0"/></clipPath></defs><g class="layer-above"><g class="imagelayer"/><g class="shapelayer"/></g><g class="infolayer"><g class="legend" pointer-events="all" transform="translate(886.82,100)"><rect class="bg" shape-rendering="crispEdges" width="101" height="124" x="0" y="0" style="stroke: rgb(68, 68, 68); stroke-opacity: 1; fill: rgb(255, 255, 255); fill-opacity: 1; stroke-width: 0px;"/><g class="scrollbox" transform="" clip-path="url(#legenda4e9e6)"><text class="legendtitletext" text-anchor="start" x="2" y="18.2" style="font-family: 'Open Sans', verdana, arial, sans-serif; font-size: 14px; fill: rgb(42, 63, 95); fill-opacity: 1; white-space: pre;">Metric Name</text><g class="groups" transform=""><g class="traces" transform="translate(0,32.7)" style="opacity: 1;"><text class="legendtext" text-anchor="start" x="40" y="4.680000000000001" style="font-family: 'Open Sans', verdana, arial, sans-serif; font-size: 12px; fill: rgb(42, 63, 95); fill-opacity: 1; white-space: pre;">Accuracy</text><g class="layers" style="opacity: 1;"><g class="legendfill"/><g class="legendlines"/><g class="legendsymbols"><g class="legendpoints"><path class="legendbox" d="M6,6H-6V-6H6Z" transform="translate(20,0)" style="stroke-width: 2px; fill: rgb(99, 110, 250); fill-opacity: 0.5; stroke: rgb(99, 110, 250); stroke-opacity: 1;"/></g></g></g><rect class="legendtoggle" x="0" y="-9.5" width="95.671875" height="19" style="fill: rgb(0, 0, 0); fill-opacity: 0;"/></g></g><g class="groups" transform=""><g class="traces" transform="translate(0,51.7)" style="opacity: 1;"><text class="legendtext" text-anchor="start" x="40" y="4.680000000000001" style="font-family: 'Open Sans', verdana, arial, sans-serif; font-size: 12px; fill: rgb(42, 63, 95); fill-opacity: 1; white-space: pre;">Recall</text><g class="layers" style="opacity: 1;"><g class="legendfill"/><g class="legendlines"/><g class="legendsymbols"><g class="legendpoints"><path class="legendbox" d="M6,6H-6V-6H6Z" transform="translate(20,0)" style="stroke-width: 2px; fill: rgb(239, 85, 59); fill-opacity: 0.5; stroke: rgb(239, 85, 59); stroke-opacity: 1;"/></g></g></g><rect class="legendtoggle" x="0" y="-9.5" width="95.671875" height="19" style="fill: rgb(0, 0, 0); fill-opacity: 0;"/></g></g><g class="groups" transform=""><g class="traces" transform="translate(0,70.7)" style="opacity: 1;"><text class="legendtext" text-anchor="start" x="40" y="4.680000000000001" style="font-family: 'Open Sans', verdana, arial, sans-serif; font-size: 12px; fill: rgb(42, 63, 95); fill-opacity: 1; white-space: pre;">Precision</text><g class="layers" style="opacity: 1;"><g class="legendfill"/><g class="legendlines"/><g class="legendsymbols"><g class="legendpoints"><path class="legendbox" d="M6,6H-6V-6H6Z" transform="translate(20,0)" style="stroke-width: 2px; fill: rgb(0, 204, 150); fill-opacity: 0.5; stroke: rgb(0, 204, 150); stroke-opacity: 1;"/></g></g></g><rect class="legendtoggle" x="0" y="-9.5" width="95.671875" height="19" style="fill: rgb(0, 0, 0); fill-opacity: 0;"/></g></g><g class="groups" transform=""><g class="traces" transform="translate(0,89.7)" style="opacity: 1;"><text class="legendtext" text-anchor="start" x="40" y="4.680000000000001" style="font-family: 'Open Sans', verdana, arial, sans-serif; font-size: 12px; fill: rgb(42, 63, 95); fill-opacity: 1; white-space: pre;">IoU</text><g class="layers" style="opacity: 1;"><g class="legendfill"/><g class="legendlines"/><g class="legendsymbols"><g class="legendpoints"><path class="legendbox" d="M6,6H-6V-6H6Z" transform="translate(20,0)" style="stroke-width: 2px; fill: rgb(171, 99, 250); fill-opacity: 0.5; stroke: rgb(171, 99, 250); stroke-opacity: 1;"/></g></g></g><rect class="legendtoggle" x="0" y="-9.5" width="95.671875" height="19" style="fill: rgb(0, 0, 0); fill-opacity: 0;"/></g></g><g class="groups" transform=""><g class="traces" transform="translate(0,108.7)" style="opacity: 1;"><text class="legendtext" text-anchor="start" x="40" y="4.680000000000001" style="font-family: 'Open Sans', verdana, arial, sans-serif; font-size: 12px; fill: rgb(42, 63, 95); fill-opacity: 1; white-space: pre;">Dice</text><g class="layers" style="opacity: 1;"><g class="legendfill"/><g class="legendlines"/><g class="legendsymbols"><g class="legendpoints"><path class="legendbox" d="M6,6H-6V-6H6Z" transform="translate(20,0)" style="stroke-width: 2px; fill: rgb(255, 161, 90); fill-opacity: 0.5; stroke: rgb(255, 161, 90); stroke-opacity: 1;"/></g></g></g><rect class="legendtoggle" x="0" y="-9.5" width="95.671875" height="19" style="fill: rgb(0, 0, 0); fill-opacity: 0;"/></g></g></g><rect class="scrollbar" rx="20" ry="3" width="0" height="0" x="0" y="0" style="fill: rgb(128, 139, 164); fill-opacity: 1;"/></g><g class="g-gtitle"><text class="gtitle" x="50" y="50" text-anchor="start" dy="0em" style="opacity: 1; font-family: 'Open Sans', verdana, arial, sans-serif; font-size: 17px; fill: rgb(42, 63, 95); fill-opacity: 1; white-space: pre;">Resultados Effisegnet K-fold k=10</text></g><g class="g-xtitle"><text class="xtitle" x="475.5" y="460.3" text-anchor="middle" style="opacity: 1; font-family: 'Open Sans', verdana, arial, sans-serif; font-size: 14px; fill: rgb(42, 63, 95); fill-opacity: 1; white-space: pre;">Metric Name</text></g><g class="g-ytitle"><text class="ytitle" transform="rotate(-90,32.334375,260)" x="32.334375" y="260" text-anchor="middle" style="opacity: 1; font-family: 'Open Sans', verdana, arial, sans-serif; font-size: 14px; fill: rgb(42, 63, 95); fill-opacity: 1; white-space: pre;">Metric Value</text></g></g></svg>