<svg class="main-svg" xmlns="http://www.w3.org/2000/svg" xmlns:xlink="http://www.w3.org/1999/xlink" width="1000" height="500" style="" viewBox="0 0 1000 500"><rect x="0" y="0" width="1000" height="500" style="fill: rgb(255, 255, 255); fill-opacity: 1;"/><defs id="defs-3daa67"><g class="clips"><clipPath id="clip3daa67xyplot" class="plotclip"><rect width="840" height="360"/></clipPath><clipPath class="axesclip" id="clip3daa67x"><rect x="80" y="0" width="840" height="500"/></clipPath><clipPath class="axesclip" id="clip3daa67y"><rect x="0" y="60" width="1000" height="360"/></clipPath><clipPath class="axesclip" id="clip3daa67xy"><rect x="80" y="60" width="840" height="360"/></clipPath></g><g class="gradients"/><g class="patterns"/></defs><g class="bglayer"><rect class="bg" x="80" y="60" width="840" height="360" style="fill: rgb(229, 236, 246); fill-opacity: 1; stroke-width: 0;"/></g><g class="layer-below"><g class="imagelayer"/><g class="shapelayer"/></g><g class="cartesianlayer"><g class="subplot xy"><g class="layer-subplot"><g class="shapelayer"/><g class="imagelayer"/></g><g class="minor-gridlayer"><g class="x"/><g class="y"/></g><g class="gridlayer"><g class="x"/><g class="y"><path class="ygrid crisp" transform="translate(0,355.61)" d="M80,0h840" style="stroke: rgb(255, 255, 255); stroke-opacity: 1; stroke-width: 1px;"/><path class="ygrid crisp" transform="translate(0,291.31)" d="M80,0h840" style="stroke: rgb(255, 255, 255); stroke-opacity: 1; stroke-width: 1px;"/><path class="ygrid crisp" transform="translate(0,227.01)" d="M80,0h840" style="stroke: rgb(255, 255, 255); stroke-opacity: 1; stroke-width: 1px;"/><path class="ygrid crisp" transform="translate(0,162.70999999999998)" d="M80,0h840" style="stroke: rgb(255, 255, 255); stroke-opacity: 1; stroke-width: 1px;"/><path class="ygrid crisp" transform="translate(0,98.41)" d="M80,0h840" style="stroke: rgb(255, 255, 255); stroke-opacity: 1; stroke-width: 1px;"/></g></g><g class="zerolinelayer"/><g class="layer-between"><g class="shapelayer"/><g class="imagelayer"/></g><path class="xlines-below"/><path class="ylines-below"/><g class="overlines-below"/><g class="xaxislayer-below"/><g class="yaxislayer-below"/><g class="overaxes-below"/><g class="overplot"><g class="xy" transform="translate(80,60)" clip-path="url(#clip3daa67xyplot)"><g class="violinlayer mlayer"><g class="trace violins" style="opacity: 1;"><path class="violin" d="M87.77,44.46Q88.32,43.88 88.65,43.61C89.02,43.31 89.47,43.02 89.92,42.75C90.41,42.45 90.96,42.18 91.5,41.9C92.06,41.61 92.65,41.34 93.21,41.05C93.76,40.77 94.32,40.48 94.84,40.19C95.33,39.91 95.79,39.63 96.23,39.34C96.65,39.06 97.02,38.77 97.43,38.49C97.85,38.2 98.24,37.9 98.72,37.63C99.26,37.32 99.85,37.04 100.52,36.78C101.31,36.47 102.22,36.19 103.18,35.92C104.29,35.61 105.54,35.34 106.81,35.07C108.21,34.77 109.73,34.5 111.24,34.22C112.81,33.93 114.46,33.65 116.04,33.36C117.59,33.08 119.17,32.81 120.62,32.51C121.94,32.24 123.28,31.98 124.4,31.66C125.32,31.4 126.28,31.16 126.86,30.8C127.25,30.55 127.7,30.24 127.71,29.95C127.72,29.67 127.32,29.35 126.97,29.1C126.48,28.75 125.66,28.51 124.91,28.24C124.04,27.93 123.03,27.67 122.05,27.39C121.03,27.1 119.95,26.83 118.91,26.54C117.88,26.26 116.86,25.97 115.85,25.68C114.86,25.4 113.91,25.11 112.93,24.83C111.94,24.54 110.96,24.25 109.94,23.97C108.87,23.68 107.77,23.4 106.63,23.12C105.44,22.83 104.19,22.55 102.94,22.27C101.67,21.98 100.34,21.7 99.07,21.41C97.83,21.13 96.56,20.86 95.39,20.56C94.31,20.29 93.23,20.02 92.28,19.71C91.44,19.44 90.64,19.16 89.96,18.85Q89.39,18.59 88.43,18L84.97,18Q84.01,18.59 83.44,18.85C82.76,19.16 81.96,19.44 81.12,19.71C80.17,20.02 79.09,20.29 78.01,20.56C76.84,20.86 75.57,21.13 74.33,21.41C73.06,21.7 71.73,21.98 70.46,22.27C69.21,22.55 67.96,22.83 66.77,23.12C65.63,23.4 64.53,23.68 63.46,23.97C62.44,24.25 61.46,24.54 60.47,24.83C59.49,25.11 58.54,25.4 57.55,25.68C56.54,25.97 55.52,26.26 54.49,26.54C53.45,26.83 52.37,27.1 51.35,27.39C50.37,27.67 49.36,27.93 48.49,28.24C47.74,28.51 46.92,28.75 46.43,29.1C46.08,29.35 45.68,29.67 45.69,29.95C45.7,30.24 46.15,30.55 46.54,30.8C47.12,31.16 48.08,31.4 49,31.66C50.12,31.98 51.46,32.24 52.78,32.51C54.23,32.81 55.81,33.08 57.36,33.36C58.94,33.65 60.59,33.93 62.16,34.22C63.67,34.5 65.19,34.77 66.59,35.07C67.86,35.34 69.11,35.61 70.22,35.92C71.18,36.19 72.09,36.47 72.88,36.78C73.55,37.04 74.14,37.32 74.68,37.63C75.16,37.9 75.55,38.2 75.97,38.49C76.38,38.77 76.75,39.06 77.17,39.34C77.61,39.63 78.07,39.91 78.56,40.19C79.08,40.48 79.64,40.77 80.19,41.05C80.75,41.34 81.34,41.61 81.9,41.9C82.44,42.18 82.99,42.45 83.48,42.75C83.93,43.02 84.38,43.31 84.75,43.61Q85.08,43.88 85.63,44.46Z" style="vector-effect: none; stroke-width: 2px; stroke: rgb(99, 110, 250); stroke-opacity: 1; fill: rgb(99, 110, 250); fill-opacity: 0.5;"/><path class="box" d="M76.45,30.01H96.95M76.45,32.55H96.95V27.23H76.45ZM86.7,32.55V39.19M86.7,27.23V23.27" style="vector-effect: non-scaling-stroke; stroke-width: 2px; stroke: rgb(99, 110, 250); stroke-opacity: 1; fill: rgb(99, 110, 250); fill-opacity: 0.5;"/><g class="points"><path class="point" transform="translate(30.37,39.19)" d="M3,0A3,3 0 1,1 0,-3A3,3 0 0,1 3,0Z" style="opacity: 1; stroke-width: 0px; fill: rgb(99, 110, 250); fill-opacity: 1;"/><path class="point" transform="translate(18.7,34.33)" d="M3,0A3,3 0 1,1 0,-3A3,3 0 0,1 3,0Z" style="opacity: 1; stroke-width: 0px; fill: rgb(99, 110, 250); fill-opacity: 1;"/><path class="point" transform="translate(33.44,32.55)" d="M3,0A3,3 0 1,1 0,-3A3,3 0 0,1 3,0Z" style="opacity: 1; stroke-width: 0px; fill: rgb(99, 110, 250); fill-opacity: 1;"/><path class="point" transform="translate(16.66,30.96)" d="M3,0A3,3 0 1,1 0,-3A3,3 0 0,1 3,0Z" style="opacity: 1; stroke-width: 0px; fill: rgb(99, 110, 250); fill-opacity: 1;"/><path class="point" transform="translate(22.6,30.53)" d="M3,0A3,3 0 1,1 0,-3A3,3 0 0,1 3,0Z" style="opacity: 1; stroke-width: 0px; fill: rgb(99, 110, 250); fill-opacity: 1;"/><path class="point" transform="translate(30.68,29.5)" d="M3,0A3,3 0 1,1 0,-3A3,3 0 0,1 3,0Z" style="opacity: 1; stroke-width: 0px; fill: rgb(99, 110, 250); fill-opacity: 1;"/><path class="point" transform="translate(24.74,27.92)" d="M3,0A3,3 0 1,1 0,-3A3,3 0 0,1 3,0Z" style="opacity: 1; stroke-width: 0px; fill: rgb(99, 110, 250); fill-opacity: 1;"/><path class="point" transform="translate(28.69,27.23)" d="M3,0A3,3 0 1,1 0,-3A3,3 0 0,1 3,0Z" style="opacity: 1; stroke-width: 0px; fill: rgb(99, 110, 250); fill-opacity: 1;"/><path class="point" transform="translate(21.25,23.9)" d="M3,0A3,3 0 1,1 0,-3A3,3 0 0,1 3,0Z" style="opacity: 1; stroke-width: 0px; fill: rgb(99, 110, 250); fill-opacity: 1;"/><path class="point" transform="translate(16.71,23.27)" d="M3,0A3,3 0 1,1 0,-3A3,3 0 0,1 3,0Z" style="opacity: 1; stroke-width: 0px; fill: rgb(99, 110, 250); fill-opacity: 1;"/></g></g><g class="trace violins" style="opacity: 1;"><path class="violin" d="M254.36,172.48Q254.5,169.43 254.61,167.91C254.72,166.38 254.85,164.85 255.01,163.33C255.17,161.8 255.36,160.28 255.58,158.76C255.8,157.23 256.07,155.71 256.34,154.19C256.61,152.66 256.92,151.14 257.22,149.62C257.52,148.09 257.85,146.57 258.15,145.04C258.45,143.52 258.75,142 259,140.47C259.25,138.95 259.49,137.43 259.67,135.9C259.85,134.38 259.98,132.86 260.09,131.33C260.2,129.81 260.26,128.28 260.31,126.75C260.36,125.23 260.38,123.7 260.41,122.18C260.45,120.66 260.47,119.13 260.52,117.61C260.58,116.09 260.65,114.56 260.74,113.04C260.84,111.51 260.97,109.99 261.09,108.46C261.21,106.94 261.37,105.41 261.48,103.89C261.59,102.37 261.71,100.84 261.75,99.32C261.79,97.8 261.79,96.27 261.71,94.75C261.63,93.22 261.48,91.7 261.27,90.18C261.05,88.65 260.75,87.12 260.42,85.6C260.09,84.07 259.68,82.55 259.28,81.03C258.88,79.5 258.44,77.98 258.04,76.46C257.64,74.94 257.23,73.42 256.87,71.89C256.51,70.37 256.18,68.84 255.9,67.31C255.62,65.79 255.37,64.27 255.17,62.74C254.97,61.22 254.82,59.69 254.69,58.17Q254.56,56.65 254.4,53.6L253.8,53.6Q253.64,56.65 253.51,58.17C253.38,59.69 253.23,61.22 253.03,62.74C252.83,64.27 252.58,65.79 252.3,67.31C252.02,68.84 251.69,70.37 251.33,71.89C250.97,73.42 250.56,74.94 250.16,76.46C249.76,77.98 249.32,79.5 248.92,81.03C248.52,82.55 248.11,84.07 247.78,85.6C247.45,87.12 247.15,88.65 246.93,90.18C246.72,91.7 246.57,93.22 246.49,94.75C246.41,96.27 246.41,97.8 246.45,99.32C246.49,100.84 246.61,102.37 246.72,103.89C246.83,105.41 246.99,106.94 247.11,108.46C247.23,109.99 247.36,111.51 247.46,113.04C247.55,114.56 247.62,116.09 247.68,117.61C247.73,119.13 247.75,120.66 247.79,122.18C247.82,123.7 247.84,125.23 247.89,126.75C247.94,128.28 248,129.81 248.11,131.33C248.22,132.86 248.35,134.38 248.53,135.9C248.71,137.43 248.95,138.95 249.2,140.47C249.45,142 249.75,143.52 250.05,145.04C250.35,146.57 250.68,148.09 250.98,149.62C251.28,151.14 251.59,152.66 251.86,154.19C252.13,155.71 252.4,157.23 252.62,158.76C252.84,160.28 253.03,161.8 253.19,163.33C253.35,164.85 253.48,166.38 253.59,167.91Q253.7,169.43 253.84,172.48Z" style="vector-effect: none; stroke-width: 2px; stroke: rgb(239, 85, 59); stroke-opacity: 1; fill: rgb(239, 85, 59); fill-opacity: 0.5;"/><path class="box" d="M243.85,106.28H264.35M243.85,131.7H264.35V92.36H243.85ZM254.1,131.7V144M254.1,92.36V82.07" style="vector-effect: non-scaling-stroke; stroke-width: 2px; stroke: rgb(239, 85, 59); stroke-opacity: 1; fill: rgb(239, 85, 59); fill-opacity: 0.5;"/><g class="points"><path class="point" transform="translate(197.88,144)" d="M3,0A3,3 0 1,1 0,-3A3,3 0 0,1 3,0Z" style="opacity: 1; stroke-width: 0px; fill: rgb(239, 85, 59); fill-opacity: 1;"/><path class="point" transform="translate(185.8,133.8)" d="M3,0A3,3 0 1,1 0,-3A3,3 0 0,1 3,0Z" style="opacity: 1; stroke-width: 0px; fill: rgb(239, 85, 59); fill-opacity: 1;"/><path class="point" transform="translate(201.18,131.7)" d="M3,0A3,3 0 1,1 0,-3A3,3 0 0,1 3,0Z" style="opacity: 1; stroke-width: 0px; fill: rgb(239, 85, 59); fill-opacity: 1;"/><path class="point" transform="translate(182.61,123.62)" d="M3,0A3,3 0 1,1 0,-3A3,3 0 0,1 3,0Z" style="opacity: 1; stroke-width: 0px; fill: rgb(239, 85, 59); fill-opacity: 1;"/><path class="point" transform="translate(189.75,112.04)" d="M3,0A3,3 0 1,1 0,-3A3,3 0 0,1 3,0Z" style="opacity: 1; stroke-width: 0px; fill: rgb(239, 85, 59); fill-opacity: 1;"/><path class="point" transform="translate(198.61,100.52)" d="M3,0A3,3 0 1,1 0,-3A3,3 0 0,1 3,0Z" style="opacity: 1; stroke-width: 0px; fill: rgb(239, 85, 59); fill-opacity: 1;"/><path class="point" transform="translate(192.14,95.95)" d="M3,0A3,3 0 1,1 0,-3A3,3 0 0,1 3,0Z" style="opacity: 1; stroke-width: 0px; fill: rgb(239, 85, 59); fill-opacity: 1;"/><path class="point" transform="translate(195.86,92.36)" d="M3,0A3,3 0 1,1 0,-3A3,3 0 0,1 3,0Z" style="opacity: 1; stroke-width: 0px; fill: rgb(239, 85, 59); fill-opacity: 1;"/><path class="point" transform="translate(188.93,91.78)" d="M3,0A3,3 0 1,1 0,-3A3,3 0 0,1 3,0Z" style="opacity: 1; stroke-width: 0px; fill: rgb(239, 85, 59); fill-opacity: 1;"/><path class="point" transform="translate(183.56,82.07)" d="M3,0A3,3 0 1,1 0,-3A3,3 0 0,1 3,0Z" style="opacity: 1; stroke-width: 0px; fill: rgb(239, 85, 59); fill-opacity: 1;"/></g></g><g class="trace violins" style="opacity: 1;"><path class="violin" d="M421.67,204.93Q421.76,200.94 421.82,198.94C421.88,196.94 421.96,194.95 422.05,192.95C422.14,190.95 422.25,188.96 422.37,186.96C422.49,184.96 422.63,182.96 422.77,180.96C422.91,178.96 423.07,176.97 423.23,174.97C423.39,172.97 423.56,170.98 423.72,168.98C423.88,166.98 424.05,164.99 424.21,162.99C424.36,160.99 424.51,159 424.65,157C424.79,155 424.92,153.01 425.04,151.01C425.16,149.01 425.26,147.01 425.37,145.01C425.47,143.01 425.57,141.02 425.67,139.02C425.77,137.02 425.86,135.03 425.97,133.03C426.08,131.03 426.19,129.04 426.32,127.04C426.45,125.04 426.61,123.05 426.77,121.05C426.93,119.05 427.12,117.06 427.29,115.06C427.46,113.06 427.64,111.07 427.78,109.07C427.91,107.07 428.05,105.07 428.1,103.07C428.15,101.07 428.16,99.08 428.08,97.08C428,95.08 427.83,93.08 427.61,91.09C427.38,89.09 427.07,87.09 426.73,85.1C426.39,83.1 425.98,81.11 425.59,79.11C425.2,77.11 424.78,75.12 424.41,73.12C424.04,71.12 423.68,69.12 423.38,67.12C423.08,65.13 422.82,63.13 422.6,61.13Q422.38,59.14 422.08,55.14L420.92,55.14Q420.62,59.14 420.4,61.13C420.18,63.13 419.92,65.13 419.62,67.12C419.32,69.12 418.96,71.12 418.59,73.12C418.22,75.12 417.8,77.11 417.41,79.11C417.02,81.11 416.61,83.1 416.27,85.1C415.93,87.09 415.62,89.09 415.39,91.09C415.17,93.08 415,95.08 414.92,97.08C414.84,99.08 414.85,101.07 414.9,103.07C414.95,105.07 415.09,107.07 415.22,109.07C415.36,111.07 415.54,113.06 415.71,115.06C415.88,117.06 416.07,119.05 416.23,121.05C416.39,123.05 416.55,125.04 416.68,127.04C416.81,129.04 416.92,131.03 417.03,133.03C417.14,135.03 417.23,137.02 417.33,139.02C417.43,141.02 417.53,143.01 417.63,145.01C417.74,147.01 417.84,149.01 417.96,151.01C418.08,153.01 418.21,155 418.35,157C418.49,159 418.64,160.99 418.79,162.99C418.95,164.99 419.12,166.98 419.28,168.98C419.44,170.98 419.61,172.97 419.77,174.97C419.93,176.97 420.09,178.96 420.23,180.96C420.37,182.96 420.51,184.96 420.63,186.96C420.75,188.96 420.86,190.95 420.95,192.95C421.04,194.95 421.12,196.94 421.18,198.94Q421.24,200.94 421.33,204.93Z" style="vector-effect: none; stroke-width: 2px; stroke: rgb(0, 204, 150); stroke-opacity: 1; fill: rgb(0, 204, 150); fill-opacity: 0.5;"/><path class="box" d="M411.25,108.46H431.75M411.25,140.94H431.75V93.75H411.25ZM421.5,140.94V168.13M421.5,93.75V91.95" style="vector-effect: non-scaling-stroke; stroke-width: 2px; stroke: rgb(0, 204, 150); stroke-opacity: 1; fill: rgb(0, 204, 150); fill-opacity: 0.5;"/><g class="points"><path class="point" transform="translate(363.85,168.13)" d="M3,0A3,3 0 1,1 0,-3A3,3 0 0,1 3,0Z" style="opacity: 1; stroke-width: 0px; fill: rgb(0, 204, 150); fill-opacity: 1;"/><path class="point" transform="translate(354.92,149.59)" d="M3,0A3,3 0 1,1 0,-3A3,3 0 0,1 3,0Z" style="opacity: 1; stroke-width: 0px; fill: rgb(0, 204, 150); fill-opacity: 1;"/><path class="point" transform="translate(366.53,140.94)" d="M3,0A3,3 0 1,1 0,-3A3,3 0 0,1 3,0Z" style="opacity: 1; stroke-width: 0px; fill: rgb(0, 204, 150); fill-opacity: 1;"/><path class="point" transform="translate(352.4,125.96)" d="M3,0A3,3 0 1,1 0,-3A3,3 0 0,1 3,0Z" style="opacity: 1; stroke-width: 0px; fill: rgb(0, 204, 150); fill-opacity: 1;"/><path class="point" transform="translate(357.65,117.01)" d="M3,0A3,3 0 1,1 0,-3A3,3 0 0,1 3,0Z" style="opacity: 1; stroke-width: 0px; fill: rgb(0, 204, 150); fill-opacity: 1;"/><path class="point" transform="translate(364.95,99.91)" d="M3,0A3,3 0 1,1 0,-3A3,3 0 0,1 3,0Z" style="opacity: 1; stroke-width: 0px; fill: rgb(0, 204, 150); fill-opacity: 1;"/><path class="point" transform="translate(359.6,95.9)" d="M3,0A3,3 0 1,1 0,-3A3,3 0 0,1 3,0Z" style="opacity: 1; stroke-width: 0px; fill: rgb(0, 204, 150); fill-opacity: 1;"/><path class="point" transform="translate(363,93.75)" d="M3,0A3,3 0 1,1 0,-3A3,3 0 0,1 3,0Z" style="opacity: 1; stroke-width: 0px; fill: rgb(0, 204, 150); fill-opacity: 1;"/><path class="point" transform="translate(356.29,92.62)" d="M3,0A3,3 0 1,1 0,-3A3,3 0 0,1 3,0Z" style="opacity: 1; stroke-width: 0px; fill: rgb(0, 204, 150); fill-opacity: 1;"/><path class="point" transform="translate(350.96,91.95)" d="M3,0A3,3 0 1,1 0,-3A3,3 0 0,1 3,0Z" style="opacity: 1; stroke-width: 0px; fill: rgb(0, 204, 150); fill-opacity: 1;"/></g></g><g class="trace violins" style="opacity: 1;"><path class="violin" d="M589.1,342Q589.21,336.97 589.29,334.45C589.37,331.93 589.47,329.42 589.59,326.9C589.71,324.38 589.85,321.87 590,319.35C590.15,316.83 590.33,314.32 590.5,311.8C590.67,309.28 590.86,306.77 591.03,304.25C591.2,301.73 591.38,299.22 591.53,296.7C591.68,294.18 591.81,291.67 591.93,289.15C592.05,286.63 592.15,284.11 592.24,281.59C592.33,279.07 592.41,276.56 592.49,274.04C592.57,271.52 592.65,269.01 592.74,266.49C592.83,263.97 592.92,261.46 593.01,258.94C593.1,256.42 593.2,253.91 593.29,251.39C593.38,248.87 593.47,246.36 593.53,243.84C593.59,241.32 593.64,238.81 593.66,236.29C593.68,233.77 593.69,231.26 593.66,228.74C593.63,226.22 593.58,223.71 593.5,221.19C593.42,218.67 593.32,216.16 593.19,213.64C593.06,211.12 592.91,208.61 592.74,206.09C592.57,203.57 592.37,201.06 592.16,198.54C591.95,196.02 591.72,193.51 591.5,190.99C591.28,188.47 591.04,185.96 590.83,183.44C590.62,180.92 590.4,178.41 590.22,175.89C590.04,173.37 589.87,170.85 589.73,168.33C589.59,165.81 589.47,163.3 589.37,160.78Q589.27,158.26 589.15,153.23L588.65,153.23Q588.53,158.26 588.43,160.78C588.33,163.3 588.21,165.81 588.07,168.33C587.93,170.85 587.76,173.37 587.58,175.89C587.4,178.41 587.18,180.92 586.97,183.44C586.76,185.96 586.52,188.47 586.3,190.99C586.08,193.51 585.85,196.02 585.64,198.54C585.43,201.06 585.23,203.57 585.06,206.09C584.89,208.61 584.74,211.12 584.61,213.64C584.48,216.16 584.38,218.67 584.3,221.19C584.22,223.71 584.17,226.22 584.14,228.74C584.11,231.26 584.12,233.77 584.14,236.29C584.16,238.81 584.21,241.32 584.27,243.84C584.33,246.36 584.42,248.87 584.51,251.39C584.6,253.91 584.7,256.42 584.79,258.94C584.88,261.46 584.97,263.97 585.06,266.49C585.15,269.01 585.23,271.52 585.31,274.04C585.39,276.56 585.47,279.07 585.56,281.59C585.65,284.11 585.75,286.63 585.87,289.15C585.99,291.67 586.12,294.18 586.27,296.7C586.42,299.22 586.6,301.73 586.77,304.25C586.94,306.77 587.13,309.28 587.3,311.8C587.47,314.32 587.65,316.83 587.8,319.35C587.95,321.87 588.09,324.38 588.21,326.9C588.33,329.42 588.43,331.93 588.51,334.45Q588.59,336.97 588.7,342Z" style="vector-effect: none; stroke-width: 2px; stroke: rgb(171, 99, 250); stroke-opacity: 1; fill: rgb(171, 99, 250); fill-opacity: 0.5;"/><path class="box" d="M578.65,242.78H599.15M578.65,277.45H599.15V214.56H578.65ZM588.9,277.45V295.92M588.9,214.56V199.31" style="vector-effect: non-scaling-stroke; stroke-width: 2px; stroke: rgb(171, 99, 250); stroke-opacity: 1; fill: rgb(171, 99, 250); fill-opacity: 0.5;"/><g class="points"><path class="point" transform="translate(532.82,295.92)" d="M3,0A3,3 0 1,1 0,-3A3,3 0 0,1 3,0Z" style="opacity: 1; stroke-width: 0px; fill: rgb(171, 99, 250); fill-opacity: 1;"/><path class="point" transform="translate(520.66,288.85)" d="M3,0A3,3 0 1,1 0,-3A3,3 0 0,1 3,0Z" style="opacity: 1; stroke-width: 0px; fill: rgb(171, 99, 250); fill-opacity: 1;"/><path class="point" transform="translate(535.41,277.45)" d="M3,0A3,3 0 1,1 0,-3A3,3 0 0,1 3,0Z" style="opacity: 1; stroke-width: 0px; fill: rgb(171, 99, 250); fill-opacity: 1;"/><path class="point" transform="translate(518.65,248.65)" d="M3,0A3,3 0 1,1 0,-3A3,3 0 0,1 3,0Z" style="opacity: 1; stroke-width: 0px; fill: rgb(171, 99, 250); fill-opacity: 1;"/><path class="point" transform="translate(524.73,246.21)" d="M3,0A3,3 0 1,1 0,-3A3,3 0 0,1 3,0Z" style="opacity: 1; stroke-width: 0px; fill: rgb(171, 99, 250); fill-opacity: 1;"/><path class="point" transform="translate(533.03,239.36)" d="M3,0A3,3 0 1,1 0,-3A3,3 0 0,1 3,0Z" style="opacity: 1; stroke-width: 0px; fill: rgb(171, 99, 250); fill-opacity: 1;"/><path class="point" transform="translate(526.99,228.8)" d="M3,0A3,3 0 1,1 0,-3A3,3 0 0,1 3,0Z" style="opacity: 1; stroke-width: 0px; fill: rgb(171, 99, 250); fill-opacity: 1;"/><path class="point" transform="translate(530.44,214.56)" d="M3,0A3,3 0 1,1 0,-3A3,3 0 0,1 3,0Z" style="opacity: 1; stroke-width: 0px; fill: rgb(171, 99, 250); fill-opacity: 1;"/><path class="point" transform="translate(523.45,202.37)" d="M3,0A3,3 0 1,1 0,-3A3,3 0 0,1 3,0Z" style="opacity: 1; stroke-width: 0px; fill: rgb(171, 99, 250); fill-opacity: 1;"/><path class="point" transform="translate(518.94,199.31)" d="M3,0A3,3 0 1,1 0,-3A3,3 0 0,1 3,0Z" style="opacity: 1; stroke-width: 0px; fill: rgb(171, 99, 250); fill-opacity: 1;"/></g></g><g class="trace violins" style="opacity: 1;"><path class="violin" d="M756.62,166.03Q756.8,163.46 756.93,162.17C757.06,160.88 757.21,159.59 757.41,158.31C757.61,157.02 757.85,155.73 758.11,154.44C758.37,153.15 758.68,151.86 758.99,150.58C759.3,149.29 759.65,148.01 759.99,146.72C760.33,145.43 760.69,144.15 761.01,142.86C761.33,141.58 761.64,140.29 761.91,139C762.18,137.72 762.43,136.43 762.65,135.14C762.87,133.86 763.05,132.57 763.22,131.28C763.39,129.99 763.53,128.71 763.68,127.42C763.83,126.13 763.96,124.84 764.1,123.55C764.24,122.26 764.38,120.98 764.52,119.69C764.66,118.4 764.8,117.12 764.93,115.83C765.06,114.54 765.19,113.26 765.29,111.97C765.38,110.68 765.47,109.4 765.5,108.11C765.53,106.82 765.54,105.54 765.49,104.25C765.44,102.96 765.34,101.67 765.17,100.39C765,99.1 764.76,97.81 764.47,96.53C764.18,95.24 763.81,93.95 763.42,92.67C763.02,91.37 762.55,90.09 762.09,88.8C761.63,87.51 761.12,86.23 760.66,84.94C760.2,83.66 759.72,82.37 759.31,81.08C758.9,79.8 758.52,78.51 758.2,77.22C757.88,75.94 757.61,74.65 757.39,73.36Q757.17,72.08 756.87,69.5L755.73,69.5Q755.43,72.08 755.21,73.36C754.99,74.65 754.72,75.94 754.4,77.22C754.08,78.51 753.7,79.8 753.29,81.08C752.88,82.37 752.4,83.66 751.94,84.94C751.48,86.23 750.97,87.51 750.51,88.8C750.05,90.09 749.58,91.37 749.18,92.67C748.79,93.95 748.42,95.24 748.13,96.53C747.84,97.81 747.6,99.1 747.43,100.39C747.26,101.67 747.16,102.96 747.11,104.25C747.06,105.54 747.07,106.82 747.1,108.11C747.13,109.4 747.22,110.68 747.31,111.97C747.41,113.26 747.54,114.54 747.67,115.83C747.8,117.12 747.94,118.4 748.08,119.69C748.22,120.98 748.36,122.26 748.5,123.55C748.64,124.84 748.77,126.13 748.92,127.42C749.07,128.71 749.21,129.99 749.38,131.28C749.55,132.57 749.73,133.86 749.95,135.14C750.17,136.43 750.42,137.72 750.69,139C750.96,140.29 751.27,141.58 751.59,142.86C751.91,144.15 752.27,145.43 752.61,146.72C752.95,148.01 753.3,149.29 753.61,150.58C753.92,151.86 754.23,153.15 754.49,154.44C754.75,155.73 754.99,157.02 755.19,158.31C755.39,159.59 755.54,160.88 755.67,162.17Q755.8,163.46 755.98,166.03Z" style="vector-effect: none; stroke-width: 2px; stroke: rgb(255, 161, 90); stroke-opacity: 1; fill: rgb(255, 161, 90); fill-opacity: 0.5;"/><path class="box" d="M746.05,112.87H766.55M746.05,131.13H766.55V97.93H746.05ZM756.3,131.13V142.47M756.3,97.93V93.05" style="vector-effect: non-scaling-stroke; stroke-width: 2px; stroke: rgb(255, 161, 90); stroke-opacity: 1; fill: rgb(255, 161, 90); fill-opacity: 0.5;"/><g class="points"><path class="point" transform="translate(700.04,142.47)" d="M3,0A3,3 0 1,1 0,-3A3,3 0 0,1 3,0Z" style="opacity: 1; stroke-width: 0px; fill: rgb(255, 161, 90); fill-opacity: 1;"/><path class="point" transform="translate(688.47,135.34)" d="M3,0A3,3 0 1,1 0,-3A3,3 0 0,1 3,0Z" style="opacity: 1; stroke-width: 0px; fill: rgb(255, 161, 90); fill-opacity: 1;"/><path class="point" transform="translate(702.44,131.13)" d="M3,0A3,3 0 1,1 0,-3A3,3 0 0,1 3,0Z" style="opacity: 1; stroke-width: 0px; fill: rgb(255, 161, 90); fill-opacity: 1;"/><path class="point" transform="translate(686.23,120.32)" d="M3,0A3,3 0 1,1 0,-3A3,3 0 0,1 3,0Z" style="opacity: 1; stroke-width: 0px; fill: rgb(255, 161, 90); fill-opacity: 1;"/><path class="point" transform="translate(692.16,113.58)" d="M3,0A3,3 0 1,1 0,-3A3,3 0 0,1 3,0Z" style="opacity: 1; stroke-width: 0px; fill: rgb(255, 161, 90); fill-opacity: 1;"/><path class="point" transform="translate(700.37,112.17)" d="M3,0A3,3 0 1,1 0,-3A3,3 0 0,1 3,0Z" style="opacity: 1; stroke-width: 0px; fill: rgb(255, 161, 90); fill-opacity: 1;"/><path class="point" transform="translate(694.38,104.43)" d="M3,0A3,3 0 1,1 0,-3A3,3 0 0,1 3,0Z" style="opacity: 1; stroke-width: 0px; fill: rgb(255, 161, 90); fill-opacity: 1;"/><path class="point" transform="translate(697.88,97.93)" d="M3,0A3,3 0 1,1 0,-3A3,3 0 0,1 3,0Z" style="opacity: 1; stroke-width: 0px; fill: rgb(255, 161, 90); fill-opacity: 1;"/><path class="point" transform="translate(691.05,93.85)" d="M3,0A3,3 0 1,1 0,-3A3,3 0 0,1 3,0Z" style="opacity: 1; stroke-width: 0px; fill: rgb(255, 161, 90); fill-opacity: 1;"/><path class="point" transform="translate(685.76,93.05)" d="M3,0A3,3 0 1,1 0,-3A3,3 0 0,1 3,0Z" style="opacity: 1; stroke-width: 0px; fill: rgb(255, 161, 90); fill-opacity: 1;"/></g></g></g></g></g><path class="xlines-above crisp" d="M0,0" style="fill: none;"/><path class="ylines-above crisp" d="M0,0" style="fill: none;"/><g class="overlines-above"/><g class="xaxislayer-above"><g class="xtick"><text text-anchor="middle" x="0" y="441" transform="translate(166.7,0)" style="font-family: 'Arial Black'; font-size: 20px; fill: rgb(42, 63, 95); fill-opacity: 1; white-space: pre; opacity: 1;">Accuracy</text></g><g class="xtick"><text text-anchor="middle" x="0" y="441" transform="translate(334.1,0)" style="font-family: 'Arial Black'; font-size: 20px; fill: rgb(42, 63, 95); fill-opacity: 1; white-space: pre; opacity: 1;">Recall</text></g><g class="xtick"><text text-anchor="middle" x="0" y="441" transform="translate(501.5,0)" style="font-family: 'Arial Black'; font-size: 20px; fill: rgb(42, 63, 95); fill-opacity: 1; white-space: pre; opacity: 1;">Precision</text></g><g class="xtick"><text text-anchor="middle" x="0" y="441" transform="translate(668.9,0)" style="font-family: 'Arial Black'; font-size: 20px; fill: rgb(42, 63, 95); fill-opacity: 1; white-space: pre; opacity: 1;">IoU</text></g><g class="xtick"><text text-anchor="middle" x="0" y="441" transform="translate(836.3,0)" style="font-family: 'Arial Black'; font-size: 20px; fill: rgb(42, 63, 95); fill-opacity: 1; white-space: pre; opacity: 1;">Dice</text></g></g><g class="yaxislayer-above"><g class="ytick"><text text-anchor="end" x="79" y="7" transform="translate(0,419.91)" style="font-family: 'Arial Black'; font-size: 20px; fill: rgb(42, 63, 95); fill-opacity: 1; white-space: pre; opacity: 1;">0.7</text></g><g class="ytick"><text text-anchor="end" x="79" y="7" style="font-family: 'Arial Black'; font-size: 20px; fill: rgb(42, 63, 95); fill-opacity: 1; white-space: pre; opacity: 1;" transform="translate(0,355.61)">0.75</text></g><g class="ytick"><text text-anchor="end" x="79" y="7" style="font-family: 'Arial Black'; font-size: 20px; fill: rgb(42, 63, 95); fill-opacity: 1; white-space: pre; opacity: 1;" transform="translate(0,291.31)">0.8</text></g><g class="ytick"><text text-anchor="end" x="79" y="7" style="font-family: 'Arial Black'; font-size: 20px; fill: rgb(42, 63, 95); fill-opacity: 1; white-space: pre; opacity: 1;" transform="translate(0,227.01)">0.85</text></g><g class="ytick"><text text-anchor="end" x="79" y="7" style="font-family: 'Arial Black'; font-size: 20px; fill: rgb(42, 63, 95); fill-opacity: 1; white-space: pre; opacity: 1;" transform="translate(0,162.70999999999998)">0.9</text></g><g class="ytick"><text text-anchor="end" x="79" y="7" style="font-family: 'Arial Black'; font-size: 20px; fill: rgb(42, 63, 95); fill-opacity: 1; white-space: pre; opacity: 1;" transform="translate(0,98.41)">0.95</text></g></g><g class="overaxes-above"/></g></g><g class="polarlayer"/><g class="smithlayer"/><g class="ternarylayer"/><g class="geolayer"/><g class="funnelarealayer"/><g class="pielayer"/><g class="iciclelayer"/><g class="treemaplayer"/><g class="sunburstlayer"/><g class="glimages"/><defs id="topdefs-3daa67"><g class="clips"/></defs><g class="layer-above"><g class="imagelayer"/><g class="shapelayer"/></g><g class="infolayer"><g class="g-gtitle"/><g class="g-xtitle"/><g class="g-ytitle"/></g></svg>