<svg class="main-svg" xmlns="http://www.w3.org/2000/svg" xmlns:xlink="http://www.w3.org/1999/xlink" width="1000" height="500" style="" viewBox="0 0 1000 500"><rect x="0" y="0" width="1000" height="500" style="fill: rgb(255, 255, 255); fill-opacity: 1;"/><defs id="defs-2bd8c0"><g class="clips"><clipPath id="clip2bd8c0xyplot" class="plotclip"><rect width="840" height="360"/></clipPath><clipPath class="axesclip" id="clip2bd8c0x"><rect x="80" y="0" width="840" height="500"/></clipPath><clipPath class="axesclip" id="clip2bd8c0y"><rect x="0" y="60" width="1000" height="360"/></clipPath><clipPath class="axesclip" id="clip2bd8c0xy"><rect x="80" y="60" width="840" height="360"/></clipPath></g><g class="gradients"/><g class="patterns"/></defs><g class="bglayer"><rect class="bg" x="80" y="60" width="840" height="360" style="fill: rgb(229, 236, 246); fill-opacity: 1; stroke-width: 0;"/></g><g class="layer-below"><g class="imagelayer"/><g class="shapelayer"/></g><g class="cartesianlayer"><g class="subplot xy"><g class="layer-subplot"><g class="shapelayer"/><g class="imagelayer"/></g><g class="minor-gridlayer"><g class="x"/><g class="y"/></g><g class="gridlayer"><g class="x"/><g class="y"><path class="ygrid crisp" transform="translate(0,376.19)" d="M80,0h840" style="stroke: rgb(255, 255, 255); stroke-opacity: 1; stroke-width: 1px;"/><path class="ygrid crisp" transform="translate(0,307.28999999999996)" d="M80,0h840" style="stroke: rgb(255, 255, 255); stroke-opacity: 1; stroke-width: 1px;"/><path class="ygrid crisp" transform="translate(0,238.38)" d="M80,0h840" style="stroke: rgb(255, 255, 255); stroke-opacity: 1; stroke-width: 1px;"/><path class="ygrid crisp" transform="translate(0,169.48000000000002)" d="M80,0h840" style="stroke: rgb(255, 255, 255); stroke-opacity: 1; stroke-width: 1px;"/><path class="ygrid crisp" transform="translate(0,100.57)" d="M80,0h840" style="stroke: rgb(255, 255, 255); stroke-opacity: 1; stroke-width: 1px;"/></g></g><g class="zerolinelayer"/><g class="layer-between"><g class="shapelayer"/><g class="imagelayer"/></g><path class="xlines-below"/><path class="ylines-below"/><g class="overlines-below"/><g class="xaxislayer-below"/><g class="yaxislayer-below"/><g class="overaxes-below"/><g class="overplot"><g class="xy" transform="translate(80,60)" clip-path="url(#clip2bd8c0xyplot)"><g class="violinlayer mlayer"><g class="trace violins" style="opacity: 1;"><path class="violin" d="M87.76,42.63Q88.34,41.98 88.71,41.68C89.13,41.34 89.62,41.03 90.15,40.73C90.75,40.39 91.43,40.08 92.12,39.78C92.87,39.45 93.69,39.15 94.51,38.84C95.37,38.52 96.27,38.2 97.16,37.89C98.06,37.57 98.98,37.26 99.89,36.94C100.8,36.63 101.71,36.31 102.62,36C103.54,35.68 104.45,35.36 105.39,35.05C106.35,34.73 107.31,34.41 108.31,34.1C109.34,33.78 110.4,33.46 111.48,33.15C112.59,32.83 113.73,32.52 114.86,32.21C116,31.89 117.16,31.58 118.28,31.26C119.37,30.95 120.46,30.64 121.49,30.31C122.46,30 123.42,29.7 124.28,29.37C125.05,29.07 125.83,28.77 126.44,28.42C126.94,28.13 127.53,27.84 127.71,27.47C127.85,27.18 127.86,26.8 127.69,26.52C127.45,26.12 126.65,25.86 125.94,25.58C124.95,25.19 123.59,24.92 122.22,24.63C120.58,24.28 118.66,23.98 116.75,23.68C114.67,23.35 112.4,23.05 110.22,22.74C108.03,22.42 105.75,22.12 103.62,21.79C101.62,21.48 99.62,21.18 97.82,20.84C96.23,20.54 94.7,20.24 93.36,19.89C92.24,19.6 91.19,19.31 90.32,18.95Q89.62,18.66 88.49,18L84.91,18Q83.78,18.66 83.08,18.95C82.21,19.31 81.16,19.6 80.04,19.89C78.7,20.24 77.17,20.54 75.58,20.84C73.78,21.18 71.78,21.48 69.78,21.79C67.65,22.12 65.37,22.42 63.18,22.74C61,23.05 58.73,23.35 56.65,23.68C54.74,23.98 52.82,24.28 51.18,24.63C49.81,24.92 48.45,25.19 47.46,25.58C46.75,25.86 45.95,26.12 45.71,26.52C45.54,26.8 45.55,27.18 45.69,27.47C45.87,27.84 46.46,28.13 46.96,28.42C47.57,28.77 48.35,29.07 49.12,29.37C49.98,29.7 50.94,30 51.91,30.31C52.94,30.64 54.03,30.95 55.12,31.26C56.24,31.58 57.4,31.89 58.54,32.21C59.67,32.52 60.81,32.83 61.92,33.15C63,33.46 64.06,33.78 65.09,34.1C66.09,34.41 67.05,34.73 68.01,35.05C68.95,35.36 69.86,35.68 70.78,36C71.69,36.31 72.6,36.63 73.51,36.94C74.42,37.26 75.34,37.57 76.24,37.89C77.13,38.2 78.03,38.52 78.89,38.84C79.71,39.15 80.53,39.45 81.28,39.78C81.97,40.08 82.65,40.39 83.25,40.73C83.78,41.03 84.27,41.34 84.69,41.68Q85.06,41.98 85.64,42.63Z" style="vector-effect: none; stroke-width: 2px; stroke: rgb(99, 110, 250); stroke-opacity: 1; fill: rgb(99, 110, 250); fill-opacity: 0.5;"/><path class="box" d="M76.45,28.5H96.95M76.45,31.38H96.95V25.37H76.45ZM86.7,31.38V36.93M86.7,25.37V23.7" style="vector-effect: non-scaling-stroke; stroke-width: 2px; stroke: rgb(99, 110, 250); stroke-opacity: 1; fill: rgb(99, 110, 250); fill-opacity: 0.5;"/><g class="points"><path class="point" transform="translate(30.09,36.93)" d="M3,0A3,3 0 1,1 0,-3A3,3 0 0,1 3,0Z" style="opacity: 1; stroke-width: 0px; fill: rgb(99, 110, 250); fill-opacity: 1;"/><path class="point" transform="translate(19.27,33.94)" d="M3,0A3,3 0 1,1 0,-3A3,3 0 0,1 3,0Z" style="opacity: 1; stroke-width: 0px; fill: rgb(99, 110, 250); fill-opacity: 1;"/><path class="point" transform="translate(32.89,31.38)" d="M3,0A3,3 0 1,1 0,-3A3,3 0 0,1 3,0Z" style="opacity: 1; stroke-width: 0px; fill: rgb(99, 110, 250); fill-opacity: 1;"/><path class="point" transform="translate(16.27,30.16)" d="M3,0A3,3 0 1,1 0,-3A3,3 0 0,1 3,0Z" style="opacity: 1; stroke-width: 0px; fill: rgb(99, 110, 250); fill-opacity: 1;"/><path class="point" transform="translate(22.59,29.18)" d="M3,0A3,3 0 1,1 0,-3A3,3 0 0,1 3,0Z" style="opacity: 1; stroke-width: 0px; fill: rgb(99, 110, 250); fill-opacity: 1;"/><path class="point" transform="translate(30.71,27.81)" d="M3,0A3,3 0 1,1 0,-3A3,3 0 0,1 3,0Z" style="opacity: 1; stroke-width: 0px; fill: rgb(99, 110, 250); fill-opacity: 1;"/><path class="point" transform="translate(24.76,25.54)" d="M3,0A3,3 0 1,1 0,-3A3,3 0 0,1 3,0Z" style="opacity: 1; stroke-width: 0px; fill: rgb(99, 110, 250); fill-opacity: 1;"/><path class="point" transform="translate(28.71,25.37)" d="M3,0A3,3 0 1,1 0,-3A3,3 0 0,1 3,0Z" style="opacity: 1; stroke-width: 0px; fill: rgb(99, 110, 250); fill-opacity: 1;"/><path class="point" transform="translate(21.25,25.18)" d="M3,0A3,3 0 1,1 0,-3A3,3 0 0,1 3,0Z" style="opacity: 1; stroke-width: 0px; fill: rgb(99, 110, 250); fill-opacity: 1;"/><path class="point" transform="translate(16.24,23.7)" d="M3,0A3,3 0 1,1 0,-3A3,3 0 0,1 3,0Z" style="opacity: 1; stroke-width: 0px; fill: rgb(99, 110, 250); fill-opacity: 1;"/></g></g><g class="trace violins" style="opacity: 1;"><path class="violin" d="M254.31,207.29Q254.42,203.85 254.5,202.13C254.58,200.41 254.68,198.69 254.79,196.97C254.9,195.25 255.03,193.52 255.18,191.8C255.32,190.08 255.5,188.36 255.66,186.64C255.83,184.92 256,183.2 256.17,181.48C256.34,179.76 256.5,178.04 256.66,176.32C256.82,174.6 256.96,172.87 257.11,171.15C257.25,169.43 257.39,167.71 257.53,165.99C257.67,164.27 257.81,162.55 257.97,160.83C258.13,159.11 258.3,157.38 258.49,155.66C258.68,153.94 258.89,152.22 259.11,150.5C259.33,148.78 259.58,147.06 259.8,145.34C260.02,143.62 260.25,141.89 260.44,140.17C260.63,138.45 260.81,136.73 260.94,135.01C261.07,133.29 261.16,131.57 261.21,129.85C261.26,128.13 261.26,126.41 261.22,124.69C261.18,122.97 261.1,121.24 260.99,119.52C260.88,117.8 260.73,116.08 260.56,114.36C260.39,112.64 260.18,110.92 259.96,109.2C259.74,107.48 259.48,105.75 259.22,104.03C258.96,102.31 258.66,100.59 258.38,98.87C258.09,97.15 257.79,95.43 257.51,93.71C257.22,91.99 256.94,90.26 256.67,88.54C256.4,86.82 256.14,85.1 255.91,83.38C255.68,81.66 255.48,79.94 255.3,78.22C255.12,76.5 254.96,74.78 254.83,73.06C254.7,71.34 254.6,69.61 254.51,67.89Q254.42,66.17 254.31,62.73L253.89,62.73Q253.78,66.17 253.69,67.89C253.6,69.61 253.5,71.34 253.37,73.06C253.24,74.78 253.08,76.5 252.9,78.22C252.72,79.94 252.52,81.66 252.29,83.38C252.06,85.1 251.8,86.82 251.53,88.54C251.26,90.26 250.98,91.99 250.69,93.71C250.41,95.43 250.11,97.15 249.82,98.87C249.54,100.59 249.24,102.31 248.98,104.03C248.72,105.75 248.46,107.48 248.24,109.2C248.02,110.92 247.81,112.64 247.64,114.36C247.47,116.08 247.32,117.8 247.21,119.52C247.1,121.24 247.02,122.97 246.98,124.69C246.94,126.41 246.94,128.13 246.99,129.85C247.04,131.57 247.13,133.29 247.26,135.01C247.39,136.73 247.57,138.45 247.76,140.17C247.95,141.89 248.18,143.62 248.4,145.34C248.62,147.06 248.87,148.78 249.09,150.5C249.31,152.22 249.52,153.94 249.71,155.66C249.9,157.38 250.07,159.11 250.23,160.83C250.39,162.55 250.53,164.27 250.67,165.99C250.81,167.71 250.95,169.43 251.09,171.15C251.24,172.87 251.38,174.6 251.54,176.32C251.7,178.04 251.86,179.76 252.03,181.48C252.2,183.2 252.37,184.92 252.54,186.64C252.7,188.36 252.88,190.08 253.02,191.8C253.17,193.52 253.3,195.25 253.41,196.97C253.52,198.69 253.62,200.41 253.7,202.13Q253.78,203.85 253.89,207.29Z" style="vector-effect: none; stroke-width: 2px; stroke: rgb(239, 85, 59); stroke-opacity: 1; fill: rgb(239, 85, 59); fill-opacity: 0.5;"/><path class="box" d="M243.85,131.55H264.35M243.85,142.72H264.35V110.33H243.85ZM254.1,142.72V175.21M254.1,110.33V94.82" style="vector-effect: non-scaling-stroke; stroke-width: 2px; stroke: rgb(239, 85, 59); stroke-opacity: 1; fill: rgb(239, 85, 59); fill-opacity: 0.5;"/><g class="points"><path class="point" transform="translate(198.06,175.21)" d="M3,0A3,3 0 1,1 0,-3A3,3 0 0,1 3,0Z" style="opacity: 1; stroke-width: 0px; fill: rgb(239, 85, 59); fill-opacity: 1;"/><path class="point" transform="translate(185.8,164.56)" d="M3,0A3,3 0 1,1 0,-3A3,3 0 0,1 3,0Z" style="opacity: 1; stroke-width: 0px; fill: rgb(239, 85, 59); fill-opacity: 1;"/><path class="point" transform="translate(200.78,142.72)" d="M3,0A3,3 0 1,1 0,-3A3,3 0 0,1 3,0Z" style="opacity: 1; stroke-width: 0px; fill: rgb(239, 85, 59); fill-opacity: 1;"/><path class="point" transform="translate(183.13,138.37)" d="M3,0A3,3 0 1,1 0,-3A3,3 0 0,1 3,0Z" style="opacity: 1; stroke-width: 0px; fill: rgb(239, 85, 59); fill-opacity: 1;"/><path class="point" transform="translate(189.93,134.37)" d="M3,0A3,3 0 1,1 0,-3A3,3 0 0,1 3,0Z" style="opacity: 1; stroke-width: 0px; fill: rgb(239, 85, 59); fill-opacity: 1;"/><path class="point" transform="translate(198.23,128.73)" d="M3,0A3,3 0 1,1 0,-3A3,3 0 0,1 3,0Z" style="opacity: 1; stroke-width: 0px; fill: rgb(239, 85, 59); fill-opacity: 1;"/><path class="point" transform="translate(192.17,120.25)" d="M3,0A3,3 0 1,1 0,-3A3,3 0 0,1 3,0Z" style="opacity: 1; stroke-width: 0px; fill: rgb(239, 85, 59); fill-opacity: 1;"/><path class="point" transform="translate(196.15,110.33)" d="M3,0A3,3 0 1,1 0,-3A3,3 0 0,1 3,0Z" style="opacity: 1; stroke-width: 0px; fill: rgb(239, 85, 59); fill-opacity: 1;"/><path class="point" transform="translate(188.77,108.86)" d="M3,0A3,3 0 1,1 0,-3A3,3 0 0,1 3,0Z" style="opacity: 1; stroke-width: 0px; fill: rgb(239, 85, 59); fill-opacity: 1;"/><path class="point" transform="translate(184.19,94.82)" d="M3,0A3,3 0 1,1 0,-3A3,3 0 0,1 3,0Z" style="opacity: 1; stroke-width: 0px; fill: rgb(239, 85, 59); fill-opacity: 1;"/></g></g><g class="trace violins" style="opacity: 1;"><path class="violin" d="M421.71,175.07Q421.82,171.81 421.9,170.18C421.98,168.55 422.08,166.92 422.19,165.29C422.3,163.66 422.43,162.02 422.58,160.39C422.72,158.76 422.89,157.13 423.06,155.5C423.23,153.87 423.41,152.24 423.59,150.61C423.76,148.98 423.94,147.35 424.11,145.72C424.28,144.09 424.45,142.46 424.6,140.83C424.75,139.2 424.89,137.56 425.03,135.93C425.17,134.3 425.3,132.67 425.43,131.04C425.57,129.41 425.7,127.78 425.84,126.15C425.98,124.52 426.13,122.89 426.29,121.26C426.46,119.63 426.64,117.99 426.83,116.36C427.03,114.73 427.24,113.1 427.46,111.47C427.68,109.84 427.93,108.21 428.16,106.58C428.39,104.95 428.64,103.32 428.85,101.69C429.06,100.06 429.27,98.42 429.4,96.79C429.53,95.16 429.64,93.53 429.65,91.9C429.66,90.27 429.6,88.64 429.46,87.01C429.32,85.38 429.09,83.75 428.81,82.12C428.53,80.48 428.15,78.85 427.77,77.22C427.38,75.58 426.93,73.96 426.5,72.33C426.07,70.7 425.62,69.07 425.21,67.44C424.8,65.81 424.41,64.18 424.06,62.55C423.71,60.92 423.4,59.29 423.13,57.66C422.86,56.03 422.65,54.39 422.46,52.76C422.28,51.13 422.14,49.5 422.02,47.87Q421.9,46.24 421.76,42.98L421.24,42.98Q421.1,46.24 420.98,47.87C420.86,49.5 420.72,51.13 420.54,52.76C420.35,54.39 420.14,56.03 419.87,57.66C419.6,59.29 419.29,60.92 418.94,62.55C418.59,64.18 418.2,65.81 417.79,67.44C417.38,69.07 416.93,70.7 416.5,72.33C416.07,73.96 415.62,75.58 415.23,77.22C414.85,78.85 414.47,80.48 414.19,82.12C413.91,83.75 413.68,85.38 413.54,87.01C413.4,88.64 413.34,90.27 413.35,91.9C413.36,93.53 413.47,95.16 413.6,96.79C413.73,98.42 413.94,100.06 414.15,101.69C414.36,103.32 414.61,104.95 414.84,106.58C415.07,108.21 415.32,109.84 415.54,111.47C415.76,113.1 415.97,114.73 416.17,116.36C416.36,117.99 416.54,119.63 416.71,121.26C416.87,122.89 417.02,124.52 417.16,126.15C417.3,127.78 417.43,129.41 417.57,131.04C417.7,132.67 417.83,134.3 417.97,135.93C418.11,137.56 418.25,139.2 418.4,140.83C418.55,142.46 418.72,144.09 418.89,145.72C419.06,147.35 419.24,148.98 419.41,150.61C419.59,152.24 419.77,153.87 419.94,155.5C420.11,157.13 420.28,158.76 420.42,160.39C420.57,162.02 420.7,163.66 420.81,165.29C420.92,166.92 421.02,168.55 421.1,170.18Q421.18,171.81 421.29,175.07Z" style="vector-effect: none; stroke-width: 2px; stroke: rgb(0, 204, 150); stroke-opacity: 1; fill: rgb(0, 204, 150); fill-opacity: 0.5;"/><path class="box" d="M411.25,94.53H431.75M411.25,115.46H431.75V85.19H411.25ZM421.5,115.46V145.08M421.5,85.19V72.97" style="vector-effect: non-scaling-stroke; stroke-width: 2px; stroke: rgb(0, 204, 150); stroke-opacity: 1; fill: rgb(0, 204, 150); fill-opacity: 0.5;"/><g class="points"><path class="point" transform="translate(364.24,145.08)" d="M3,0A3,3 0 1,1 0,-3A3,3 0 0,1 3,0Z" style="opacity: 1; stroke-width: 0px; fill: rgb(0, 204, 150); fill-opacity: 1;"/><path class="point" transform="translate(354.36,132.21)" d="M3,0A3,3 0 1,1 0,-3A3,3 0 0,1 3,0Z" style="opacity: 1; stroke-width: 0px; fill: rgb(0, 204, 150); fill-opacity: 1;"/><path class="point" transform="translate(367.03,115.46)" d="M3,0A3,3 0 1,1 0,-3A3,3 0 0,1 3,0Z" style="opacity: 1; stroke-width: 0px; fill: rgb(0, 204, 150); fill-opacity: 1;"/><path class="point" transform="translate(351.83,112.47)" d="M3,0A3,3 0 1,1 0,-3A3,3 0 0,1 3,0Z" style="opacity: 1; stroke-width: 0px; fill: rgb(0, 204, 150); fill-opacity: 1;"/><path class="point" transform="translate(357.67,96.31)" d="M3,0A3,3 0 1,1 0,-3A3,3 0 0,1 3,0Z" style="opacity: 1; stroke-width: 0px; fill: rgb(0, 204, 150); fill-opacity: 1;"/><path class="point" transform="translate(364.91,92.74)" d="M3,0A3,3 0 1,1 0,-3A3,3 0 0,1 3,0Z" style="opacity: 1; stroke-width: 0px; fill: rgb(0, 204, 150); fill-opacity: 1;"/><path class="point" transform="translate(359.62,90.63)" d="M3,0A3,3 0 1,1 0,-3A3,3 0 0,1 3,0Z" style="opacity: 1; stroke-width: 0px; fill: rgb(0, 204, 150); fill-opacity: 1;"/><path class="point" transform="translate(363.11,85.19)" d="M3,0A3,3 0 1,1 0,-3A3,3 0 0,1 3,0Z" style="opacity: 1; stroke-width: 0px; fill: rgb(0, 204, 150); fill-opacity: 1;"/><path class="point" transform="translate(356.67,84.13)" d="M3,0A3,3 0 1,1 0,-3A3,3 0 0,1 3,0Z" style="opacity: 1; stroke-width: 0px; fill: rgb(0, 204, 150); fill-opacity: 1;"/><path class="point" transform="translate(350.96,72.97)" d="M3,0A3,3 0 1,1 0,-3A3,3 0 0,1 3,0Z" style="opacity: 1; stroke-width: 0px; fill: rgb(0, 204, 150); fill-opacity: 1;"/></g></g><g class="trace violins" style="opacity: 1;"><path class="violin" d="M589.1,342Q589.21,337.43 589.29,335.14C589.37,332.85 589.46,330.57 589.58,328.28C589.7,325.99 589.83,323.7 589.99,321.41C590.14,319.12 590.33,316.84 590.51,314.55C590.7,312.26 590.91,309.98 591.1,307.69C591.29,305.4 591.49,303.12 591.67,300.83C591.85,298.54 592.02,296.25 592.17,293.96C592.32,291.67 592.45,289.39 592.56,287.1C592.67,284.81 592.75,282.53 592.83,280.24C592.91,277.95 592.97,275.67 593.04,273.38C593.11,271.09 593.16,268.8 593.23,266.51C593.3,264.22 593.37,261.94 593.44,259.65C593.51,257.36 593.59,255.08 593.66,252.79C593.73,250.5 593.82,248.22 593.87,245.93C593.93,243.64 593.98,241.35 593.99,239.06C594,236.77 594,234.49 593.96,232.2C593.92,229.91 593.84,227.63 593.73,225.34C593.62,223.05 593.48,220.77 593.31,218.48C593.14,216.19 592.94,213.9 592.73,211.61C592.52,209.32 592.27,207.04 592.03,204.75C591.79,202.46 591.54,200.18 591.3,197.89C591.07,195.6 590.83,193.32 590.62,191.03C590.41,188.74 590.21,186.45 590.04,184.16C589.87,181.87 589.73,179.59 589.6,177.3C589.48,175.01 589.37,172.73 589.29,170.44Q589.21,168.15 589.1,163.58L588.7,163.58Q588.59,168.15 588.51,170.44C588.43,172.73 588.32,175.01 588.2,177.3C588.07,179.59 587.93,181.87 587.76,184.16C587.59,186.45 587.39,188.74 587.18,191.03C586.97,193.32 586.73,195.6 586.5,197.89C586.26,200.18 586.01,202.46 585.77,204.75C585.53,207.04 585.28,209.32 585.07,211.61C584.86,213.9 584.66,216.19 584.49,218.48C584.32,220.77 584.18,223.05 584.07,225.34C583.96,227.63 583.88,229.91 583.84,232.2C583.8,234.49 583.8,236.77 583.81,239.06C583.82,241.35 583.87,243.64 583.93,245.93C583.98,248.22 584.07,250.5 584.14,252.79C584.21,255.08 584.29,257.36 584.36,259.65C584.43,261.94 584.5,264.22 584.57,266.51C584.64,268.8 584.69,271.09 584.76,273.38C584.83,275.67 584.89,277.95 584.97,280.24C585.05,282.53 585.13,284.81 585.24,287.1C585.35,289.39 585.48,291.67 585.63,293.96C585.78,296.25 585.95,298.54 586.13,300.83C586.31,303.12 586.51,305.4 586.7,307.69C586.89,309.98 587.1,312.26 587.29,314.55C587.47,316.84 587.66,319.12 587.81,321.41C587.97,323.7 588.1,325.99 588.22,328.28C588.34,330.57 588.43,332.85 588.51,335.14Q588.59,337.43 588.7,342Z" style="vector-effect: none; stroke-width: 2px; stroke: rgb(171, 99, 250); stroke-opacity: 1; fill: rgb(171, 99, 250); fill-opacity: 0.5;"/><path class="box" d="M578.65,246.16H599.15M578.65,280.62H599.15V227.82H578.65ZM588.9,280.62V299.28M588.9,227.82V206.29" style="vector-effect: non-scaling-stroke; stroke-width: 2px; stroke: rgb(171, 99, 250); stroke-opacity: 1; fill: rgb(171, 99, 250); fill-opacity: 0.5;"/><g class="points"><path class="point" transform="translate(532.94,299.28)" d="M3,0A3,3 0 1,1 0,-3A3,3 0 0,1 3,0Z" style="opacity: 1; stroke-width: 0px; fill: rgb(171, 99, 250); fill-opacity: 1;"/><path class="point" transform="translate(520.65,290.18)" d="M3,0A3,3 0 1,1 0,-3A3,3 0 0,1 3,0Z" style="opacity: 1; stroke-width: 0px; fill: rgb(171, 99, 250); fill-opacity: 1;"/><path class="point" transform="translate(535.98,280.62)" d="M3,0A3,3 0 1,1 0,-3A3,3 0 0,1 3,0Z" style="opacity: 1; stroke-width: 0px; fill: rgb(171, 99, 250); fill-opacity: 1;"/><path class="point" transform="translate(518.14,265.23)" d="M3,0A3,3 0 1,1 0,-3A3,3 0 0,1 3,0Z" style="opacity: 1; stroke-width: 0px; fill: rgb(171, 99, 250); fill-opacity: 1;"/><path class="point" transform="translate(524.66,247.81)" d="M3,0A3,3 0 1,1 0,-3A3,3 0 0,1 3,0Z" style="opacity: 1; stroke-width: 0px; fill: rgb(171, 99, 250); fill-opacity: 1;"/><path class="point" transform="translate(533.17,244.52)" d="M3,0A3,3 0 1,1 0,-3A3,3 0 0,1 3,0Z" style="opacity: 1; stroke-width: 0px; fill: rgb(171, 99, 250); fill-opacity: 1;"/><path class="point" transform="translate(526.97,231.72)" d="M3,0A3,3 0 1,1 0,-3A3,3 0 0,1 3,0Z" style="opacity: 1; stroke-width: 0px; fill: rgb(171, 99, 250); fill-opacity: 1;"/><path class="point" transform="translate(530.53,227.82)" d="M3,0A3,3 0 1,1 0,-3A3,3 0 0,1 3,0Z" style="opacity: 1; stroke-width: 0px; fill: rgb(171, 99, 250); fill-opacity: 1;"/><path class="point" transform="translate(523.77,215.09)" d="M3,0A3,3 0 1,1 0,-3A3,3 0 0,1 3,0Z" style="opacity: 1; stroke-width: 0px; fill: rgb(171, 99, 250); fill-opacity: 1;"/><path class="point" transform="translate(518.36,206.29)" d="M3,0A3,3 0 1,1 0,-3A3,3 0 0,1 3,0Z" style="opacity: 1; stroke-width: 0px; fill: rgb(171, 99, 250); fill-opacity: 1;"/></g></g><g class="trace violins" style="opacity: 1;"><path class="violin" d="M756.6,166.99Q756.76,164.55 756.88,163.33C757,162.11 757.15,160.89 757.34,159.68C757.53,158.46 757.76,157.24 758.02,156.02C758.29,154.8 758.6,153.58 758.93,152.36C759.27,151.14 759.65,149.92 760.03,148.7C760.41,147.48 760.84,146.27 761.23,145.05C761.62,143.83 762.03,142.61 762.38,141.39C762.73,140.17 763.07,138.96 763.33,137.73C763.59,136.52 763.8,135.29 763.96,134.07C764.12,132.85 764.2,131.63 764.27,130.41C764.34,129.19 764.33,127.98 764.36,126.76C764.39,125.54 764.38,124.32 764.43,123.1C764.48,121.88 764.54,120.66 764.64,119.44C764.75,118.22 764.91,117 765.06,115.78C765.22,114.56 765.42,113.35 765.57,112.13C765.72,110.91 765.9,109.69 765.97,108.47C766.04,107.25 766.08,106.03 766,104.81C765.92,103.59 765.74,102.36 765.47,101.15C765.2,99.92 764.81,98.7 764.38,97.49C763.94,96.26 763.39,95.05 762.86,93.84C762.33,92.62 761.73,91.4 761.19,90.18C760.65,88.96 760.1,87.75 759.62,86.52C759.15,85.31 758.71,84.09 758.35,82.86C757.99,81.65 757.69,80.43 757.45,79.21Q757.21,78 756.89,75.55L755.71,75.55Q755.39,78 755.15,79.21C754.91,80.43 754.61,81.65 754.25,82.86C753.89,84.09 753.45,85.31 752.98,86.52C752.5,87.75 751.95,88.96 751.41,90.18C750.87,91.4 750.27,92.62 749.74,93.84C749.21,95.05 748.66,96.26 748.22,97.49C747.79,98.7 747.4,99.92 747.13,101.15C746.86,102.36 746.68,103.59 746.6,104.81C746.52,106.03 746.56,107.25 746.63,108.47C746.7,109.69 746.88,110.91 747.03,112.13C747.18,113.35 747.38,114.56 747.54,115.78C747.69,117 747.85,118.22 747.96,119.44C748.06,120.66 748.12,121.88 748.17,123.1C748.22,124.32 748.21,125.54 748.24,126.76C748.27,127.98 748.26,129.19 748.33,130.41C748.4,131.63 748.48,132.85 748.64,134.07C748.8,135.29 749.01,136.52 749.27,137.73C749.53,138.96 749.87,140.17 750.22,141.39C750.57,142.61 750.98,143.83 751.37,145.05C751.76,146.27 752.19,147.48 752.57,148.7C752.95,149.92 753.33,151.14 753.67,152.36C754,153.58 754.31,154.8 754.58,156.02C754.84,157.24 755.07,158.46 755.26,159.68C755.45,160.89 755.6,162.11 755.72,163.33Q755.84,164.55 756,166.99Z" style="vector-effect: none; stroke-width: 2px; stroke: rgb(255, 161, 90); stroke-opacity: 1; fill: rgb(255, 161, 90); fill-opacity: 0.5;"/><path class="box" d="M746.05,114.54H766.55M746.05,132.79H766.55V101.47H746.05ZM756.3,132.79V144.65M756.3,101.47V97.89" style="vector-effect: non-scaling-stroke; stroke-width: 2px; stroke: rgb(255, 161, 90); stroke-opacity: 1; fill: rgb(255, 161, 90); fill-opacity: 0.5;"/><g class="points"><path class="point" transform="translate(699.68,144.65)" d="M3,0A3,3 0 1,1 0,-3A3,3 0 0,1 3,0Z" style="opacity: 1; stroke-width: 0px; fill: rgb(255, 161, 90); fill-opacity: 1;"/><path class="point" transform="translate(688.76,133.29)" d="M3,0A3,3 0 1,1 0,-3A3,3 0 0,1 3,0Z" style="opacity: 1; stroke-width: 0px; fill: rgb(255, 161, 90); fill-opacity: 1;"/><path class="point" transform="translate(702.34,132.79)" d="M3,0A3,3 0 1,1 0,-3A3,3 0 0,1 3,0Z" style="opacity: 1; stroke-width: 0px; fill: rgb(255, 161, 90); fill-opacity: 1;"/><path class="point" transform="translate(686.03,131.39)" d="M3,0A3,3 0 1,1 0,-3A3,3 0 0,1 3,0Z" style="opacity: 1; stroke-width: 0px; fill: rgb(255, 161, 90); fill-opacity: 1;"/><path class="point" transform="translate(692.17,117.23)" d="M3,0A3,3 0 1,1 0,-3A3,3 0 0,1 3,0Z" style="opacity: 1; stroke-width: 0px; fill: rgb(255, 161, 90); fill-opacity: 1;"/><path class="point" transform="translate(700.35,111.85)" d="M3,0A3,3 0 1,1 0,-3A3,3 0 0,1 3,0Z" style="opacity: 1; stroke-width: 0px; fill: rgb(255, 161, 90); fill-opacity: 1;"/><path class="point" transform="translate(694.35,105.22)" d="M3,0A3,3 0 1,1 0,-3A3,3 0 0,1 3,0Z" style="opacity: 1; stroke-width: 0px; fill: rgb(255, 161, 90); fill-opacity: 1;"/><path class="point" transform="translate(697.92,101.47)" d="M3,0A3,3 0 1,1 0,-3A3,3 0 0,1 3,0Z" style="opacity: 1; stroke-width: 0px; fill: rgb(255, 161, 90); fill-opacity: 1;"/><path class="point" transform="translate(691.51,100.85)" d="M3,0A3,3 0 1,1 0,-3A3,3 0 0,1 3,0Z" style="opacity: 1; stroke-width: 0px; fill: rgb(255, 161, 90); fill-opacity: 1;"/><path class="point" transform="translate(685.76,97.89)" d="M3,0A3,3 0 1,1 0,-3A3,3 0 0,1 3,0Z" style="opacity: 1; stroke-width: 0px; fill: rgb(255, 161, 90); fill-opacity: 1;"/></g></g></g></g></g><path class="xlines-above crisp" d="M0,0" style="fill: none;"/><path class="ylines-above crisp" d="M0,0" style="fill: none;"/><g class="overlines-above"/><g class="xaxislayer-above"><g class="xtick"><text text-anchor="middle" x="0" y="441" transform="translate(166.7,0)" style="font-family: 'Arial Black'; font-size: 20px; fill: rgb(42, 63, 95); fill-opacity: 1; white-space: pre; opacity: 1;">Accuracy</text></g><g class="xtick"><text text-anchor="middle" x="0" y="441" transform="translate(334.1,0)" style="font-family: 'Arial Black'; font-size: 20px; fill: rgb(42, 63, 95); fill-opacity: 1; white-space: pre; opacity: 1;">Recall</text></g><g class="xtick"><text text-anchor="middle" x="0" y="441" transform="translate(501.5,0)" style="font-family: 'Arial Black'; font-size: 20px; fill: rgb(42, 63, 95); fill-opacity: 1; white-space: pre; opacity: 1;">Precision</text></g><g class="xtick"><text text-anchor="middle" x="0" y="441" transform="translate(668.9,0)" style="font-family: 'Arial Black'; font-size: 20px; fill: rgb(42, 63, 95); fill-opacity: 1; white-space: pre; opacity: 1;">IoU</text></g><g class="xtick"><text text-anchor="middle" x="0" y="441" transform="translate(836.3,0)" style="font-family: 'Arial Black'; font-size: 20px; fill: rgb(42, 63, 95); fill-opacity: 1; white-space: pre; opacity: 1;">Dice</text></g></g><g class="yaxislayer-above"><g class="ytick"><text text-anchor="end" x="79" y="7" transform="translate(0,376.19)" style="font-family: 'Arial Black'; font-size: 20px; fill: rgb(42, 63, 95); fill-opacity: 1; white-space: pre; opacity: 1;">0.75</text></g><g class="ytick"><text text-anchor="end" x="79" y="7" style="font-family: 'Arial Black'; font-size: 20px; fill: rgb(42, 63, 95); fill-opacity: 1; white-space: pre; opacity: 1;" transform="translate(0,307.28999999999996)">0.8</text></g><g class="ytick"><text text-anchor="end" x="79" y="7" style="font-family: 'Arial Black'; font-size: 20px; fill: rgb(42, 63, 95); fill-opacity: 1; white-space: pre; opacity: 1;" transform="translate(0,238.38)">0.85</text></g><g class="ytick"><text text-anchor="end" x="79" y="7" style="font-family: 'Arial Black'; font-size: 20px; fill: rgb(42, 63, 95); fill-opacity: 1; white-space: pre; opacity: 1;" transform="translate(0,169.48000000000002)">0.9</text></g><g class="ytick"><text text-anchor="end" x="79" y="7" style="font-family: 'Arial Black'; font-size: 20px; fill: rgb(42, 63, 95); fill-opacity: 1; white-space: pre; opacity: 1;" transform="translate(0,100.57)">0.95</text></g></g><g class="overaxes-above"/></g></g><g class="polarlayer"/><g class="smithlayer"/><g class="ternarylayer"/><g class="geolayer"/><g class="funnelarealayer"/><g class="pielayer"/><g class="iciclelayer"/><g class="treemaplayer"/><g class="sunburstlayer"/><g class="glimages"/><defs id="topdefs-2bd8c0"><g class="clips"/></defs><g class="layer-above"><g class="imagelayer"/><g class="shapelayer"/></g><g class="infolayer"><g class="g-gtitle"/><g class="g-xtitle"/><g class="g-ytitle"/></g></svg>